<svg xmlns="http://www.w3.org/2000/svg" viewBox="0 0 80 53.33"><defs><style>.cls-1{fill:#272e68;}.cls-2{fill:#fff;}.cls-3{fill:#bd1f38;}.cls-4{fill:#3b71b8;}.cls-5{fill:#d87134;}</style></defs><title>AI</title><g id="Layer_2" data-name="Layer 2"><g id="Capa_1" data-name="Capa 1"><rect class="cls-1" width="80" height="53.33"/><polygon class="cls-2" points="37.25 0 24.45 6.39 24.45 0 17.47 0 17.47 6.39 4.69 0 0 0 0 2.34 9.3 6.98 0 6.98 0 13.97 9.3 13.97 0 18.61 0 20.95 4.69 20.95 17.47 14.56 17.47 20.95 24.45 20.95 24.45 14.56 37.25 20.95 41.94 20.95 41.94 18.61 32.64 13.97 41.94 13.97 41.94 6.98 32.64 6.98 41.94 2.34 41.94 0 37.25 0"/><polygon class="cls-3" points="41.94 0 38.81 0 24.83 6.98 27.95 6.98 41.94 0"/><polygon class="cls-3" points="0 0 0 1.56 10.86 6.98 13.98 6.98 0 0"/><polygon class="cls-3" points="13.98 13.97 0 20.95 3.13 20.95 17.11 13.97 13.98 13.97"/><polygon class="cls-3" points="27.95 13.97 41.94 20.95 41.94 19.39 31.08 13.97 27.95 13.97"/><polygon class="cls-3" points="18.88 0 18.88 8.38 0 8.38 0 12.58 18.88 12.58 18.88 20.95 23.06 20.95 23.06 12.58 41.94 12.58 41.94 8.38 23.06 8.38 23.06 0 18.88 0"/><path class="cls-2" d="M61,13.23c-3.24,1.86-6.74,1.8-8.93.32V25.12c0,4,2.44,8.52,8.93,10.86,6.48-2.34,8.92-6.84,8.92-10.86V13.55C67.75,15,64.27,15.09,61,13.23"/><path class="cls-4" d="M52.87,29C54,31.75,56.58,34.36,61,36c4.43-1.61,7-4.22,8.14-7Z"/><path class="cls-5" d="M66.88,18.56c-1-1-2.27-.53-3.24-1.37a4.3,4.3,0,0,0-3-.94c.06-.13.14-.27.2-.39-4.42,1.05-4.9,6.89-.87,7.56.05-.61-.44-1-.47-1.59a1.87,1.87,0,0,1,.56.22c-.06-.69-.67-.83-.65-1.69,0-1.72.92-2.8,2.5-2.92a2.19,2.19,0,0,1,2.07.87,3.85,3.85,0,0,0,.55.77c.17.17.17.11.2-.14,0-.52,1-.74,2-.24.3.16.31.07.1-.14"/><path class="cls-5" d="M63,21.8c-.33.18-.74.92-1.4,1a3.34,3.34,0,0,0,0-.8c-.38.58-.47,1.31-1.42,2s-3,1-3.93-.08a2.31,2.31,0,0,1-.54-2.31c.19-.69.78-.72,1.11-1,.09-.08,0-.09-.13-.11-.59-.08-.76-.9-.26-2.14.11-.28,0-.26-.36.31a11.89,11.89,0,0,0-.71,2.3c-.61,1.66-.29,4,1.25,4.81l-.26.38c3.47.81,7-.64,6.69-4.31"/><path class="cls-5" d="M62.05,19.17c.2.41.79.69,1,1.24a1.37,1.37,0,0,0-.63.18,4.16,4.16,0,0,1,1.08.57l.09,0c1.3,1.38,1.86,2.74,1.38,4a2.59,2.59,0,0,1-1.58,1.56c-1.11.36-1.42-.56-2.42-.39-.08,0,0,.07.08.11.62.27.4,1-.79,1.5-.09.05-.09.05.11.08a4.16,4.16,0,0,0,2.1-.41c.59-.31,1.31-.53,1.94-.82a3.62,3.62,0,0,0,2.07-3,1.36,1.36,0,0,1,.43.52c.51-2.3-1.1-5.24-4.83-5.13"/><path class="cls-2" d="M58.5,21.53a.21.21,0,1,1-.2.2.21.21,0,0,1,.2-.2"/><path class="cls-2" d="M62.38,23a.21.21,0,1,0,.2.2.22.22,0,0,0-.2-.2"/><path class="cls-2" d="M64,19.64a.2.2,0,0,0-.2.2.21.21,0,1,0,.41,0,.21.21,0,0,0-.21-.2"/></g></g></svg>