<svg xmlns="http://www.w3.org/2000/svg" viewBox="0 0 80 53.33"><defs><style>.cls-1{fill:#bd1f34;}.cls-2{fill:#010101;}</style></defs><title>Asset 1</title><g id="Layer_2" data-name="Layer 2"><g id="Capa_1" data-name="Capa 1"><rect class="cls-1" width="80" height="53.33"/><path class="cls-2" d="M53.92,33.48a.83.83,0,0,0-.45-.14,1.21,1.21,0,0,1-.53-.12.77.77,0,0,0-.86.14c-.17.14-.28.17-.95.22-.94.08-1.24.08-1.24,0a2.9,2.9,0,0,1,.53-.39c.41-.26.58-.34.69-.29a1.07,1.07,0,0,0,.89-.36c.25-.25.3-.27.88-.25a.68.68,0,0,0,.23,0,.88.88,0,0,0-1-.55,1,1,0,0,1-.53,0,.87.87,0,0,0-1,.53,2.86,2.86,0,0,1-1.09.9l-.47.3-.94-.36a12.38,12.38,0,0,1-1.92-.86,3,3,0,0,1,.28-.37,2.71,2.71,0,0,0,.28-.36,1.26,1.26,0,0,0-.4-.24,5.76,5.76,0,0,1-2.91-2.92c-.3-.81-.16-1,.22-.27a2.32,2.32,0,0,0,1,1.11c.44.29.69.35.86.19s.16-.4-.14-.73c-.64-.74-.81-1.83-.28-1.83.2,0,.22,0,.63,1a5.31,5.31,0,0,0,1.6,2.4c.4.21,1,0,1.11-.28s0-.43-.45-.7a3,3,0,0,1-1.31-2.13c0-.29,0-.39,0-.53s.27-.15.73.53a15.47,15.47,0,0,0,3,3.29,2.35,2.35,0,0,0,2.86-.07c.19-.18.24-.28.24-.45,0-.33-.24-.45-.75-.42-1.16.05-1.27,0-1.71-.17a5.57,5.57,0,0,1-2.32-2.74c-.63-1.26-.47-1.34.57-.26,1.43,1.43,2.55,2,3.61,1.65.5-.15,1-.61,1-.95s-.19-.47-.74-.44c-.25,0-.7,0-1,0a1.7,1.7,0,0,1-1-.2,4.59,4.59,0,0,1-.88-.62,9.18,9.18,0,0,1-1.81-2.47c0-.3.26-.19,1,.42a11.91,11.91,0,0,0,2,1.39,2.15,2.15,0,0,0,.94.16c.53,0,.65,0,.9-.18a.91.91,0,0,0,.61-.86c0-.62-.25-.78-1.19-.56-1.28.33-2,.08-3.15-1.11-.58-.59-.78-.9-.71-1.09s.33-.1,1.43.45a4.36,4.36,0,0,0,2.11.74,1.55,1.55,0,0,0,1.14-.38c.47-.41.59-.84.28-1.14s-.69-.22-1.21,0a2.15,2.15,0,0,1-.76.24,3.77,3.77,0,0,1-2.6-1c-.4-.4-.59-.78-.46-.9s.28-.1.75.07a4.15,4.15,0,0,0,1.93.47,3.32,3.32,0,0,0,1.83-.47c.49-.26.81-.62.81-.86a.71.71,0,0,0-.14-.39c-.18-.29-.53-.28-1.15.05-1.25.67-2.11.78-3,.34a3.62,3.62,0,0,1-1.17-1.09c-.1-.2-.1-.22,0-.33s.2-.09,1.17.25A3.37,3.37,0,0,0,51,17.8a3.46,3.46,0,0,0,1.71-.27A2.3,2.3,0,0,0,54,16a.84.84,0,0,0-.28-.61c-.28-.09-.43,0-.87.43a3.07,3.07,0,0,1-2.44,1c-1.14,0-1.61-.18-1.61-.61s.22-.46.69-.54a8.54,8.54,0,0,0,3.94-1.8c.53-.48.73-.83.7-1.23a.82.82,0,0,0-.58-.89c-.33-.08-.56,0-.87.57a4.81,4.81,0,0,1-2.19,1.88,6.92,6.92,0,0,1-1.81.61.57.57,0,0,1-.21-.27c-.15-.43-.18-.43-.82-.17-.33.14-1,.39-1.47.56-1,.36-1.3.57-1.53,1-.13.22-.15.37-.15,1.06s0,.81-.15,1a.81.81,0,0,1-.78.36c-.6,0-.94-.36-1-1.05a3.07,3.07,0,0,1,.34-1.61,2.91,2.91,0,0,1,1.19-1.3A4,4,0,0,1,46,13.72,2.25,2.25,0,0,0,47.63,13a1.7,1.7,0,0,1-1.41-.14c.06-.05,1.37,0,1.53-.05a1.68,1.68,0,0,0,1.06-.42c.36-.25.58-.47.49-.64s-.36-.14-.53.05l-.38.42c-.2.23-.25.25-.86.36a1.88,1.88,0,0,1-.83,0c-.07-.06-.17-.14-.17-.17s.25-.24.49-.28a2.63,2.63,0,0,1,.87.18,1.2,1.2,0,0,0-.19-.4c-.15-.3-.42-.41-1.11-.44-.46,0-.64-.05-.75-.14a1.38,1.38,0,0,0-.25-.19.69.69,0,0,0-.36-.06,4.81,4.81,0,0,0-1.78.44,1.92,1.92,0,0,1-.89.2,4.66,4.66,0,0,1-.73-.06c-.5-.14-.61-.14-.61,0s.44.53.76.68.25.16.22.22a2,2,0,0,1-.84.58c-.3.09-.3.23,0,.39.16.06.27.16.27.2s-.64.61-.94.61-.22.28.17.38c.22,0,.22.06,0,.28s-.4.34-.61.28-.28,0-.15.28.12.21,0,.28a.64.64,0,0,1-.19.08h0a.06.06,0,0,0,0,0h-.09a.06.06,0,0,1,0,0h0a.36.36,0,0,1-.19-.08c-.12-.07-.12-.09,0-.28s.08-.34-.15-.28a.58.58,0,0,1-.61-.28c-.19-.22-.19-.23,0-.28.39-.08.53-.38.17-.38s-.94-.42-.94-.61a.59.59,0,0,1,.27-.2c.34-.17.34-.28,0-.39a1.84,1.84,0,0,1-.84-.58c0-.06,0-.14.22-.22s.76-.56.76-.68-.09-.1-.61,0a4.25,4.25,0,0,1-.73.06,1.62,1.62,0,0,1-.89-.2,4.72,4.72,0,0,0-1.78-.44,1.07,1.07,0,0,0-.36.06,1.1,1.1,0,0,0-.25.19c-.1.08-.25.12-.75.14-.69,0-1,.14-1.11.44a1.55,1.55,0,0,0-.19.4,3.35,3.35,0,0,1,.87-.18c.24,0,.49.2.49.28s-.08.09-.17.17a1.88,1.88,0,0,1-.83,0c-.61-.09-.66-.13-.86-.36s-.28-.33-.38-.42-.43-.24-.53-.05.14.39.49.64a1.65,1.65,0,0,0,1.06.42c.17,0,1.47,0,1.53.05a1.77,1.77,0,0,1-1.4.14c.17.36.89.63,1.6.69a3.9,3.9,0,0,1,1.91.62,3.13,3.13,0,0,1,1.19,1.3,3.23,3.23,0,0,1,.34,1.61c0,.69-.37,1.05-1,1.05a.8.8,0,0,1-.78-.36c-.14-.19-.15-.28-.15-1s0-.84-.14-1.06c-.24-.45-.57-.67-1.54-1-.48-.17-1.15-.42-1.46-.56-.65-.26-.68-.26-.83.17-.05.16-.14.27-.21.27a6.55,6.55,0,0,1-1.81-.61,5,5,0,0,1-2.19-1.88c-.32-.5-.56-.65-.87-.57a.81.81,0,0,0-.58.89,1.69,1.69,0,0,0,.7,1.23,8.54,8.54,0,0,0,3.94,1.8c.47.06.69.25.69.54s-.47.61-1.61.61a3.08,3.08,0,0,1-2.44-1c-.44-.46-.59-.54-.87-.43s-.28.38-.28.61a2.34,2.34,0,0,0,1.29,1.58,3.28,3.28,0,0,0,1.71.27A3.31,3.31,0,0,0,30,17.56c1-.36,1-.37,1.17-.25s.08.13,0,.33A3.51,3.51,0,0,1,30,18.73a2.92,2.92,0,0,1-3-.34c-.63-.34-1-.36-1.16-.05a1.15,1.15,0,0,0-.14.39c0,.24.33.6.81.86a3.23,3.23,0,0,0,1.83.47,4.14,4.14,0,0,0,1.94-.47c.44-.18.62-.2.75-.07s-.08.5-.47.9a3.85,3.85,0,0,1-2.59,1,2.82,2.82,0,0,1-.77-.24c-.5-.25-1-.26-1.2,0s-.19.75.28,1.14a1.53,1.53,0,0,0,1.14.38,4.32,4.32,0,0,0,2.11-.74c1.09-.56,1.36-.64,1.42-.45s-.14.5-.7,1.09c-1.19,1.21-1.86,1.44-3.16,1.11-.91-.23-1.23-.06-1.19.56a.9.9,0,0,0,.61.86,1.62,1.62,0,0,0,.94.18,2,2,0,0,0,.94-.16,12.75,12.75,0,0,0,2-1.39c.69-.61,1-.74,1-.42a8.74,8.74,0,0,1-1.81,2.47,4.93,4.93,0,0,1-.88.62,1.69,1.69,0,0,1-1,.2c-.32,0-.78,0-1,0-.56,0-.73.06-.73.44s.47.8,1,.95c1.05.3,2.21-.22,3.61-1.65,1.05-1.07,1.21-1,.58.26a5.64,5.64,0,0,1-2.33,2.74c-.43.2-.56.22-1.7.17-.5,0-.75.09-.75.42a.58.58,0,0,0,.23.45,2.34,2.34,0,0,0,2.85.07,14.72,14.72,0,0,0,3-3.29c.45-.67.56-.76.7-.53s.09.22,0,.53a3.17,3.17,0,0,1-1.31,2.13c-.44.28-.55.45-.46.7s.74.49,1.11.28a5.39,5.39,0,0,0,1.61-2.4c.41-.94.42-1,.63-1,.53,0,.34,1.09-.29,1.83-.28.33-.34.54-.14.73s.43.1.86-.19a2.49,2.49,0,0,0,1-1.11c.37-.73.54-.54.22.27a5.68,5.68,0,0,1-2.91,2.92,1.56,1.56,0,0,0-.41.24l.28.36a2,2,0,0,1,.29.37,11.74,11.74,0,0,1-1.93.86l-.93.36-.47-.3c-.66-.4-1-.7-1.1-.9a.86.86,0,0,0-1-.53.92.92,0,0,1-.53,0,.84.84,0,0,0-1,.55.7.7,0,0,0,.23,0c.58,0,.64,0,.88.25a1.12,1.12,0,0,0,.89.36c.14,0,.28,0,.68.29a3.19,3.19,0,0,1,.54.39c0,.07-.3.07-1.24,0-.66,0-.78-.06-.95-.22a.79.79,0,0,0-.86-.14,1.52,1.52,0,0,1-.53.12.89.89,0,0,0-.46.14.81.81,0,0,0-.39.49,2.14,2.14,0,0,0,.49,0c.42-.06.47-.06.61.06a3.07,3.07,0,0,0,.28.2,1.16,1.16,0,0,0,.84,0,3.84,3.84,0,0,1,1.14-.08h1a2.64,2.64,0,0,1-.45.33c-.49.3-.55.33-1,.3-.57,0-.88.17-1,.53a3.12,3.12,0,0,1-.14.5c-.08.34-.12.39.13,1,.26-.64.18-.45.26-.57s.19-.24.5-.25a.83.83,0,0,0,.81-.53c.13-.24.24-.36.83-.71.82-.5.77-.5,1.67-.08.46.22.61.33.69.47a.58.58,0,0,0,.75.27.49.49,0,0,1,.64.25c.08.12.08.09.22.22a1.75,1.75,0,0,0,0-.39c0-.27,0-.33-.37-.66s-.64-.5-.94-.41c-.14,0-.25,0-.59-.14s-.55-.32-.35-.32c0,0,.66-.24,1.38-.5l1.29-.5.19.15a2.76,2.76,0,0,0,1.17.55c.22,0,.25,0,.33-.25a15.68,15.68,0,0,1,1.27-2.44c.67-1.05,1-1.31,1.36-1,.09.12.12.23.12.62a5.64,5.64,0,0,1-1.56,3.58,2.86,2.86,0,0,1-1.59.81c-.47.06-.8.19-.8.3s.33.5.5.61a1.57,1.57,0,0,0,.7.09,1.49,1.49,0,0,0,1-.3c.42-.25.48-.26.56-.18s.08.14,0,.37c-.14.5-.49.74-1.34.83s-1.16.38-.86.77a1.1,1.1,0,0,0,.95.39,2.1,2.1,0,0,0,1.5-.77,1.79,1.79,0,0,1,.5-.37,1.41,1.41,0,0,1,0,.87,1.63,1.63,0,0,1-.75.88c-.09,0-.34.12-.54.17-.69.19-.8.47-.3.8a1.37,1.37,0,0,0,1.25,0,4.39,4.39,0,0,0,1.09-1c.13-.22.24,0,.21.25a2.49,2.49,0,0,1-.53,1c-.29.39-.19.91.28,1.61a2.72,2.72,0,0,0,.76.86,3.13,3.13,0,0,0,.77-.86c.47-.7.58-1.23.28-1.61a2.26,2.26,0,0,1-.53-1c0-.33.08-.47.2-.25a4.76,4.76,0,0,0,1.09,1,1.37,1.37,0,0,0,1.25,0c.49-.33.4-.6-.29-.8-.21,0-.44-.14-.55-.17a2.05,2.05,0,0,1-.75-.88c-.09-.33-.09-.83,0-.87a1.57,1.57,0,0,1,.5.37,2.12,2.12,0,0,0,1.5.77,1.14,1.14,0,0,0,.95-.39c.28-.41,0-.66-.86-.77s-1.2-.34-1.34-.83c-.07-.23-.07-.28,0-.37s.16-.07.56.18a1.46,1.46,0,0,0,1,.3,1.2,1.2,0,0,0,.7-.09,1.18,1.18,0,0,0,.5-.61c0-.13-.33-.24-.8-.3a2.69,2.69,0,0,1-1.59-.81,5.64,5.64,0,0,1-1.56-3.58c0-.41,0-.53.12-.62.3-.35.67-.07,1.36,1a15.66,15.66,0,0,1,1.27,2.44c.06.23.09.25.32.25A2.55,2.55,0,0,0,44.91,33l.18-.15,1.3.5c.7.26,1.34.5,1.38.5.2,0,0,.14-.35.32s-.45.19-.59.14-.53,0-.94.41-.37.41-.37.66a1.75,1.75,0,0,0,0,.39c.14-.13.14-.08.22-.22s.34-.35.64-.25a.6.6,0,0,0,.75-.27c.07-.15.23-.25.68-.47.91-.42.86-.42,1.68.08.59.38.7.47.82.71a.88.88,0,0,0,.82.53c.32,0,.37,0,.5.25s0-.08.26.57c.25-.59.22-.64.13-1,0-.14-.1-.37-.14-.5-.08-.36-.41-.53-1-.53a1.34,1.34,0,0,1-1-.3,1.76,1.76,0,0,1-.45-.33h1a4.93,4.93,0,0,1,1.14.08,1.07,1.07,0,0,0,.84,0,1.62,1.62,0,0,0,.28-.2c.14-.12.19-.14.61-.06a2.19,2.19,0,0,0,.49,0c.35-.27.23-.35,0-.49M44.67,12.36c.14-.08-.12-.36.17-.34a1.16,1.16,0,0,1,.28,0,.25.25,0,0,1,.19.39,1.29,1.29,0,0,1-1,.07c-.24-.61.17,0,.34-.16m-9,.2a1.44,1.44,0,0,1-1-.06c-.14-.14,0-.36.18-.39l.29,0c.28,0,0,.25.15.35s.6-.5.36.15"/></g></g></svg>