<svg xmlns="http://www.w3.org/2000/svg" viewBox="0 0 80 53.33"><defs><style>.cls-1{fill:#d80027;}.cls-2{fill:#ffda44;}</style></defs><title>AO</title><g id="Layer_2" data-name="Layer 2"><g id="Capa_1" data-name="Capa 1"><rect width="80" height="53.33"/><rect class="cls-1" width="80" height="26.67"/><polygon class="cls-2" points="36.34 21.2 38.61 22.84 37.75 25.5 40 23.86 42.27 25.5 41.39 22.84 43.66 21.2 40.86 21.2 40 18.55 39.14 21.2 36.34 21.2"/><path class="cls-2" d="M46.67,15.13A13.16,13.16,0,0,0,40,13.34v3.49a9.86,9.86,0,1,1-4.94,18.39,9.73,9.73,0,0,1-3.29-3.11L28.86,34a13.33,13.33,0,0,0,22.67-.67A13.35,13.35,0,0,0,46.67,15.13Z"/><path class="cls-2" d="M32.31,24.34a3.49,3.49,0,0,0,1.38,4.72L45,35.23A2.81,2.81,0,0,0,46,39.11l3,1.67A2.91,2.91,0,0,0,53,39.63l1.67-3.05Z"/></g></g></svg>