<svg xmlns="http://www.w3.org/2000/svg" viewBox="0 0 80 53.33"><defs><style>.cls-1{fill:#557abc;}.cls-2{fill:#fff;}</style></defs><title>AQ</title><g id="Layer_2" data-name="Layer 2"><g id="Capa_1" data-name="Capa 1"><rect class="cls-1" width="80" height="53.33"/><path class="cls-2" d="M21.39,25A2.73,2.73,0,0,1,21,23.25a1.63,1.63,0,0,1-.39,0c-.13,0-.17.8-.6.64-.07-.09.29-.67-.09-.94-.12-.09,0-.56,0-.79,0,0-.49.26-.87-.66-.17-.23-.44.22-.44.22s.11.28-.09.34c-.28-.2-.49-.09-.83-.37s.08-.61-.61-.83c.44-1.08.44-.88,1.52-1.3a2.35,2.35,0,0,1-1.08-1.08A4.72,4.72,0,0,1,16,17.61a8.7,8.7,0,0,1-1.29-4.77c.54-.51,1.29,1.75,2.37,2.38l1.52.65c.87.43,1.07.88,1.75,1.3l1.95.66c.87.65,1.3,1.51,1.95,1.75.72,0,.83-.41,1.07-.42,1.28-.08,1.92-.24,2.18-.61s.88.17,2.61-.49l-.22-.87A1.31,1.31,0,0,1,30.92,17c0-.39-.05-1.45.56-1.94-.37-.39-.12-.67-.12-.67a2,2,0,0,0,.39-.52c-.17-.95.16-1,.23-1.25s-.29-.17-.2-.56.74-.48.81-.8-.17-.48-.15-.54a3.78,3.78,0,0,0,0-1.3c1.17-.31,1.54-1.27,2-.87.22-1.3.42-1.75,1.75-1.75.17-.4-.48-.75-.22-.88.42,0,.77,0,1.28.64.16.22.21-.3.36-.36s.55,0,.61-.31a3.39,3.39,0,0,1,.38-1.05c.17-.36.31.14.48.83a22.51,22.51,0,0,1,3.86.48c.66.18,1.08-.17,1.7-.23.47.47.89.13,1.14,1.11.35.53.91,0,1,.2.73,2,3.21.66,3.4.69s.72.89.95.88c.41-.08.29-.35.65-.24-.1.75.68,1.63.68,2.19a.36.36,0,0,0,.38-.08c.17-.16.34-.61.5-.59.37,0,.53.11,1,.17,1.17.4,1.78.5,2.24.69.22.39.4.59.86.51.36.24.09.55.29.56.42-.21.57-.46,1-.23a2.74,2.74,0,0,1,1.08,1.08,7.59,7.59,0,0,0,0,2.37,4.2,4.2,0,0,0,.62,1.53c-.12.77.6,2.05.6,2.38s-.35.66-.57,1.08c.88.65,0,1.72-.42,2.37,3.25.66,1.75,2,4.34,1.3-.65,1.51-.42,1.41.24,2.92-1.3.88,0,1.14-.89,2.22a1.53,1.53,0,0,0,1.31.94c-.22,1.72-.87,1.08-.66,3.68-1.7,0-1,2-2.17,1.75.08,1.25.66,1.35.42,2.6-.87.22-.87.22-1.29.87l-.64-.22c-.22,1.08-.66,1.3,0,2.38,0,0-.83,0-1.08,0,0,.37.37.48.44.88a4.12,4.12,0,0,1-2.18.87c-.25.53.66,1.11.6,1.37-1,.21-1.47,1.44-1.47,1.44s.52.22.44.42a1.17,1.17,0,0,0-.88-.21,1.42,1.42,0,0,0-1.26.82c-.55.18-.82.13-1.25.68-.21-.54-.47,0-.78.21s-.79.72-.83.69a5.74,5.74,0,0,1,.2-.69l-1.08.22-.14,0c-.09,0-.05-.64-.26-.61s-.8.8-1,.83-.27-.25-.43-.24-.51.82-.62.86-.61-.48-1-.4c-2.14.75-2.47-1.5-2.81-.24-.44-.23-.38-.11-.82,0-.28.08-.31-.38-.56-.38-.52,0-.5.5-.77.36-.23-1-1.62-.83-1.76-1.26s.61-.44.83-.75-.17-.61.53-1c.92-.64.39-.87.55-1.34a1.45,1.45,0,0,0,0-1.45,12,12,0,0,0-.87-2c-.42-.12-.42.72-1.07,1-1.29.42-3.59-1.11-4-1.11s-2.06.4-2-.44c-.25.81-1.19.2-1.25.2-.87,0-.53.68-1.12.64-.27-.09-2.94-.25-2.94-.25v.43l-1.75-.88-1.52-.42c-1.29-.42-.65-1.52-2.83-.88V37.08H22.91c.42-2.6,0-1.3-.22-3.69l-.88.22c-.87-1.17,1.21-.94-.65-1.75,0,0,0-1.3-.44-.88-.1.05.22.66.22.66-1.75-.22-2.17-.66-2.17-2.37,0,0,1.42.2,1.29,0a10.46,10.46,0,0,1-.42-2.58c0-.28,1.33-1,1.06-1.69Z"/><path class="cls-2" d="M65.52,31.81a.12.12,0,0,1-.1,0,.46.46,0,0,1,0-.49.11.11,0,0,1,.11-.08c.06,0,.09,0,.09.1a.42.42,0,0,1,0,.48.12.12,0,0,1-.09,0Z"/><path class="cls-2" d="M14.3,15.7h0c-.08,0-.13,0-.13-.11a.4.4,0,0,1,0-.29.34.34,0,0,1,.3-.13.17.17,0,0,1,.14.08s0,.09,0,.13a.55.55,0,0,0-.25.23c0,.08-.05.09-.11.09Z"/><path class="cls-2" d="M14.3,15.05h0a.12.12,0,0,1-.13-.11.43.43,0,0,1,0-.31.46.46,0,0,1,.36-.13h0a.27.27,0,0,1,.14.05s.08.08.05.12a.38.38,0,0,1-.11.11.4.4,0,0,0-.23.17.1.1,0,0,1-.11.1Z"/><path class="cls-2" d="M16.09,18.94s-.11,0-.12-.08a1,1,0,0,0-.16-.22.41.41,0,0,1,0-.16s0-.09.09-.11a.35.35,0,0,1,.3.13.35.35,0,0,1,0,.31c0,.08,0,.11-.13.13Z"/></g></g></svg>