<svg xmlns="http://www.w3.org/2000/svg" viewBox="0 0 80 53.33"><defs><style>.cls-1{fill:#0052b4;}.cls-2{fill:#f0f0f0;}.cls-3{fill:#d80027;}</style></defs><title>AU</title><g id="Layer_2" data-name="Layer 2"><g id="Capa_1" data-name="Capa 1"><rect class="cls-1" width="80" height="53.33"/><path class="cls-2" d="M34.91,26.67l.12-.14-.12.14Z"/><polygon class="cls-2" points="29.56 33.22 31.28 36.8 35.14 35.91 33.41 39.47 36.52 41.94 32.66 42.81 32.66 46.78 29.56 44.3 26.47 46.78 26.48 42.81 22.61 41.94 25.72 39.47 23.98 35.91 27.86 36.8 29.56 33.22"/><polygon class="cls-2" points="60.48 37.67 61.3 39.38 63.14 38.95 62.31 40.66 63.8 41.83 61.95 42.23 61.95 44.14 60.48 42.95 59 44.14 59.02 42.23 57.16 41.83 58.64 40.66 57.81 38.95 59.67 39.38 60.48 37.67"/><polygon class="cls-2" points="52.89 19.55 53.7 21.25 55.55 20.83 54.72 22.53 56.2 23.7 54.36 24.13 54.36 26.02 52.89 24.83 51.41 26.02 51.41 24.13 49.56 23.7 51.05 22.53 50.22 20.83 52.06 21.25 52.89 19.55"/><polygon class="cls-2" points="60.48 9.2 61.3 10.91 63.14 10.48 62.31 12.19 63.8 13.36 61.95 13.78 61.95 15.67 60.48 14.48 59 15.67 59.02 13.78 57.16 13.36 58.64 12.19 57.81 10.48 59.67 10.91 60.48 9.2"/><polygon class="cls-2" points="67.11 16.97 67.94 18.67 69.78 18.25 68.95 19.95 70.44 21.13 68.59 21.53 68.59 23.44 67.11 22.25 65.64 23.44 65.64 21.53 63.8 21.13 65.28 19.95 64.45 18.25 66.3 18.67 67.11 16.97"/><polygon class="cls-2" points="62.38 26.02 63.02 28 65.09 28 63.41 29.22 64.05 31.19 62.38 29.97 60.69 31.19 61.33 29.22 59.66 28 61.73 28 62.38 26.02"/><polygon class="cls-2" points="40 0 40 4.78 32.94 8.7 40 8.7 40 17.97 30.77 17.97 40 23.09 40 26.67 35.83 26.67 24.34 20.28 24.34 26.67 15.66 26.67 15.66 19.08 1.98 26.67 0 26.67 0 21.89 7.06 17.97 0 17.97 0 8.7 9.23 8.7 0 3.56 0 0 4.17 0 15.66 6.38 15.66 0 24.34 0 24.34 7.59 38.02 0 40 0"/><polygon class="cls-3" points="22.5 0 17.5 0 17.5 10.83 0 10.83 0 15.83 17.5 15.83 17.5 26.67 22.5 26.67 22.5 15.83 40 15.83 40 10.83 22.5 10.83 22.5 0"/><polygon class="cls-1" points="24.34 17.97 40 26.67 40 24.2 28.78 17.97 24.34 17.97"/><polygon class="cls-2" points="24.34 17.97 40 26.67 40 24.2 28.78 17.97 24.34 17.97"/><polygon class="cls-3" points="24.34 17.97 40 26.67 40 24.2 28.78 17.97 24.34 17.97"/><polygon class="cls-3" points="11.22 17.97 0 24.2 0 26.67 0 26.67 15.66 17.97 11.22 17.97"/><polygon class="cls-1" points="15.66 8.7 0 0 0 2.45 11.22 8.7 15.66 8.7"/><polygon class="cls-2" points="15.66 8.7 0 0 0 2.45 11.22 8.7 15.66 8.7"/><polygon class="cls-3" points="15.66 8.7 0 0 0 2.45 11.22 8.7 15.66 8.7"/><polygon class="cls-3" points="28.78 8.7 40 2.45 40 0 40 0 24.34 8.7 28.78 8.7"/></g></g></svg>