<svg xmlns="http://www.w3.org/2000/svg" viewBox="0 0 80 53.33"><defs><style>.cls-1{fill:#4490c3;}.cls-2{fill:#d61e42;}.cls-3{fill:#49ae68;}.cls-4{fill:#fff;}</style></defs><title>AZ</title><g id="Layer_2" data-name="Layer 2"><g id="Capa_1" data-name="Capa 1"><rect class="cls-1" width="80" height="53.33"/><rect class="cls-2" y="17.77" width="80" height="17.78"/><rect class="cls-3" y="35.55" width="80" height="17.78"/><path class="cls-4" d="M41.77,32.89a6.23,6.23,0,0,1,0-12.45,5.91,5.91,0,0,1,3.29,1,7.23,7.23,0,0,0-5.22-2.25,7.47,7.47,0,0,0,0,14.93,7.18,7.18,0,0,0,5.22-2.24,5.84,5.84,0,0,1-3.29,1"/><polygon class="cls-4" points="50.02 29.5 48.02 28.56 47.23 30.66 46.47 28.56 44.47 29.47 45.38 27.44 43.34 26.66 45.38 25.88 44.47 23.81 46.48 24.75 47.25 22.66 48.02 24.77 50.02 23.83 49.11 25.88 51.16 26.66 49.11 27.44 50.02 29.5"/></g></g></svg>