<svg xmlns="http://www.w3.org/2000/svg" viewBox="0 0 80 53.28"><defs><style>.cls-1{fill:#302d86;}.cls-2{fill:#f5cd2b;}.cls-3{fill:#fff;}</style></defs><title>BA</title><g id="Layer_2" data-name="Layer 2"><g id="Capa_1" data-name="Capa 1"><rect class="cls-1" width="80" height="53.28"/><polygon class="cls-2" points="18.03 0 71.31 53.27 71.31 0 18.03 0"/><polygon class="cls-3" points="10.28 0 8.45 0 6.59 0 5.47 3.5 8.45 1.31 11.41 3.5 10.28 0"/><polygon class="cls-3" points="60.59 51.11 56.91 51.11 59.89 53.27 61.72 53.27 63.58 53.27 66.53 51.11 62.86 51.11 61.72 47.61 60.59 51.11"/><polygon class="cls-3" points="15.11 8 18.08 10.16 16.94 6.66 19.92 4.5 16.25 4.5 15.11 1 13.97 4.5 10.28 4.5 13.27 6.66 12.13 10.16 15.11 8"/><polygon class="cls-3" points="21.77 14.64 24.73 16.81 23.59 13.31 26.58 11.16 22.91 11.16 21.77 7.66 20.64 11.16 16.94 11.16 19.92 13.31 18.8 16.81 21.77 14.64"/><polygon class="cls-3" points="28.44 21.3 31.39 23.48 30.27 19.97 33.25 17.8 29.56 17.8 28.44 14.31 27.3 17.8 23.61 17.8 26.59 19.97 25.45 23.48 28.44 21.3"/><polygon class="cls-3" points="35.09 27.97 38.06 30.13 36.92 26.64 39.91 24.48 36.23 24.48 35.09 20.98 33.94 24.48 30.27 24.48 33.25 26.64 32.11 30.13 35.09 27.97"/><polygon class="cls-3" points="41.73 34.63 44.72 36.78 43.58 33.3 46.56 31.13 42.88 31.13 41.73 27.64 40.61 31.13 36.94 31.13 39.91 33.3 38.78 36.78 41.73 34.63"/><polygon class="cls-3" points="48.41 41.28 51.38 43.44 50.25 39.97 53.23 37.78 49.53 37.78 48.41 34.28 47.27 37.78 43.59 37.78 46.58 39.97 45.44 43.44 48.41 41.28"/><polygon class="cls-3" points="55.06 47.95 58.05 50.11 56.91 46.61 59.89 44.45 56.2 44.45 55.06 40.97 53.92 44.45 50.25 44.45 53.23 46.61 52.09 50.11 55.06 47.95"/></g></g></svg>