<svg xmlns="http://www.w3.org/2000/svg" viewBox="0 0 80 53.33"><defs><style>.cls-1{fill:#2c3078;}.cls-2{fill:#f4c637;}.cls-3{fill:#010101;}</style></defs><title>BB</title><g id="Layer_2" data-name="Layer 2"><g id="Capa_1" data-name="Capa 1"><rect class="cls-1" width="80" height="53.33"/><rect class="cls-2" x="26.67" width="26.67" height="53.33"/><path class="cls-3" d="M39.94,13.73c-.88,2.36-1.75,4.83-3.64,6.71a7.12,7.12,0,0,1,2.26-.35V30l-2.79.42c-.11,0-.15-.17-.15-.39a37.11,37.11,0,0,0-1.84-8.36c-.06-.37-1.12-1.76-.3-1.51.1,0,1.21.47,1,.25a10.59,10.59,0,0,0-5.8-3c-.18,0-.29.05-.12.27,2.81,4.33,5.17,9.44,5.14,15.5,1.09,0,3.75-.64,4.84-.64v7H41.3v-7c1.09,0,3.75.64,4.84.64,0-6.06,2.33-11.17,5.14-15.5.17-.22.06-.31-.12-.27a10.59,10.59,0,0,0-5.8,3c-.17.22.92-.24,1-.25.82-.25-.25,1.15-.29,1.51a38.82,38.82,0,0,0-1.85,8.36c0,.22,0,.38-.14.39L41.3,30V20.09a8.4,8.4,0,0,1,2.26.35c-1.86-1.88-2.76-4.35-3.62-6.71"/></g></g></svg>