<svg xmlns="http://www.w3.org/2000/svg" viewBox="0 0 80 53.39"><defs><style>.cls-1{fill:#ba2025;}.cls-2{fill:#409b46;}.cls-3{fill:#fff;}</style></defs><title>BY</title><g id="Layer_2" data-name="Layer 2"><g id="Capa_1" data-name="Capa 1"><rect class="cls-1" y="0.02" width="80" height="35.54"/><rect class="cls-2" y="35.56" width="80" height="17.78"/><rect class="cls-3" y="0.02" width="11.73" height="53.32"/><path class="cls-1" d="M1.42,52.35h.52V50.87H1.42Zm4.19,0h.52V50.87H5.61Zm4.18,0h.51V50.87H9.79ZM3.52,48.41H4V47.18H3.52Zm4.17,0h.52V47.18H7.69ZM1.42,45.22h.52V43.74H1.42Zm4.19,0h.52V43.74H5.61Zm4.18,0h.51V43.74H9.79Zm-7.32,2H3V46H3.5V44.72H4V46h.51v1.23h.52v1.24H4.53v1.23H4V50.9H3.5V49.66H3V48.43H2.47Zm4.18,0h.51V46h.52V44.72h.53V46h.53v1.23h.52v1.24H8.74v1.23H8.21V50.9H7.69V49.66H7.18V48.43H6.66V47.19Zm1-4.91v1.24H7.18v1.23H6.66V46H6.15v1.23H5.63V46H5.11V44.74H4.6V43.5H4.08V42.27H3.57V43.5H3.05v1.24H2.53V46H2v1.24h-.6v1.23h.52v1.24h.52v1.23H3v1.24h.52v1.24H4V52.15h.52V50.91H5V49.68h.53V48.44h.51v1.24H6.6v1.23h.53v1.24h.52v1.24h.58V52.15h.53V50.91h.51V49.68h.52V48.44h.51V47.21H9.79V46H9.27V44.74H8.76V43.5H8.23V42.27H7.69ZM9,41.05h.26v-.49h.27v.49H9.8v.5H9.54v.5H9.27v-.5H9Zm0-1.72v.73H8.74v.74H8.48v1h.26v.74H9v.73h.78v-.73h.26v-.74h.27v-1h-.27v-.74H9.79v-.73ZM2,41.05h.27v-.5h.27v.5h.26v.5H2.49v.5H2.22v-.5H2Zm0-1.72v.73H1.69v.74H1.42v1h.27v.74H2v.73h.78v-.73H3v-.74h.26v-1H3v-.74H2.75v-.73Zm2.87,1.72H5.1v-.5h.26v.5h.27v.5H5.36v.5H5.1v-.5H4.83v-.5Zm1.31,0H6.4v-.5h.26v.5h.27v.5H6.66v.5H6.4v-.5H6.13Zm0-1.72v.73H5.61v-.73H4.83v.73H4.57v.74H4.3v1h.27v.74h.26v.73h.78v-.73h.52v.73h.78v-.73h.27v-.74h.26v-1H7.18v-.74H6.91v-.73Zm-4.71-.5h.52V37.34H1.42Zm4.19,0h.52V37.34H5.61Zm4.18,0h.51V37.34H9.79ZM1.42,32.7h.52v-1H1.42Zm8.37,0h.51v-1H9.79ZM5.61,29.26h.52V28H5.61ZM1.42,25.94v.74h0v.74h.52v-.75h0v-.74Zm2.88,0v.74h0v.74h.52v-.75h0v-.74Zm2.61,0v.74h0v.74h.52v-.75h0v-.74Zm2.88,0v.74h0v.74h.51v-.75h0v-.74ZM6.4,25.08v.49H6.13v.37H5.61v-.37H5.35v-.49H4.83v.74H5.1v.37h.26v.49h0v.49H5.1v.37H4.83v.74h.52v-.5h.26v-.38h.52v.38H6.4v.5h.51v-.74H6.65v-.37H6.38v-.5h0v-.49h.27v-.37h.26v-.74Zm-.79.24h.52V24.08H5.61ZM1.42,21.64h.52v-1H1.42Zm8.37,0h.51v-1H9.79ZM1.42,16h.52V14.5H1.42Zm4.19,0h.52V14.5H5.61Zm4.18,0h.51V14.5H9.79ZM3.52,26.69h0v-.49H4v-.86h.52v-1h.78V23.19H5.6v-.55h.55v.55h.26v1.16h.78v1h.52v.86h.5v1H7.69v.86H7.18v1H6.4v1.16H6.13v.55H5.6v-.58H5.33V29H4.55V28H4v-.86H3.52v-.5h0ZM7.69,13v1.23H7.18V15.5H6.66v1.23H6.15V18H5.63V16.73H5.11V15.5H4.6V14.26H4.08V13H3.57v1.23H3.05V15.5H2.53v1.23H2V18h-.6V19.2h.52v1.24h.52v1.23H3v1.24h.52V21.67H4V20.44h.52V19.19H4V17.7h.52v1H5v1.95H5.3v1.22l-.78,0v1H4v.74H3.49v1.23H3V23.6H2.46v-.74H1.94v-.73H1.42v2.22h.52v1h.52v.86H3v.49H3v.49H2.46V28H1.94v1H1.42v2.22h.52v-.73h.52v-.74H3V28.54h.52v1.23H4v.74h.52v1l.78,0v1.22H5v2H4.52v1H4V34.21h.52V33H4V31.74H3.49V30.51H3v1.23H2.46V33H1.94v1.23H1.42v1.24h.52v1.23h.52v1.24H3v1.24h.52v1.23H4v-1.3h.52V37.86H5V36.62h.53V35.39h.51v1.23H6.6v1.24h.53v1.23h.52v1.24h.58V39.09h.53V37.86h.51V36.62h.52V35.39h.51V34.15H9.79V32.92H9.27V31.68H8.76V30.45H8.23v1.23H7.71v1.24H7.19v1.23h.52v1.49H7.19v-1H6.66v-2H6.38V31.45h.81v-1h.52v-.73h.5V28.52h.53v1.24h.52v.73h.53v.74h.51V29H9.79V28H9.27v-.86H8.76v-.5h0v-.48h.51v-.85h.52v-1h.51V22.13H9.79v.73H9.27v.74H8.76v1.23H8.23V23.6H7.71v-.74H7.19v-1H6.38V20.66h.28v-2h.52v-1h.51v1.49H7.18v1.23h.51v1.24h.54v1.23h.53V21.66h.51V20.42h.52V19.17h.51V17.94H9.79V16.7H9.27V15.48H8.76V14.25H8.23V13H7.71v0ZM2,11.81h.27v-.49h.27v.5h.26v.5H2.49v.5H2.22v-.5H2Zm0-1H1.69v.74H1.42v1h.27v.74H2V14h.78v-.72H3v-.73h.26v-1H3v-.73H2.75V10.1H2v.72Zm2.87,1H5.1v-.49h.26v.5h.27v.5H5.36v.5H5.1v-.5H4.83v-.51Zm1.31,0H6.4v-.49h.26v.5h.27v.5H6.66v.5H6.4v-.5H6.13Zm-1.31-1H4.55v.74H4.28v1h.27v.74h.27V14H5.6v-.72h.51V14H6.9v-.74h.26v-.73h.28v-1H7.18v-.73H6.91V10.1H6.13v.74H5.61V10.1H4.83v.72Zm4.19,1h.26v-.49h.27v.5H9.8v.49H9.54v.5H9.27v-.5H9Zm0-1.72v.73H8.74v.74H8.48v1h.26v.74H9V14h.78v-.72h.26v-.73h.27v-1h-.27v-.73H9.79V10.1H9Zm-7.59-.5h.52V8.1H1.42Zm4.19,0h.52V8.1H5.61Zm4.18,0h.51V8.1H9.79ZM3.52,6.16H4V4.93H3.52Zm4.17,0h.52V4.93H7.69ZM1.42,2.47h.52V1H1.42Zm4.19,0h.52V1H5.61Zm4.18,0h.51V1H9.79ZM2.47,4.93H3V3.69H3.5V2.46H4V3.69h.51V4.93h.52V6.16H4.53V7.4H4V8.63H3.5V7.4H3V6.16H2.47Zm4.18,0h.51V3.69h.52V2.46h.53V3.69h.53V4.93h.52V6.16H8.74V7.4H8.21V8.63H7.69V7.4H7.18V6.16H6.66V4.93ZM7.69,0V1.25H7.18V2.49H6.66V3.72H6.15V5H5.63V3.72H5.11V2.49H4.6V1.25H4.08V0H3.57V1.25H3.05V2.49H2.53V3.72H2V5h-.6V6.19h.52V7.43h.52V8.66H3V9.9h.52v1.2H4V9.87h.52V8.63H5V7.38h.53V6.15h.51V7.38H6.6V8.62h.53V9.85h.52v1.24h.58V9.85h.53V8.62h.51V7.38h.52V6.15h.51V4.91H9.79V3.67H9.27V2.44H8.76V1.24H8.23V0H7.71V0Z"/></g></g></svg>