<svg xmlns="http://www.w3.org/2000/svg" viewBox="0 0 80 53.33"><defs><style>.cls-1{fill:#e91e26;}.cls-2{fill:#fff;}</style></defs><title>CA</title><g id="Layer_2" data-name="Layer 2"><g id="Capa_1" data-name="Capa 1"><rect class="cls-1" width="17.84" height="53.33"/><rect class="cls-1" x="62.16" width="17.84" height="53.33"/><rect class="cls-2" x="17.84" width="44.3" height="53.33"/><path class="cls-1" d="M40,6.63l-3,5.9c-.34.66-1,.58-1.58.22l-2.2-1.19,1.64,9.08c.35,1.66-.76,1.66-1.29.94l-3.85-4.49-.61,2.29a.74.74,0,0,1-.86.53l-4.86-1.07,1.28,4.83c.29,1.08.49,1.53-.28,1.8l-1.73.84L31,33.39a1.15,1.15,0,0,1,.37,1.19l-.73,2.5,8.34-1c.25,0,.69.22.69.53l-.37,9.16h1.4l-.22-9.15c0-.31.38-.54.64-.54l8.35,1-.74-2.5a1.19,1.19,0,0,1,.38-1.19l8.36-7.08-1.74-.84c-.75-.3-.54-.74-.28-1.8l1.27-4.83-4.86,1.07a.75.75,0,0,1-.86-.54l-.61-2.28-3.84,4.49c-.55.72-1.66.72-1.3-.94l1.64-9.08-2.2,1.19c-.61.36-1.24.41-1.58-.22Z"/></g></g></svg>