<svg xmlns="http://www.w3.org/2000/svg" viewBox="0 0 80 53.33"><defs><style>.cls-1{fill:#d80027;}.cls-2{fill:#6da544;}.cls-3{fill:#0052b4;}.cls-4{fill:#f0f0f0;}.cls-5{fill:#ffda44;}</style></defs><title>CF</title><g id="Layer_2" data-name="Layer 2"><g id="Capa_1" data-name="Capa 1"><rect class="cls-1" width="80" height="53.33"/><rect class="cls-2" y="26.67" width="33.05" height="13.33"/><rect class="cls-2" x="46.95" y="26.67" width="33.05" height="13.33"/><polygon class="cls-3" points="0 0 0 0 0 13.33 33.05 13.33 33.05 0 46.95 0 46.95 13.33 80 13.33 80 0 80 0 0 0"/><rect class="cls-4" x="46.95" y="13.33" width="33.05" height="13.33"/><rect class="cls-4" y="13.33" width="33.05" height="13.33"/><polygon class="cls-5" points="46.95 53.33 33.05 53.33 33.05 40 0 40 0 53.33 0 53.33 80 53.33 80 53.33 80 40 46.95 40 46.95 53.33"/><polygon class="cls-5" points="18.7 4.06 19.42 6.27 21.75 6.27 19.86 7.64 20.58 9.86 18.7 8.48 16.81 9.86 17.53 7.64 15.66 6.27 17.98 6.27 18.7 4.06"/></g></g></svg>