<svg xmlns="http://www.w3.org/2000/svg" viewBox="0 0 80 53.33"><defs><style>.cls-1{fill:#cb2127;}.cls-2{fill:#f7de28;}</style></defs><title>CN</title><g id="Layer_2" data-name="Layer 2"><g id="Capa_1" data-name="Capa 1"><rect class="cls-1" width="80" height="53.33"/><polygon class="cls-2" points="7.7 20.02 9.2 15.36 5.25 12.47 10.14 12.45 11.67 7.81 13.19 12.45 18.08 12.47 14.13 15.36 15.63 20.02 11.67 17.14 7.7 20.02"/><polygon class="cls-2" points="21.34 22.53 23 23.19 24.14 21.83 24.02 23.61 25.67 24.28 23.94 24.72 23.81 26.48 22.86 24.98 21.14 25.41 22.28 24.03 21.34 22.53"/><polygon class="cls-2" points="30.28 13.58 28.53 13.28 27.69 14.84 27.44 13.08 25.69 12.77 27.28 11.98 27.03 10.22 28.28 11.5 29.88 10.72 29.05 12.3 30.28 13.58"/><polygon class="cls-2" points="26.56 21.55 27.11 19.86 25.67 18.81 27.45 18.81 28 17.11 28.55 18.81 30.33 18.81 28.89 19.86 29.44 21.55 28 20.52 26.56 21.55"/><polygon class="cls-2" points="21.42 6.09 23.05 6.83 24.27 5.53 24.05 7.3 25.66 8.06 23.91 8.41 23.69 10.17 22.83 8.61 21.08 8.95 22.28 7.64 21.42 6.09"/></g></g></svg>