<svg xmlns="http://www.w3.org/2000/svg" viewBox="0 0 80 53.33"><defs><style>.cls-1{fill:#0052b4;}.cls-2{fill:#d80027;}.cls-3{fill:#f0f0f0;}.cls-4{fill:#ffda44;}</style></defs><title>CV</title><g id="Layer_2" data-name="Layer 2"><g id="Capa_1" data-name="Capa 1"><rect class="cls-1" width="80" height="53.33"/><rect class="cls-2" y="37.09" width="80" height="3.48"/><rect class="cls-3" y="33.62" width="80" height="3.48"/><rect class="cls-3" y="40.58" width="80" height="3.48"/><polygon class="cls-4" points="28.19 27.48 28.66 28.94 30.17 28.94 28.94 29.83 29.42 31.28 28.19 30.38 26.95 31.28 27.42 29.83 26.2 28.94 27.72 28.94 28.19 27.48"/><polygon class="cls-4" points="28.19 46.41 28.66 47.84 30.17 47.84 28.94 48.75 29.42 50.19 28.19 49.3 26.95 50.19 27.42 48.75 26.2 47.84 27.72 47.84 28.19 46.41"/><polygon class="cls-4" points="19.38 40.02 19.84 41.45 21.38 41.45 20.14 42.34 20.61 43.8 19.38 42.91 18.16 43.8 18.63 42.34 17.39 41.45 18.91 41.45 19.38 40.02"/><polygon class="cls-4" points="22.75 29.38 23.22 30.83 24.73 30.83 23.5 31.72 23.97 33.17 22.75 32.27 21.52 33.17 21.98 31.72 20.75 30.83 22.28 30.83 22.75 29.38"/><polygon class="cls-4" points="17.39 35.33 18.91 35.33 19.38 33.89 19.84 35.33 21.38 35.33 20.14 36.22 20.61 37.67 19.38 36.78 18.16 37.67 18.63 36.22 17.39 35.33"/><polygon class="cls-4" points="21.52 48.02 21.98 46.58 20.75 45.69 22.28 45.69 22.75 44.23 23.22 45.69 24.73 45.69 23.5 46.58 23.97 48.02 22.75 47.13 21.52 48.02"/><polygon class="cls-4" points="36.98 40.02 36.52 41.45 35 41.45 36.23 42.34 35.75 43.8 36.98 42.91 38.22 43.8 37.75 42.34 38.97 41.45 37.45 41.45 36.98 40.02"/><polygon class="cls-4" points="33.63 29.38 33.16 30.83 31.64 30.83 32.86 31.72 32.39 33.17 33.63 32.27 34.86 33.17 34.39 31.72 35.61 30.83 34.09 30.83 33.63 29.38"/><polygon class="cls-4" points="38.97 35.33 37.45 35.33 36.98 33.89 36.52 35.33 35 35.33 36.23 36.22 35.75 37.67 36.98 36.78 38.22 37.67 37.75 36.22 38.97 35.33"/><polygon class="cls-4" points="34.86 48.02 34.39 46.58 35.61 45.69 34.09 45.69 33.63 44.23 33.16 45.69 31.64 45.69 32.86 46.58 32.39 48.02 33.63 47.13 34.86 48.02"/></g></g></svg>