<svg xmlns="http://www.w3.org/2000/svg" viewBox="0 0 80 53.33"><defs><style>.cls-1{fill:#f0f0f0;}.cls-2{fill:#d80027;}</style></defs><title>CY</title><g id="Layer_2" data-name="Layer 2"><g id="Capa_1" data-name="Capa 1"><rect class="cls-1" width="80" height="53.33"/><polygon class="cls-2" points="36.59 21.2 38.78 24.22 42.31 23.08 40.13 26.09 42.31 29.11 38.77 27.95 36.58 30.97 36.58 27.23 33.05 26.08 36.58 24.94 36.59 21.2"/><path class="cls-2" d="M30.61,33.62a7.53,7.53,0,0,1,0-15.06,7.44,7.44,0,0,1,3.58.91,9.28,9.28,0,1,0,0,13.28A7.73,7.73,0,0,1,30.61,33.62Z"/><rect class="cls-2" y="8.7" width="80" height="3.48"/><rect class="cls-2" y="40" width="80" height="3.48"/></g></g></svg>