<svg xmlns="http://www.w3.org/2000/svg" viewBox="0 0 80 53.34"><defs><style>.cls-1{fill:#f0f0f0;}.cls-2{fill:#d80027;}.cls-3{fill:#ff9811;}</style></defs><title>EG</title><g id="Layer_2" data-name="Layer 2"><g id="Capa_1" data-name="Capa 1"><rect class="cls-1" width="80" height="53.33"/><rect class="cls-2" width="80" height="17.78"/><rect y="35.56" width="80" height="17.78"/><path class="cls-3" d="M50,23.59H42.5a2.5,2.5,0,0,0-5,0H30a2.57,2.57,0,0,0,2.58,2.5H32.5a2.5,2.5,0,0,0,2.5,2.5,2.5,2.5,0,0,0,2.5,2.5h5a2.51,2.51,0,0,0,2.5-2.5,2.51,2.51,0,0,0,2.5-2.5h-.08A2.57,2.57,0,0,0,50,23.59Z"/></g></g></svg>