<svg xmlns="http://www.w3.org/2000/svg" viewBox="0 0 80 53.33"><defs><style>.cls-1{fill:#d61e42;}.cls-2{fill:#f4c637;}.cls-3{fill:#5e82c2;}.cls-4{fill:#4bad48;}</style></defs><title>ER</title><g id="Layer_2" data-name="Layer 2"><g id="Capa_1" data-name="Capa 1"><rect class="cls-1" width="80" height="53.33"/><path class="cls-2" d="M18,39.7a2.26,2.26,0,0,0-1.82,2.07l5.71,0a2.24,2.24,0,0,0-1.85-2.08c5.58-.11,10.44-2.2,11.33-3.56-.87-.38-1.89.23-2.61.09,1.7-.79,6.83-4.09,6-7.65a8.21,8.21,0,0,1-3.45,4c1.92-2.9,4.53-5.92,2.26-8.26a3.56,3.56,0,0,1-1.29,3c1.11-3.08,2.17-6.91-.24-9.47.33.92.17,3.5-.25,3.62-.12-2.07-.48-6.48-2.69-6.4.71.62,1,2.31,1,4a6.25,6.25,0,0,0-2.29-2.92,12.85,12.85,0,0,0-4.48-4.58,4.8,4.8,0,0,0,2.28,3.88c-1,0-2-2-3.08-2-.84,0-1.53.77-2.9.31.15.47.81.68.94,1-.29.21-1,0-1.6-.34a3.38,3.38,0,0,0,3.13,1.53,5.59,5.59,0,0,1,3.92.63,8.26,8.26,0,0,1-2.44.08,3.1,3.1,0,0,0,2.55,1.25c1.17,0,1.78-.63,2.08-.24a18.73,18.73,0,0,1,1.82,2.75c-1.34.14-.95-1.53-2.43-2.39-.85,1.73,1,3.83,2.2,4.69a7,7,0,0,0,.77,3.4,4.44,4.44,0,0,1,.68,3,4.51,4.51,0,0,1-1.2-3.81c-.94.25-1.3,1.89-.84,2.68a2.82,2.82,0,0,1,.15,2.36c-.36.5-.4.46-.39,1.52a2.59,2.59,0,0,1-.94,1.92,3.9,3.9,0,0,0,.13-1.7c-.47.76-1.61,1.58-2,2.42s-.45,2.3-2.17,2.63a18.83,18.83,0,0,0-4.42,1.42c-.16-1.08.32-3.35,1.22-3.22s3.57-.94,2.6-3.17A1.88,1.88,0,0,1,22,33.59c.73-1,2.06-2,1.42-3.56A4.36,4.36,0,0,1,21.61,32c.92-1.73.11-2.28-1-.82a8.48,8.48,0,0,0-.92,3.09c-.44-1.16-.39-2.66-.89-3.89s.7-1.69,1.28-1.58c1.42.38,3.77.38,3.61-2a2.61,2.61,0,0,1-2.84.75c1.29-.95,2.31-2.74.87-3.66a3.36,3.36,0,0,1-1.83,2.61,5.66,5.66,0,0,1,0-2.69,7.65,7.65,0,0,0-1.31,3.27A10.48,10.48,0,0,1,19,24c.31-1.09,1-.37,2.17-.31s2.61-.53,2.31-2a2,2,0,0,1-1.92.75c.94-.58,2.58-1.58,1.69-3.14-.38.59-.5,1.09-1.6,1.28.28-.67.35-1.59,1.19-1.95-1.52-.32-2.39.7-2.81,2.25-.17-1.08-.39-1.47-.44-2.27a1.8,1.8,0,0,0-.86-3.09,3.68,3.68,0,0,0,.13,1.89,2.41,2.41,0,0,0-2.79-.08,2,2,0,0,0,2.61.45c-.31,1-1.07.82-2.14.44A2.09,2.09,0,0,0,19,19.44c.47,1.25.5,2.2-.89,4a3.32,3.32,0,0,0-.92-2.89c-.76-.75-1.41,0-.2,1.71a5.13,5.13,0,0,1-1.81-2.74,5.13,5.13,0,0,0,.71,3.85c-.36.37-.75,0-1.34-1,.23,3,1.48,3.51,3.17,2.87,0,1.61,0,3.13.14,5.08a8.33,8.33,0,0,0-2.93-2.75c-.22.8.6,1.83,1.06,2.41A9.08,9.08,0,0,1,13.7,28.7c-.15,1.32,1.55,2.53,2.66,3.1a3.49,3.49,0,0,1-2.69-1.35c0,3.66,4,3,4.71,2.46.09,1.79.23,3.87.32,5.67-1.11-.2-1-.53-2-.61-2.65-.11-4.73-3.17-5.43-5.44-.21.38,0,.75-.22,1.22a9.65,9.65,0,0,0-1.72-3.22,7.4,7.4,0,0,1,.14,2.52A5.39,5.39,0,0,1,9,31.11c0-.7.69-1.22.64-2.23,0-.72-.69-2.3-.8-3.52a12.72,12.72,0,0,1-1,3.36,13.77,13.77,0,0,1,.58-3.16A3.44,3.44,0,0,0,9,22.81c-.31.38-.2.71-1,1.6-.15-1,1-2.53,2.13-3.16.8-.41,1.8-1.91,1.12-2.92a16.71,16.71,0,0,0-2.14,2.5c.75-2.92,2.69-3.7,5-3.7.51,0,1.56-.18,1.84-.86a4,4,0,0,1-2.13.14c.5-.74,1.57-.64,2.55-.64a2.52,2.52,0,0,0,2.49-1.21,5.6,5.6,0,0,1-3.35.21c1.47-.77,3.78-.85,5-1.85-1.34-1-4.72.24-6.86,1.71a14.49,14.49,0,0,0,2.06-2.3c-1.17-.56-4.11,2.72-5.14,4.65a4.88,4.88,0,0,0-1.72,2c.52-1.73.58-3,1-4.43-3.34,1.12-2,7.25-2.68,8.7.09-1.61,0-3.7-.64-4.77-1,.77-1.1,5.35-.14,9.18a18.94,18.94,0,0,1-1.21-3.22c-1.51,2.75.88,6,2.89,8.56a12.81,12.81,0,0,1-4-3.89c.27,4.92,5.43,5.94,6.22,7.17-1.08-.5-3.15-1.51-4-.45a11.23,11.23,0,0,1,3.5,1.31c1.31,1.64,3.82,2.38,8.25,2.56Z"/><polygon class="cls-3" points="0 53.31 80 53.28 80 26.66 0 53.31"/><polygon class="cls-4" points="0 0 80 0.03 80 26.66 0 0"/></g></g></svg>