<svg xmlns="http://www.w3.org/2000/svg" viewBox="0 0 80 53.34"><defs><style>.cls-1{fill:#ffda44;}.cls-2{fill:#6da544;}.cls-3{fill:#d80027;}.cls-4{fill:#0052b4;}</style></defs><title>ET</title><g id="Layer_2" data-name="Layer 2"><g id="Capa_1" data-name="Capa 1"><rect class="cls-1" width="80" height="53.33"/><rect class="cls-2" width="80" height="17.78"/><rect class="cls-3" y="35.56" width="80" height="17.78"/><circle class="cls-4" cx="40" cy="26.67" r="12.75"/><polygon class="cls-1" points="40 16.8 42.3 23.88 49.77 23.88 43.72 28.25 46.05 35.36 40 30.97 33.97 35.36 36.27 28.25 30.23 23.88 37.69 23.88 40 16.8"/><polygon class="cls-1" points="49.17 28.42 41.88 26.06 46.39 19.84 44.52 18.48 40 24.69 35.48 18.48 33.61 19.84 38.13 26.06 30.83 28.42 31.53 30.64 38.84 28.27 38.84 35.94 41.16 35.94 41.16 28.27 48.47 30.64 49.17 28.42"/></g></g></svg>