<svg xmlns="http://www.w3.org/2000/svg" viewBox="0 0 80 53.33"><defs><style>.cls-1{opacity:0.98;}.cls-2{fill:#2e52b2;}.cls-3{fill:#f0f0f0;}.cls-4{fill:#d80027;}.cls-5{fill:#f3f3f3;}</style></defs><title>FJ</title><g id="Layer_2" data-name="Layer 2"><g id="Capa_1" data-name="Capa 1"><g class="cls-1"><rect class="cls-2" width="80" height="53.33"/><polygon class="cls-3" points="40 0 40 3.53 32.8 8.33 40 8.33 40 18.33 32.8 18.33 40 23.13 40 26.67 36.47 26.67 25 19.02 25 26.67 15 26.67 15 19.02 3.53 26.67 0 26.67 0 23.13 7.2 18.33 0 18.33 0 8.33 7.2 8.33 0 3.53 0 0 3.53 0 15 7.64 15 0 25 0 25 7.64 36.47 0 40 0"/><polygon class="cls-4" points="22.5 0 17.5 0 17.5 10.83 0 10.83 0 15.83 17.5 15.83 17.5 26.67 22.5 26.67 22.5 15.83 40 15.83 40 10.83 22.5 10.83 22.5 0"/><polygon class="cls-4" points="0 0 0 2.36 8.97 8.33 12.5 8.33 0 0"/><polygon class="cls-4" points="40 0 40 2.36 31.03 8.33 27.5 8.33 40 0"/><polygon class="cls-4" points="0 0 0 2.36 8.97 8.33 12.5 8.33 0 0"/><polygon class="cls-4" points="40 0 40 2.36 31.03 8.33 27.5 8.33 40 0"/><polygon class="cls-4" points="0 26.67 0 24.31 8.97 18.33 12.5 18.33 0 26.67"/><polygon class="cls-4" points="40 26.67 40 24.31 31.03 18.33 27.5 18.33 40 26.67"/><path class="cls-5" d="M51.89,19.13v9.28c0,6.22,8.11,8.11,8.11,8.11s8.11-1.91,8.11-8.11V19.13L60,16.81Z"/><path class="cls-4" d="M68.11,19.7V16.22H51.89V19.7h7v7h-7V29h7v7.76c.71.25,1.16.36,1.16.36s.45-.11,1.16-.36V29h7V26.66h-7v-7Z"/></g></g></g></svg>