<svg xmlns="http://www.w3.org/2000/svg" viewBox="0 0 80 53.33"><defs><style>.cls-1{fill:#83b0da;}.cls-2{fill:#fff;}</style></defs><title>FM</title><g id="Layer_2" data-name="Layer 2"><g id="Capa_1" data-name="Capa 1"><rect class="cls-1" width="80" height="53.33"/><polygon class="cls-2" points="40 5.53 38.38 10.56 40.89 11.38 40 5.53"/><polygon class="cls-2" points="40 5.53 41.63 10.56 39.11 11.38 40 5.53"/><polygon class="cls-2" points="45.02 9.19 39.73 9.19 39.73 11.83 45.02 9.19"/><polygon class="cls-2" points="45.02 9.19 40.75 12.28 39.2 10.16 45.02 9.19"/><polygon class="cls-2" points="34.98 9.19 39.25 12.28 40.8 10.16 34.98 9.19"/><polygon class="cls-2" points="34.98 9.19 40.27 9.19 40.27 11.83 34.98 9.19"/><polygon class="cls-2" points="43.11 15.09 41.47 10.06 38.95 10.89 43.11 15.09"/><polygon class="cls-2" points="43.11 15.09 38.83 11.98 40.39 9.84 43.11 15.09"/><polygon class="cls-2" points="36.89 15.09 41.17 11.98 39.61 9.84 36.89 15.09"/><polygon class="cls-2" points="36.89 15.09 38.53 10.06 41.05 10.89 36.89 15.09"/><polygon class="cls-2" points="61.13 26.66 56.11 25.03 55.28 27.55 61.13 26.66"/><polygon class="cls-2" points="61.13 26.66 56.11 28.3 55.28 25.78 61.13 26.66"/><polygon class="cls-2" points="57.47 31.69 57.47 26.41 54.83 26.41 57.47 31.69"/><polygon class="cls-2" points="57.47 31.69 54.38 27.41 56.52 25.88 57.47 31.69"/><polygon class="cls-2" points="57.47 21.64 54.38 25.92 56.52 27.45 57.47 21.64"/><polygon class="cls-2" points="57.47 21.64 57.47 26.92 54.83 26.92 57.47 21.64"/><polygon class="cls-2" points="51.56 29.78 56.58 28.13 55.77 25.63 51.56 29.78"/><polygon class="cls-2" points="51.56 29.78 54.67 25.5 56.81 27.05 51.56 29.78"/><polygon class="cls-2" points="51.56 23.55 54.67 27.83 56.81 26.28 51.56 23.55"/><polygon class="cls-2" points="51.56 23.55 56.58 25.2 55.77 27.7 51.56 23.55"/><polygon class="cls-2" points="18.88 26.66 23.89 28.3 24.72 25.78 18.88 26.66"/><polygon class="cls-2" points="18.88 26.66 23.89 25.03 24.72 27.55 18.88 26.66"/><polygon class="cls-2" points="22.53 21.64 22.53 26.92 25.17 26.92 22.53 21.64"/><polygon class="cls-2" points="22.53 21.64 25.63 25.92 23.48 27.45 22.53 21.64"/><polygon class="cls-2" points="22.53 31.69 25.63 27.41 23.48 25.88 22.53 31.69"/><polygon class="cls-2" points="22.53 31.69 22.53 26.41 25.17 26.41 22.53 31.69"/><polygon class="cls-2" points="28.44 23.55 23.42 25.2 24.23 27.7 28.44 23.55"/><polygon class="cls-2" points="28.44 23.55 25.33 27.83 23.19 26.28 28.44 23.55"/><polygon class="cls-2" points="28.44 29.78 25.33 25.5 23.19 27.05 28.44 29.78"/><polygon class="cls-2" points="28.44 29.78 23.42 28.13 24.23 25.63 28.44 29.78"/><polygon class="cls-2" points="40 47.8 41.63 42.77 39.11 41.95 40 47.8"/><polygon class="cls-2" points="40 47.8 38.38 42.77 40.89 41.95 40 47.8"/><polygon class="cls-2" points="34.98 44.14 40.27 44.14 40.27 41.5 34.98 44.14"/><polygon class="cls-2" points="34.98 44.14 39.25 41.05 40.8 43.17 34.98 44.14"/><polygon class="cls-2" points="45.02 44.14 40.75 41.05 39.2 43.17 45.02 44.14"/><polygon class="cls-2" points="45.02 44.14 39.73 44.14 39.73 41.5 45.02 44.14"/><polygon class="cls-2" points="36.89 38.23 38.53 43.27 41.05 42.44 36.89 38.23"/><polygon class="cls-2" points="36.89 38.23 41.17 41.34 39.61 43.48 36.89 38.23"/><polygon class="cls-2" points="43.11 38.23 38.83 41.34 40.39 43.48 43.11 38.23"/><polygon class="cls-2" points="43.11 38.23 41.47 43.27 38.95 42.44 43.11 38.23"/></g></g></svg>