<svg xmlns="http://www.w3.org/2000/svg" viewBox="0 0 80 53.33"><defs><style>.cls-1{fill:#f0f0f0;}.cls-2{fill:#d80027;}.cls-3{fill:#0052b4;}</style></defs><title>GB</title><g id="Layer_2" data-name="Layer 2"><g id="Capa_1" data-name="Capa 1"><rect class="cls-1" width="80" height="53.33"/><polygon class="cls-2" points="45 0 35 0 35 21.67 0 21.67 0 31.67 35 31.67 35 53.33 45 53.33 45 31.67 80 31.67 80 21.67 45 21.67 45 0"/><polygon class="cls-3" points="61.53 35.94 80 46.2 80 35.94 61.53 35.94"/><polygon class="cls-3" points="48.7 35.94 80 53.33 80 48.42 57.55 35.94 48.7 35.94"/><polygon class="cls-3" points="71.66 53.33 48.7 40.58 48.7 53.33 71.66 53.33"/><polygon class="cls-1" points="48.7 35.94 80 53.33 80 48.42 57.55 35.94 48.7 35.94"/><polygon class="cls-2" points="48.7 35.94 80 53.33 80 48.42 57.55 35.94 48.7 35.94"/><polygon class="cls-3" points="14.11 35.94 0 43.78 0 35.94 14.11 35.94"/><polygon class="cls-3" points="31.3 38.16 31.3 53.33 3.98 53.33 31.3 38.16"/><polygon class="cls-2" points="22.45 35.94 0 48.42 0 53.33 0 53.33 31.3 35.94 22.45 35.94"/><polygon class="cls-3" points="18.47 17.39 0 7.13 0 17.39 18.47 17.39"/><polygon class="cls-3" points="31.3 17.39 0 0 0 4.92 22.45 17.39 31.3 17.39"/><polygon class="cls-3" points="8.34 0 31.3 12.77 31.3 0 8.34 0"/><polygon class="cls-1" points="31.3 17.39 0 0 0 4.92 22.45 17.39 31.3 17.39"/><polygon class="cls-2" points="31.3 17.39 0 0 0 4.92 22.45 17.39 31.3 17.39"/><polygon class="cls-3" points="65.89 17.39 80 9.55 80 17.39 65.89 17.39"/><polygon class="cls-3" points="48.7 15.19 48.7 0 76.02 0 48.7 15.19"/><polygon class="cls-2" points="57.55 17.39 80 4.92 80 0 80 0 48.7 17.39 57.55 17.39"/></g></g></svg>