<svg xmlns="http://www.w3.org/2000/svg" viewBox="0 0 80 53.33"><defs><style>.cls-1{fill:#bd1f34;}.cls-2{fill:#357b5f;}.cls-3{fill:#f4d130;}</style></defs><title>GD</title><g id="Layer_2" data-name="Layer 2"><g id="Capa_1" data-name="Capa 1"><rect class="cls-1" width="80" height="53.33"/><rect class="cls-2" x="6.94" y="8.44" width="66.13" height="36.47"/><polygon class="cls-3" points="6.94 44.88 40 26.66 73.06 44.88 6.94 44.88"/><polygon class="cls-3" points="6.94 8.44 40 26.66 73.06 8.44 6.94 8.44"/><path class="cls-1" d="M45.72,26.66a5.73,5.73,0,1,0-11.44,0,5.73,5.73,0,1,0,11.44,0"/><polygon class="cls-3" points="35 24.94 38.81 24.94 40 21.08 41.19 24.94 45 24.94 41.91 27.31 43.08 31.17 40 28.8 36.92 31.17 38.09 27.31 35 24.94"/><polygon class="cls-3" points="21.16 3.25 23.41 3.25 24.09 0.95 24.8 3.25 27.05 3.25 25.23 4.66 25.92 6.92 24.09 5.52 22.28 6.92 22.98 4.66 21.16 3.25"/><polygon class="cls-3" points="37.05 3.25 39.3 3.25 40 0.95 40.7 3.25 42.95 3.25 41.14 4.66 41.81 6.92 40 5.52 38.19 6.92 38.86 4.66 37.05 3.25"/><polygon class="cls-3" points="52.95 3.25 55.2 3.25 55.91 0.95 56.59 3.25 58.84 3.25 57.02 4.66 57.72 6.92 55.91 5.52 54.08 6.92 54.77 4.66 52.95 3.25"/><polygon class="cls-3" points="21.16 48.03 23.41 48.03 24.09 45.77 24.8 48.03 27.05 48.03 25.23 49.44 25.92 51.73 24.09 50.33 22.28 51.73 22.98 49.44 21.16 48.03"/><polygon class="cls-3" points="37.05 48.03 39.3 48.03 40 45.77 40.7 48.03 42.95 48.03 41.14 49.44 41.81 51.73 40 50.33 38.19 51.73 38.86 49.44 37.05 48.03"/><polygon class="cls-3" points="52.95 48.03 55.2 48.03 55.91 45.77 56.59 48.03 58.84 48.03 57.02 49.44 57.72 51.73 55.91 50.33 54.08 51.73 54.77 49.44 52.95 48.03"/><path class="cls-1" d="M11,26.72a8.25,8.25,0,0,0,3.33,3.5,12.43,12.43,0,0,0-1.13-4.75Z"/><path class="cls-3" d="M9.83,21.88c1,2.31-2.7,7.78,3.53,9.06a6.88,6.88,0,0,1-1.06-4.42,7.13,7.13,0,0,1,3.22,3.25c1.6-6.29-4.19-5.89-5.69-7.89"/></g></g></svg>