<svg xmlns="http://www.w3.org/2000/svg" viewBox="0 0 80 53.33"><defs><style>.cls-1{fill:#d80027;}</style></defs><title>GE</title><g id="Layer_2" data-name="Layer 2"><g id="Capa_1" data-name="Capa 1"><polygon class="cls-1" points="45 0 35 0 35 21.67 0 21.67 0 31.67 35 31.67 35 53.33 45 53.33 45 31.67 80 31.67 80 21.67 45 21.67 45 0"/><polygon class="cls-1" points="19.23 9.09 19.23 5.61 15.77 5.61 15.77 9.09 12.28 9.09 12.28 12.58 15.77 12.58 15.77 16.05 19.23 16.05 19.23 12.58 22.72 12.58 22.72 9.09 19.23 9.09"/><polygon class="cls-1" points="64.23 9.09 64.23 5.61 60.77 5.61 60.77 9.09 57.28 9.09 57.28 12.58 60.77 12.58 60.77 16.05 64.23 16.05 64.23 12.58 67.72 12.58 67.72 9.09 64.23 9.09"/><polygon class="cls-1" points="19.23 40.77 19.23 37.28 15.77 37.28 15.77 40.77 12.28 40.77 12.28 44.23 15.77 44.23 15.77 47.72 19.23 47.72 19.23 44.23 22.72 44.23 22.72 40.77 19.23 40.77"/><polygon class="cls-1" points="64.23 40.77 64.23 37.28 60.77 37.28 60.77 40.77 57.28 40.77 57.28 44.23 60.77 44.23 60.77 47.72 64.23 47.72 64.23 44.23 67.72 44.23 67.72 40.77 64.23 40.77"/></g></g></svg>