<svg xmlns="http://www.w3.org/2000/svg" viewBox="0 0 80 53.33"><defs><style>.cls-1{fill:#fff;}.cls-2{fill:#d51f3a;}.cls-3{fill:#f2dd31;}</style></defs><title>GG</title><g id="Layer_2" data-name="Layer 2"><g id="Capa_1" data-name="Capa 1"><rect class="cls-1" width="80" height="53.33"/><polygon class="cls-2" points="34.17 0 34.17 20 0 20 0 33.31 34.17 33.31 34.17 53.33 45.83 53.33 45.83 33.31 80 33.31 80 20 45.83 20 45.83 0 34.17 0"/><polygon class="cls-3" points="20 31.09 22.22 28.89 42.22 28.89 42.22 24.44 22.22 24.44 20 22.2 20 31.09"/><polygon class="cls-3" points="35.55 6.66 37.78 8.88 37.78 28.89 42.22 28.89 42.22 8.88 44.45 6.66 35.55 6.66"/><polygon class="cls-3" points="44.45 46.66 42.22 44.44 42.22 24.44 37.78 24.44 37.78 44.44 35.55 46.66 44.45 46.66"/><polygon class="cls-3" points="60 22.2 57.78 24.44 37.78 24.44 37.78 28.89 57.78 28.89 60 31.09 60 22.2"/></g></g></svg>