<svg xmlns="http://www.w3.org/2000/svg" viewBox="0 0 80 53.33"><defs><style>.cls-1{fill:#f0f0f0;}.cls-2{fill:#338af3;}.cls-3{fill:#acabb1;}.cls-4{fill:#6da544;}</style></defs><title>GT</title><g id="Layer_2" data-name="Layer 2"><g id="Capa_1" data-name="Capa 1"><rect class="cls-1" width="80" height="53.33"/><rect class="cls-2" width="26.67" height="53.33"/><rect class="cls-2" x="53.33" width="26.67" height="53.33"/><polygon class="cls-3" points="47.52 31.47 42.66 26.61 47.28 21.98 47.06 19.53 45.75 18.22 40 23.95 34.25 18.22 32.94 19.53 32.72 21.98 37.34 26.61 32.48 31.47 35.14 34.13 40 29.27 44.86 34.13 47.52 31.47"/><path class="cls-4" d="M47.08,19.53l-2.66,2.66a6.25,6.25,0,1,1-10.67,4.42,6.26,6.26,0,0,1,1.83-4.42l-2.66-2.66a10,10,0,1,0,14.16,0Z"/></g></g></svg>