<svg xmlns="http://www.w3.org/2000/svg" viewBox="0 0 80 53.45"><defs><style>.cls-1{fill:#c5314d;}.cls-2{fill:#4055a5;}.cls-3{fill:#7cabdb;}.cls-4{fill:#1f3c74;}.cls-5{fill:#e5dcdc;}.cls-6{fill:#f7ec36;}.cls-7{fill:#010101;}.cls-8{fill:#734b1e;}.cls-9{fill:#3e926f;}.cls-10{fill:#fff;}.cls-11{fill:#5594cf;}</style></defs><title>GU</title><g id="Layer_2" data-name="Layer 2"><g id="Capa_1" data-name="Capa 1"><rect class="cls-1" x="2.05" y="2.34" width="75.8" height="48.75"/><rect class="cls-1" width="80" height="53.45"/><rect class="cls-2" x="3.75" y="4.31" width="72.52" height="44.83"/><path class="cls-1" d="M40,13.37s-8.25,6.08-8.25,13.27S40,40.08,40,40.08s8.2-5.75,8.2-13.44S40,13.37,40,13.37"/><path class="cls-3" d="M47,29a10.48,10.48,0,0,0,.29-2.38c0-6.89-7.25-12-7.25-12s-7.35,5.28-7.35,12A10.55,10.55,0,0,0,33,29l14,0"/><path class="cls-4" d="M40,38.75s5.67-4.06,7-9.75H33c1.34,5.56,7,9.75,7,9.75"/><path class="cls-5" d="M47.22,27.44c-1.24.95-8.24.5-8.24.5L38.59,29H47a2.88,2.88,0,0,0,.09-.46l.16-1.12"/><path class="cls-6" d="M39.59,34.22c-.11-.81-3.37-1.67-5.12-1.59a20.55,20.55,0,0,0,1.76,2.5c.91-1,3.41-.66,3.36-.91"/><path class="cls-6" d="M46.22,31.23a4.42,4.42,0,0,0-1.69.38,5.57,5.57,0,0,1-3.16.64c-.74-.23-1.92.5-1.76.64s2,0,2,1.61c0,1.38-2,.77-2.78,1.34a4.45,4.45,0,0,0-1,1A23.55,23.55,0,0,0,40,38.75a23.53,23.53,0,0,0,4.28-4.23l1-1.36a20.8,20.8,0,0,0,1-1.93"/><rect class="cls-7" x="37.39" y="27.34" width="0.3" height="3.5"/><path class="cls-8" d="M38.36,31.52l-.33,0V31.3h-.2v.29c-.21,0-.46,0-.72,0a6.24,6.24,0,0,1-.78,0V31.3h-.22v.25a1.77,1.77,0,0,1-.3-.05s0,.36,1.28.36,1.27-.34,1.27-.34"/><path class="cls-9" d="M39.58,20.61a3.79,3.79,0,0,0-2.67-.38A2.44,2.44,0,0,0,35,21.62l.52-.25v.24l.47-.33,0,.24.39-.4.08.25.36-.34v.17l.59-.39v.25l.47-.23,0,.25.88-.17s-2.08.75-2.35,2.54l.39-.51,0,.25.25-.53.07.22.24-.5.08.29.34-.53,0,.33.39-.59v.28l.42-.5V22s.4-.37.53-.37l-.5.7.16.05a3,3,0,0,0-.38.36s.23,0,.23,0a2.54,2.54,0,0,0-.32.45c0,.11.2,0,.2,0a4,4,0,0,0-.33.53c0,.14.14,0,.14,0a3.58,3.58,0,0,0-.17.6c0,.12.2,0,.2,0l.13.79.22-1,.12.22v-.72l.13.11,0-.45.16.17L39.11,23l.17.22v-.47l.17.17v-.61l.15.16,0-.41.17.11s0-.5.24-.48.48.25.37.37l.17-.05,0,.49.17-.11v.36l.14-.08,0,.47L41,23l0,.56.2-.15v.65l.2-.17v.53l.17-.14.2.53,0-.78.14.13-.26-.57.2,0-.22-.37h.21l-.29-.37.21,0-.46-.35.24-.11L41,22l.17-.08-.33-.36.34.14.11-.24.39.35v-.35l.35.52,0-.33.26.39,0-.17.17.39.1-.3.17.43.05-.3.17.48.15-.17.08.49.16-.18.14.43.17-.16.16.48s.45-2.6-3.33-2.65l-1-.22"/><path class="cls-9" d="M37.84,18.3l.22.28-.11.09.36.22-.08.16.36.14-.12.11.33.2-.22.08.39.2,0,.17.35.1-.14.12.39.33.45.33.3-.11-.13-.63s-1.31-1.87-2.3-1.79"/><path class="cls-9" d="M39,16.48l.14.38-.2,0,.45.48-.36,0,.45.38-.21.07.39.43-.22.1.4.46-.28.11.47.47h-.26l.28.39-.25.1a3,3,0,0,1,.28.87l.51,0a18.65,18.65,0,0,0,0-1.87l-.13.11,0-.61-.21.12,0-.72-.2.24,0-.71-.14.25-.14-.7-.16.22-.14-.45-.12.17L39,16.48"/><path class="cls-9" d="M40.34,20.67a3.05,3.05,0,0,1,2.94-2.51l-.41.23.24.11-.49.17.24.16-.58,0,.28.22-.42.05-.34.07.23.25-.48.05.29.17a4.09,4.09,0,0,0-.81.38s2.56-.71,3.19.61l-.5-.24,0,.25-.34-.26,0,.2-.36-.2,0,.25-.37-.24.07.22-.48-.25.09.24-.4-.15,0,.25-.41,0,0,.28-1.26,0-.1-.28"/><path class="cls-8" d="M40,21.55l.27,0a41.47,41.47,0,0,0,.34,8.11,5.57,5.57,0,0,0,2.71,3.66c.23.12.14.68-.33.64s-2.08-1.33-2.63-3.61c-.75-3.1-.39-8.45-.36-8.78"/><path class="cls-1" d="M36.39,25.73h-.33a.36.36,0,0,0-.17-.29.32.32,0,0,0-.47.15,1.17,1.17,0,0,0-.12.6.91.91,0,0,0,.12.56.36.36,0,0,0,.28.16.29.29,0,0,0,.27-.13.54.54,0,0,0,.12-.34h-.36v-.36h.64v1.14h-.21l0-.27a.74.74,0,0,1-.15.22.41.41,0,0,1-.3.11.61.61,0,0,1-.5-.3,1.37,1.37,0,0,1-.2-.81,1.54,1.54,0,0,1,.22-.84.63.63,0,0,1,.53-.33.57.57,0,0,1,.47.22.89.89,0,0,1,.2.51"/><path class="cls-1" d="M37.89,26.38V25.05h.33v1.33a1.27,1.27,0,0,0,0,.32.23.23,0,0,0,.25.18.22.22,0,0,0,.25-.18,1.22,1.22,0,0,0,0-.32V25.05h.33v1.33a1.28,1.28,0,0,1-.08.53.51.51,0,0,1-.53.34.5.5,0,0,1-.53-.34,2,2,0,0,1-.08-.53"/><polygon class="cls-1" points="41.14 27.22 41.25 26.77 41.81 26.77 41.91 27.22 42.25 27.22 41.7 25.08 41.34 25.08 40.8 27.22 41.14 27.22"/><path class="cls-1" d="M44.28,26.75l.27-1.69H45V27.2h-.3V25.41l-.28,1.81h-.3l-.28-1.81V27.2h-.3V25.06H44l.25,1.69"/><path class="cls-8" d="M37.08,30.83a10.59,10.59,0,0,0,2-.2s.14.76-2,.76-2-.64-2-.64.89.08,2,.08"/><path class="cls-10" d="M36.16,27.55a4.65,4.65,0,0,1,2.37,3.09,5.23,5.23,0,0,0-2.45,0h-.5a4.64,4.64,0,0,0,.58-3.12"/><path class="cls-8" d="M40.39,20.64a.33.33,0,1,1-.3.33.31.31,0,0,1,.3-.33"/><path class="cls-8" d="M39.91,20.53a.3.3,0,1,1-.29.3.31.31,0,0,1,.29-.3"/><path class="cls-8" d="M39.91,21.08a.28.28,0,0,1,0,.56.28.28,0,0,1-.27-.28.29.29,0,0,1,.27-.28"/><path class="cls-8" d="M40.27,20.92a.3.3,0,0,1,.28.3.29.29,0,1,1-.57,0,.29.29,0,0,1,.29-.3"/><polygon class="cls-11" points="41.73 26.39 41.33 26.39 41.53 25.56 41.73 26.39"/></g></g></svg>