<svg xmlns="http://www.w3.org/2000/svg" xmlns:xlink="http://www.w3.org/1999/xlink" viewBox="0 0 80 57.5"><defs><style>.cls-1{fill:none;}.cls-2{clip-path:url(#clip-path);}.cls-3{fill:#037f35;}.cls-4{fill:#fcd943;}.cls-5{fill:#cd2029;}</style><clipPath id="clip-path" transform="translate(0 2.06)"><rect class="cls-1" width="80" height="53.33"/></clipPath></defs><title>GY</title><g id="Layer_2" data-name="Layer 2"><g id="Capa_1" data-name="Capa 1"><g class="cls-2"><rect class="cls-3" y="2.06" width="80" height="53.33"/></g><g class="cls-2"><rect class="cls-4" x="2.34" y="2.06" width="6.34" height="53.33"/></g><g class="cls-2"><path class="cls-4" d="M0,7.36V46a7.34,7.34,0,0,0,7.62,7.36H9.78L56.64,26.66,9.78,0H7.62A7.34,7.34,0,0,0,0,7.36Z" transform="translate(0 2.06)"/></g><g class="cls-2"><path class="cls-5" d="M3.56,1A7.07,7.07,0,0,0,0,7.36V46A7.68,7.68,0,0,0,3.42,52.3L37.58,26.66Z" transform="translate(0 2.06)"/></g><g class="cls-2"><polygon class="cls-5" points="0 0 3.44 3.08 3.42 54.38 0 57.5 0 0"/></g></g></g></svg>