<svg xmlns="http://www.w3.org/2000/svg" viewBox="0 0 80 53.33"><defs><style>.cls-1{fill:#cc2027;}.cls-2{fill:#fff;}</style></defs><title>HK</title><g id="Layer_2" data-name="Layer 2"><g id="Capa_1" data-name="Capa 1"><rect class="cls-1" width="80" height="53.33"/><path class="cls-2" d="M39.28,27a7.09,7.09,0,0,1,3.27-13.63,2.26,2.26,0,0,0-1,3.38,3.69,3.69,0,0,1-1.54,5.14A3,3,0,0,0,39.28,27"/><polygon class="cls-1" points="38.64 19.64 39.53 17.59 37.63 18.73 39.83 18.94 38.16 17.47 38.64 19.64"/><path class="cls-1" d="M39.31,26.91c-2.65-1.6-2.78-5.21-1.43-7.21l-.18-.11c-1.29,1.85-1.42,5.74,1.52,7.49Z"/><path class="cls-2" d="M39.28,27a7.07,7.07,0,0,1,13.95-1.1,2.24,2.24,0,0,0-3.5.14,3.68,3.68,0,0,1-5.37.11,3,3,0,0,0-5.08.85"/><polygon class="cls-1" points="46.09 24.13 48.31 24.34 46.64 22.88 47.13 25.03 48.02 23 46.09 24.13"/><path class="cls-1" d="M39.39,27c.7-3,4.09-4.25,6.41-3.6l0-.2c-2.15-.66-5.89.42-6.65,3.75Z"/><path class="cls-2" d="M39.28,27A7.08,7.08,0,0,1,27.34,19.7a2.25,2.25,0,0,0,2.91,2,3.69,3.69,0,0,1,4.42,3.06A3,3,0,0,0,39.28,27"/><polygon class="cls-1" points="32.06 25.34 30.41 23.88 30.89 26.03 31.77 24 29.86 25.13 32.06 25.34"/><path class="cls-1" d="M39.19,27c-2.35,2-5.8,1-7.28-.86l-.16.13c1.36,1.8,5,3.12,7.59.87Z"/><path class="cls-2" d="M39.28,27A7.08,7.08,0,0,1,44.64,40a2.24,2.24,0,0,0-1.2-3.28,3.69,3.69,0,0,1-1.77-5.08A3,3,0,0,0,39.28,27"/><polygon class="cls-1" points="44.14 32.61 44.61 34.78 45.5 32.73 43.59 33.88 45.8 34.08 44.14 32.61"/><path class="cls-1" d="M39.31,27.13c3.08-.27,5.3,2.57,5.39,5l.21,0c0-2.25-2.22-5.48-5.63-5.17Z"/><path class="cls-2" d="M39.28,27a7.07,7.07,0,0,1-10.64,9.09,2.23,2.23,0,0,0,2.75-2.17,3.68,3.68,0,0,1,4.28-3.25A3,3,0,0,0,39.28,27"/><polygon class="cls-1" points="35.45 33.36 33.55 34.48 35.75 34.7 34.09 33.23 34.58 35.39 35.45 33.36"/><path class="cls-1" d="M39.19,27.08c1.2,2.86-.81,5.84-3.08,6.67l.08.19c2.12-.74,4.51-3.81,3.17-6.94Z"/><path class="cls-1" d="M39.28,26.7A.32.32,0,1,1,39,27a.31.31,0,0,1,.31-.32"/></g></g></svg>