<svg xmlns="http://www.w3.org/2000/svg" viewBox="0 0 80 53.34"><defs><style>.cls-1{fill:#f0f0f0;}.cls-2{fill:#338af3;}</style></defs><title>HN</title><g id="Layer_2" data-name="Layer 2"><g id="Capa_1" data-name="Capa 1"><rect class="cls-1" width="80" height="53.33"/><rect class="cls-2" width="80" height="17.78"/><rect class="cls-2" y="35.56" width="80" height="17.78"/><polygon class="cls-2" points="31.8 19.25 32.48 21.38 34.72 21.38 32.91 22.69 33.61 24.81 31.8 23.5 29.98 24.81 30.67 22.69 28.88 21.38 31.11 21.38 31.8 19.25"/><polygon class="cls-2" points="31.8 28.52 32.48 30.64 34.72 30.64 32.91 31.95 33.61 34.09 31.8 32.77 29.98 34.09 30.67 31.95 28.88 30.64 31.11 30.64 31.8 28.52"/><polygon class="cls-2" points="48.2 19.25 48.89 21.38 51.13 21.38 49.33 22.69 50.02 24.81 48.2 23.5 46.39 24.81 47.09 22.69 45.28 21.38 47.52 21.38 48.2 19.25"/><polygon class="cls-2" points="48.2 28.52 48.89 30.64 51.13 30.64 49.33 31.95 50.02 34.09 48.2 32.77 46.39 34.09 47.09 31.95 45.28 30.64 47.52 30.64 48.2 28.52"/><polygon class="cls-2" points="40 23.89 40.69 26.02 42.92 26.02 41.13 27.33 41.81 29.45 40 28.14 38.19 29.45 38.88 27.33 37.08 26.02 39.31 26.02 40 23.89"/></g></g></svg>