<svg xmlns="http://www.w3.org/2000/svg" viewBox="0 0 80 53.33"><defs><style>.cls-1{fill:#fff;}.cls-2{fill:#2f3a83;}</style></defs><title>IL</title><g id="Layer_2" data-name="Layer 2"><g id="Capa_1" data-name="Capa 1"><rect class="cls-1" width="80" height="53.33"/><rect class="cls-2" y="4.22" width="80" height="8.59"/><rect class="cls-2" y="40.53" width="80" height="8.59"/><path class="cls-2" d="M46.92,26.66l3.53-6h-7L40,14.59l-3.45,6.07h-7l3.53,6-3.5,6h7L40,38.72l3.45-6.06h7Zm-8.17-6L40,18.48l1.25,2.18Zm7,7.92L47,30.67H44.59Zm-1.19-5.94H47l-1.21,2.09Zm-3.36,10L40,34.83l-1.25-2.17Zm-3.64-2-2.3-4,2.3-4h4.78l2.3,4-2.3,4Zm-2.22,0H33l1.21-2.09Zm-2.41-8h2.41l-1.22,2.09Z"/></g></g></svg>