<svg xmlns="http://www.w3.org/2000/svg" viewBox="0 0 80 53.33"><defs><style>.cls-1{fill:#fff;}.cls-2{fill:#f0953d;}.cls-3{fill:#3d8a41;}.cls-4{fill:#2a2874;}</style></defs><title>IN</title><g id="Layer_2" data-name="Layer 2"><g id="Capa_1" data-name="Capa 1"><rect class="cls-1" width="80" height="53.33"/><rect class="cls-2" width="80" height="17.78"/><rect class="cls-3" y="35.55" width="80" height="17.78"/><path class="cls-1" d="M40,22.28a1,1,0,1,1-1,1,1,1,0,0,1,1-1"/><path class="cls-4" d="M40,18.45a8.21,8.21,0,1,0,8.2,8.21A8.22,8.22,0,0,0,40,18.45m0,.82-.2,4.12L40,25.73l.21-2.34L40,19.27c.22,0,.42,0,.63,0v0a.33.33,0,0,0,.34.34.33.33,0,0,0,.33-.3l.61.13-1.27,3.92-.4,2.33.82-2.22.86-4a5.26,5.26,0,0,1,.6.19.23.23,0,0,0,0,.12.32.32,0,0,0,.34.33.36.36,0,0,0,.32-.2,5.61,5.61,0,0,1,.54.29L41.5,23.69l-1,2.14,1.37-1.92,1.89-3.69c.19.11.35.22.52.33a.44.44,0,0,0-.08.2.33.33,0,0,0,.34.34.45.45,0,0,0,.28-.12,3.11,3.11,0,0,1,.46.42l-3.07,2.77L40.73,26l1.82-1.5,2.76-3.06a4.47,4.47,0,0,1,.42.45.37.37,0,0,0-.12.25.33.33,0,0,0,.34.34.26.26,0,0,0,.21-.08,5.89,5.89,0,0,1,.32.54l-3.75,1.87-1.92,1.38,2.14-1L46.41,23c.11.19.2.39.29.58a.34.34,0,0,0-.2.31.33.33,0,0,0,.34.34H47c.08.18.12.36.19.56l-4,.88-2.22.82,2.32-.4,3.93-1.27a4.38,4.38,0,0,1,.12.61.34.34,0,0,0-.3.33.33.33,0,0,0,.35.34h0c0,.21,0,.41,0,.63l-4.12-.21-2.36.22,2.34.22,4.13-.2c0,.2,0,.42,0,.62h0a.33.33,0,0,0-.34.35.33.33,0,0,0,.3.33c0,.2-.08.4-.13.6l-1.39-.45-2.53-.83-2.33-.4h0l2.22.83,4,.85a5.26,5.26,0,0,1-.19.6s0,0-.06,0h-.08a.33.33,0,0,0-.34.35.38.38,0,0,0,0,.12h0a.34.34,0,0,0,.1.13h0l0,0h0c-.09.19-.18.36-.29.55l-3.46-2.23h0l-2.14-1h0l1.11.78.82.57h0l3.65,1.87c-.11.19-.22.36-.34.53a.47.47,0,0,0-.2-.06.34.34,0,0,0-.35.34.3.3,0,0,0,.13.25c-.13.17-.28.32-.41.46l-2.77-3.07-1.81-1.5,1.5,1.82,3.06,2.76-.43.41a.3.3,0,0,0-.22-.08.34.34,0,0,0-.35.34.26.26,0,0,0,0,.14c-.19.13-.36.24-.55.35l-1.89-3.66L40.34,27.5h0l1,2.14,2.23,3.45a4,4,0,0,1-.54.28.41.41,0,0,0-.32-.2.34.34,0,0,0-.34.35.49.49,0,0,0,0,.12c-.2.08-.4.13-.6.19l-.83-4-.83-2.21h0L40.52,30l1.26,3.93a4.11,4.11,0,0,1-.61.12.33.33,0,0,0-.33-.3.34.34,0,0,0-.34.35v0c-.2,0-.41,0-.62,0L40.09,30l-.21-2.34L39.66,30l.22,4.13c-.22,0-.43,0-.65,0v0a.34.34,0,0,0-.34-.35.33.33,0,0,0-.33.3c-.2,0-.4-.08-.59-.12L39.23,30l.41-2.32-.83,2.21-.86,4c-.2-.07-.4-.11-.57-.19a.49.49,0,0,0,0-.13.34.34,0,0,0-.33-.34.36.36,0,0,0-.31.2c-.19-.09-.36-.19-.55-.29l2.24-3.46,1-2.14-1.37,1.92-1.77,3.63-.53-.33a.44.44,0,0,0,.08-.2.34.34,0,0,0-.35-.35.36.36,0,0,0-.25.13c-.17-.13-.31-.28-.45-.41l3.06-2.76,1.5-1.82h0l-1.81,1.5-2.76,3.07c-.14-.14-.3-.3-.43-.46a.34.34,0,0,0,.13-.25.34.34,0,0,0-.33-.34.26.26,0,0,0-.2.08,5.84,5.84,0,0,1-.33-.53l3.69-1.89,1.92-1.38-2.14,1-3.49,2.23a4.52,4.52,0,0,1-.28-.53.34.34,0,0,0,.22-.31.34.34,0,0,0-.34-.35.42.42,0,0,0-.14,0,6.17,6.17,0,0,1-.19-.61l4-.86,2.22-.82-2.33.4-3.92,1.27c-.06-.2-.09-.41-.13-.61a.34.34,0,0,0,0-.67h0c0-.21,0-.41,0-.63l4.12.21,2.34-.22-2.34-.22-4.12.22c0-.21,0-.43,0-.63h.06a.35.35,0,0,0,0-.69c0-.2.08-.4.12-.61L36.8,26l2.32.41-2.21-.83-4-.86c.07-.2.11-.41.19-.59h.13a.34.34,0,0,0,.34-.33.36.36,0,0,0-.2-.31c.09-.19.19-.36.29-.55l3.46,2.24,2.14,1L37.3,24.8l-3.71-1.88c.11-.19.22-.34.33-.53a.5.5,0,0,0,.2.08.34.34,0,0,0,.35-.33.43.43,0,0,0-.13-.28,3.68,3.68,0,0,1,.43-.45l2.76,3.06L39.34,26l-1.5-1.81-3.06-2.75c.14-.14.3-.3.45-.43a.38.38,0,0,0,.25.13.32.32,0,0,0,.33-.33.28.28,0,0,0-.06-.2,5.69,5.69,0,0,1,.52-.33l1.89,3.69,1.37,1.92-1-2.14-2.24-3.45a4.14,4.14,0,0,1,.55-.29.34.34,0,0,0,.31.22.34.34,0,0,0,.35-.33.33.33,0,0,0,0-.14l.61-.18.86,4,.83,2.22-.4-2.33-1.27-3.92a3.32,3.32,0,0,1,.61-.13.34.34,0,0,0,.67,0v0a1.73,1.73,0,0,1,.61-.07"/><path class="cls-4" d="M40,25.72a1,1,0,1,1-1,1,1,1,0,0,1,1-1"/></g></g></svg>