<svg xmlns="http://www.w3.org/2000/svg" viewBox="0 0 80 53.33"><defs><style>.cls-1{fill:#bd2034;}.cls-2{fill:#fff;}.cls-3{fill:#070707;}.cls-4{fill:#439b4b;}</style></defs><title>IQ</title><g id="Layer_2" data-name="Layer 2"><g id="Capa_1" data-name="Capa 1"><rect class="cls-1" width="80" height="17.78"/><rect class="cls-2" y="17.77" width="80" height="17.78"/><rect class="cls-3" y="35.55" width="80" height="17.78"/><path class="cls-4" d="M47.89,23.39a.76.76,0,0,1-.27-.2c0-.1,0-.1.24,0a1,1,0,0,0,1-.17l.25-.22.3.16a.71.71,0,0,0,.39.12.89.89,0,0,0,.39-.5c0-.14.11-.11.17.05a.56.56,0,0,1-.36.76.94.94,0,0,1-.51,0c-.29-.1-.33-.1-.47,0a1.17,1.17,0,0,1-1.16.05"/><path class="cls-4" d="M49,22.36a1.69,1.69,0,0,1-.2-.8c0-.11.08-.14.17-.11s.22.18.2.6-.06.45-.17.31"/><path class="cls-4" d="M35.86,22a1.74,1.74,0,0,0,.67,1c-.14.08-.34,0-.48.11-.77.77-3.58,3.5-4.1,4.16,1.52,0,3.21,0,4.63-.09,0-1,1-1.1,1.62-1.47.35.53,1.18.48,1.28,1.28v3.42h-13a1.92,1.92,0,0,1-2.41,1.47c.39-.41,1.05-.55,1.28-1.13A3.83,3.83,0,0,0,24.61,28,4.72,4.72,0,0,0,26,27.28c-.45,1.39,1.17,1.24,2.41,1.2,0-.46,0-1-.35-1.09.47-.16.55-.23,1.28-.86v1.88l9,0c0-.59.15-1.52-.3-1.52s0,1.21-.36,1.21H30.75V26.91L33,24.62c.2-.17,1.61-1.45,2.84-2.64"/><path class="cls-4" d="M53.19,21.94a5.67,5.67,0,0,0,1.47.76c-.08.25-.28.35-.35.61v5.24c.66.14.8-.24,1.13-.43.09.85.62,1.66.61,2.33H53.2V22h0Z"/><path class="cls-4" d="M49.41,24.75s1-.88,1-.91v4.58h.75c0-1.75,0-3.51,0-5.12a6.66,6.66,0,0,0,1-1v8.17H45.69c-.1-1.71-.11-3.47,1.87-3.1v-.67c0-.12-.15,0-.2-.12.33-.33.42-.39,1.27-1.14,0,.89,0,3,0,3h.75s0-3.56,0-3.67M47,28.34c.15.22.61.22.6-.14s-.72-.17-.6.14"/><path class="cls-4" d="M28.13,31a.39.39,0,1,1-.4.39.39.39,0,0,1,.4-.39"/><path class="cls-4" d="M40.39,21.94a6,6,0,0,0,1.47.76c-.08.25-.28.35-.34.61v5.24c.65.14.79-.24,1.12-.43.09.85.63,1.66.61,2.33H40.41V22h0Z"/></g></g></svg>