<svg xmlns="http://www.w3.org/2000/svg" xmlns:xlink="http://www.w3.org/1999/xlink" viewBox="0 0 91.41 53.33"><defs><style>.cls-1{fill:none;}.cls-2{clip-path:url(#clip-path);}.cls-3{fill:#fff;}.cls-4{fill:#49a146;}.cls-5{fill:#c62127;}</style><clipPath id="clip-path" transform="translate(5.7)"><rect class="cls-1" width="80" height="53.33"/></clipPath></defs><title>IR</title><g id="Layer_2" data-name="Layer 2"><g id="Capa_1" data-name="Capa 1"><g class="cls-2"><rect class="cls-3" width="91.41" height="53.33"/></g><g class="cls-2"><rect class="cls-4" width="91.41" height="17.81"/></g><g class="cls-2"><rect class="cls-5" y="35.52" width="91.41" height="17.81"/></g><g class="cls-2"><polygon class="cls-5" points="45.7 20.23 44.73 21.02 44.92 33.63 45.7 34.53 46.48 33.63 46.67 21.02 45.7 20.23"/></g><g class="cls-2"><path class="cls-5" d="M42,18.91a1.33,1.33,0,0,1-1.84.42L40,19.25A1.32,1.32,0,0,1,38.13,19l-.08-.1a1.15,1.15,0,0,0,.83,1.4A1.12,1.12,0,0,0,40,20a1.17,1.17,0,0,0,2-1.07" transform="translate(5.7)"/></g><g class="cls-2"><path class="cls-5" d="M42.42,20.66a7.88,7.88,0,0,1-7.26,12.48,7.3,7.3,0,0,0,7.26-12.48" transform="translate(5.7)"/></g><g class="cls-2"><path class="cls-5" d="M37.58,20.66a7.88,7.88,0,0,0,7.26,12.48,7.3,7.3,0,0,1-7.26-12.48" transform="translate(5.7)"/></g><g class="cls-2"><path class="cls-5" d="M43.34,20.41a7.87,7.87,0,0,1,1.74,11c-.13.17-.27.34-.41.5a6.23,6.23,0,0,0-1.33-11.5" transform="translate(5.7)"/></g><g class="cls-2"><path class="cls-5" d="M36.66,20.41a7.87,7.87,0,0,0-1.74,11c.13.17.27.34.41.5a6.23,6.23,0,0,1,1.33-11.5" transform="translate(5.7)"/></g><g class="cls-2"><path class="cls-3" d="M-5.48,17h.4v-.84h1.25V17h2.08V15.69H-3v.42h.84v.42H-3.41v-.86H-5.48Zm.81,0h.4v-.42h-.4Zm-.81-1.68h5.4v-.43h-5.4ZM-.09,17H-1.34V15.69H.31v-.85H.72v1.71h.4V14.86h.41v1.7h.41v-1.7h.4V17h-2v-.84H-.94v.42h.85Z" transform="translate(5.7)"/></g><g class="cls-2"><path class="cls-3" d="M2.81,17h.41v-.84H4.47V17H6.55V15.69H5.3v.42h.84v.42H4.89v-.86H2.81Zm.85,0h.4v-.42h-.4Zm-.85-1.68H8.22v-.43H2.81ZM8.22,17H7V15.69H8.62v-.85H9v1.71h.41V14.86h.4v1.7h.41v-1.7h.41V17h-2v-.84H7.38v.42h.84Z" transform="translate(5.7)"/></g><g class="cls-2"><path class="cls-3" d="M11.12,17h.41v-.84h1.25V17h2.08V15.69H13.61v.42h.84v.42H13.2v-.86H11.12ZM12,17h.41v-.42H12Zm-.83-1.68h5.41v-.43H11.12ZM16.52,17H15.27V15.69h1.65v-.85h.41v1.71h.4V14.86h.41v1.7h.41v-1.7H19V17H16.87v-.84H15.62v.42h.85V17Z" transform="translate(5.7)"/></g><g class="cls-2"><path class="cls-3" d="M19.44,17h.4v-.84h1.25V17h2.08V15.69H21.92v.42h.85v.42H21.52v-.86H19.44Zm.83,0h.4v-.42h-.4Zm-.83-1.68h5.39v-.43H19.44ZM24.83,17H23.58V15.69h1.65v-.85h.41v1.71h.41V14.86h.4v1.7h.41v-1.7h.41V17H25.19v-.84H23.94v.42h.84V17Z" transform="translate(5.7)"/></g><g class="cls-2"><path class="cls-3" d="M27.73,17h.41v-.84h1.25V17h2.08V15.69H30.22v.42h.84v.42H29.81v-.86H27.73Zm.85,0H29v-.42h-.4Zm-.85-1.68h5.4v-.43h-5.4ZM33.14,17H31.89V15.69h1.66v-.85H34v1.71h.41V14.86h.41v1.7h.4v-1.7h.41V17H33.5v-.84H32.25v.42h.84V17Z" transform="translate(5.7)"/></g><g class="cls-2"><path class="cls-3" d="M36.05,17h.4v-.84H37.7V17h2.08V15.69H38.53v.42h.85v.42H38.13v-.86H36.05Zm.84,0h.41v-.42h-.41Zm-.84-1.68h5.4v-.43h-5.4v.43ZM41.45,17H40.2V15.69h1.66v-.85h.41v1.71h.4V14.86h.41v1.7h.4v-1.7h.41V17H41.81v-.84H40.56v.42h.85V17Z" transform="translate(5.7)"/></g><g class="cls-2"><path class="cls-3" d="M44.36,17h.41v-.84H46V17h2.07V15.69H46.84v.42h.85v.42H46.44v-.86H44.36Zm.84,0h.41v-.42H45.2Zm-.84-1.68h5.41v-.43H44.36ZM49.77,17H48.52V15.69h1.65v-.85h.41v1.71H51V14.86h.41v1.7h.41v-1.7h.4V17h-2v-.84H48.91v.42h.84V17Z" transform="translate(5.7)"/></g><g class="cls-2"><path class="cls-3" d="M52.67,17h.41v-.84h1.25V17h2.08V15.69H55.16v.42H56v.42H54.75v-.86H52.67Zm.83,0h.41v-.42H53.5Zm-.83-1.68h5.41v-.43H52.67ZM58.06,17H56.81V15.69h1.66v-.85h.41v1.71h.4V14.86h.41v1.7h.4v-1.7h.41V17H58.42v-.84H57.17v.42H58V17Z" transform="translate(5.7)"/></g><g class="cls-2"><path class="cls-3" d="M61,17h.41v-.84h1.25V17h2.08V15.69H63.47v.42h.84v.42H63.06v-.86H61Zm.83,0h.41v-.42h-.41ZM61,15.27h5.39v-.43H61ZM66.39,17H65.14V15.69H66.8v-.85h.4v1.71h.41V14.86H68v1.7h.4v-1.7h.41V17H66.75v-.84H65.5v.42h.84V17Z" transform="translate(5.7)"/></g><g class="cls-2"><path class="cls-3" d="M69.3,17h.4v-.84H71V17H73V15.69H71.78v.42h.84v.42H71.37v-.86H69.3Zm.82,0h.41v-.42h-.41Zm-.82-1.68h5.39v-.43H69.3ZM74.69,17H73.44V15.69h1.65v-.85h.41v1.71h.41V14.86h.4v1.7h.41v-1.7h.41V17H75.05v-.84H73.8v.42h.84V17Z" transform="translate(5.7)"/></g><g class="cls-2"><path class="cls-3" d="M77.59,17H78v-.84h1.25V17h2.08V15.69H80.08v.42h.84v.42H79.67v-.86H77.59V17Zm.85,0h.4v-.42h-.4Zm-.85-1.68H83v-.43H77.59ZM83,17H81.77V15.69h1.65v-.85h.41v1.71h.4V14.86h.41v1.7h.41v-1.7h.4V17H83.37v-.84H82.12v.42H83V17Z" transform="translate(5.7)"/></g><g class="cls-2"><path class="cls-3" d="M-5.48,18.23h3.75v-.86H-5.48Zm4.14,0H2.41v-.86H-1.34Z" transform="translate(5.7)"/></g><g class="cls-2"><path class="cls-3" d="M2.81,18.23H6.56v-.86H2.81Zm4.16,0H10.7v-.86H7Z" transform="translate(5.7)"/></g><g class="cls-2"><path class="cls-3" d="M11.12,18.23h3.74v-.86H11.12Zm4.15,0H19v-.86H15.27Z" transform="translate(5.7)"/></g><g class="cls-2"><path class="cls-3" d="M19.44,18.23h3.73v-.86H19.44Zm4.15,0h3.74v-.86H23.59Z" transform="translate(5.7)"/></g><g class="cls-2"><path class="cls-3" d="M27.73,18.23h3.74v-.86H27.73Zm4.16,0h3.75v-.86H31.89Z" transform="translate(5.7)"/></g><g class="cls-2"><path class="cls-3" d="M36.05,18.23H39.8v-.86H36.05Zm4.17,0H44v-.86H40.22Z" transform="translate(5.7)"/></g><g class="cls-2"><path class="cls-3" d="M44.36,18.23h3.73v-.86H44.36Zm4.16,0h3.73v-.86H48.52Z" transform="translate(5.7)"/></g><g class="cls-2"><path class="cls-3" d="M52.67,18.23h3.74v-.86H52.67Zm4.16,0h3.73v-.86H56.83Z" transform="translate(5.7)"/></g><g class="cls-2"><path class="cls-3" d="M61,18.23h3.74v-.86H61Zm4.16,0h3.73v-.86H65.14Z" transform="translate(5.7)"/></g><g class="cls-2"><path class="cls-3" d="M69.3,18.23H73v-.86H69.3Zm4.14,0h3.75v-.86H73.44Z" transform="translate(5.7)"/></g><g class="cls-2"><path class="cls-3" d="M77.59,18.23h3.75v-.86H77.59v.86Zm4.18,0h3.75v-.86H81.77Z" transform="translate(5.7)"/></g><g class="cls-2"><path class="cls-3" d="M-5.48,38.47h.4v-.86h1.25v.86h2.08V37.2H-3v.42h.84v.43H-3.41v-.86H-5.48Zm.81,0h.4v-.42h-.4Zm-.81-1.69h5.4v-.42h-5.4Zm5.39,1.69H-1.34V37.2H.31v-.86H.72v1.71h.4V36.34h.41v1.71h.41V36.34h.4v2.13h-2v-.86H-.94V38h.85Z" transform="translate(5.7)"/></g><g class="cls-2"><path class="cls-3" d="M2.81,38.47h.41v-.86H4.47v.86H6.55V37.2H5.3v.42h.84v.43H4.89v-.86H2.81Zm.85,0h.4v-.42h-.4Zm-.85-1.69H8.22v-.42H2.81Zm5.41,1.69H7V37.2H8.62v-.86H9v1.71h.41V36.34h.4v1.71h.41V36.34h.41v2.13h-2v-.86H7.38V38h.84Z" transform="translate(5.7)"/></g><g class="cls-2"><path class="cls-3" d="M11.12,38.47h.41v-.86h1.25v.86h2.08V37.2H13.61v.42h.84v.43H13.2v-.86H11.12Zm.83,0h.41v-.42H12Zm-.83-1.69h5.41v-.42H11.12Zm5.4,1.69H15.27V37.2h1.65v-.86h.41v1.71h.4V36.34h.41v1.71h.41V36.34H19v2.13H16.87v-.86H15.62V38h.85v.42h.05Z" transform="translate(5.7)"/></g><g class="cls-2"><path class="cls-3" d="M19.44,38.47h.4v-.86h1.25v.86h2.08V37.2H21.92v.42h.85v.43H21.52v-.86H19.44Zm.83,0h.4v-.42h-.4Zm-.83-1.69h5.39v-.42H19.44Zm5.39,1.69H23.58V37.2h1.65v-.86h.41v1.71h.41V36.34h.4v1.71h.41V36.34h.41v2.13H25.19v-.86H23.94V38h.84v.42h0Z" transform="translate(5.7)"/></g><g class="cls-2"><path class="cls-3" d="M27.73,38.47h.41v-.86h1.25v.86h2.08V37.2H30.22v.42h.84v.43H29.81v-.86H27.73Zm.85,0H29v-.42h-.4Zm-.85-1.69h5.4v-.42h-5.4Zm5.41,1.69H31.89V37.2h1.66v-.86H34v1.71h.41V36.34h.41v1.71h.4V36.34h.41v2.13H33.5v-.86H32.25V38h.84v.42h0Z" transform="translate(5.7)"/></g><g class="cls-2"><path class="cls-3" d="M36.05,38.47h.4v-.86H37.7v.86h2.08V37.2H38.53v.42h.85v.43H38.13v-.86H36.05Zm.84,0h.41v-.42h-.41Zm-.84-1.69h5.4v-.42h-5.4v.42Zm5.4,1.69H40.2V37.2h1.66v-.86h.41v1.71h.4V36.34h.41v1.71h.4V36.34h.41v2.13H41.81v-.86H40.56V38h.85v.42h0Z" transform="translate(5.7)"/></g><g class="cls-2"><path class="cls-3" d="M44.36,38.47h.41v-.86H46v.86h2.07V37.2H46.84v.42h.85v.43H46.44v-.86H44.36Zm.84,0h.41v-.42H45.2Zm-.84-1.69h5.41v-.42H44.36Zm5.41,1.69H48.52V37.2h1.65v-.86h.41v1.71H51V36.34h.41v1.71h.41V36.34h.4v2.13h-2v-.86H48.91V38h.84v.44Z" transform="translate(5.7)"/></g><g class="cls-2"><path class="cls-3" d="M52.67,38.47h.41v-.86h1.25v.86h2.08V37.2H55.16v.42H56v.43H54.75v-.86H52.67Zm.83,0h.41v-.42H53.5Zm-.83-1.69h5.41v-.42H52.67Zm5.39,1.69H56.81V37.2h1.66v-.86h.41v1.71h.4V36.34h.41v1.71h.4V36.34h.41v2.13H58.42v-.86H57.17V38H58v.42h0Z" transform="translate(5.7)"/></g><g class="cls-2"><path class="cls-3" d="M61,38.47h.41v-.86h1.25v.86h2.08V37.2H63.47v.42h.84v.43H63.06v-.86H61Zm.83,0h.41v-.42h-.41ZM61,36.78h5.39v-.42H61Zm5.41,1.69H65.14V37.2H66.8v-.86h.4v1.71h.41V36.34H68v1.71h.4V36.34h.41v2.13H66.75v-.86H65.5V38h.84v.42h0Z" transform="translate(5.7)"/></g><g class="cls-2"><path class="cls-3" d="M69.3,38.47h.4v-.86H71v.86H73V37.2H71.78v.42h.84v.43H71.37v-.86H69.3Zm.82,0h.41v-.42h-.41Zm-.82-1.69h5.39v-.42H69.3Zm5.39,1.69H73.44V37.2h1.65v-.86h.41v1.71h.41V36.34h.4v1.71h.41V36.34h.41v2.13H75.05v-.86H73.8V38h.84v.42h0Z" transform="translate(5.7)"/></g><g class="cls-2"><path class="cls-3" d="M77.59,38.47H78v-.86h1.25v.86h2.08V37.2H80.08v.42h.84v.43H79.67v-.86H77.59v1.28Zm.85,0h.4v-.42h-.4Zm-.85-1.69H83v-.42H77.59ZM83,38.47H81.77V37.2h1.65v-.86h.41v1.71h.4V36.34h.41v1.71h.41V36.34h.4v2.13H83.37v-.86H82.12V38H83v.42h0Z" transform="translate(5.7)"/></g><g class="cls-2"><path class="cls-3" d="M-5.48,35.92h3.75v-.84H-5.48Zm4.14,0H2.41v-.84H-1.34Z" transform="translate(5.7)"/></g><g class="cls-2"><path class="cls-3" d="M2.81,35.92H6.56v-.84H2.81Zm4.16,0H10.7v-.84H7Z" transform="translate(5.7)"/></g><g class="cls-2"><path class="cls-3" d="M11.12,35.92h3.74v-.84H11.12Zm4.15,0H19v-.84H15.27Z" transform="translate(5.7)"/></g><g class="cls-2"><path class="cls-3" d="M19.44,35.92h3.73v-.84H19.44Zm4.15,0h3.74v-.84H23.59Z" transform="translate(5.7)"/></g><g class="cls-2"><path class="cls-3" d="M27.73,35.92h3.74v-.84H27.73Zm4.16,0h3.75v-.84H31.89Z" transform="translate(5.7)"/></g><g class="cls-2"><path class="cls-3" d="M36.05,35.92H39.8v-.84H36.05Zm4.17,0H44v-.84H40.22Z" transform="translate(5.7)"/></g><g class="cls-2"><path class="cls-3" d="M44.36,35.92h3.73v-.84H44.36Zm4.16,0h3.73v-.84H48.52Z" transform="translate(5.7)"/></g><g class="cls-2"><path class="cls-3" d="M52.67,35.92h3.74v-.84H52.67Zm4.16,0h3.73v-.84H56.83Z" transform="translate(5.7)"/></g><g class="cls-2"><path class="cls-3" d="M61,35.92h3.74v-.84H61Zm4.16,0h3.73v-.84H65.14Z" transform="translate(5.7)"/></g><g class="cls-2"><path class="cls-3" d="M69.3,35.92H73v-.84H69.3Zm4.14,0h3.75v-.84H73.44Z" transform="translate(5.7)"/></g><g class="cls-2"><path class="cls-3" d="M77.59,35.92h3.75v-.84H77.59v.84Zm4.18,0h3.75v-.84H81.77Z" transform="translate(5.7)"/></g></g></g></svg>