<svg xmlns="http://www.w3.org/2000/svg" viewBox="0 0 80 53.33"><defs><style>.cls-1{fill:#6da544;}.cls-2{fill:#0052b4;}.cls-3{fill:#ffda44;}</style></defs><title>JM</title><g id="Layer_2" data-name="Layer 2"><g id="Capa_1" data-name="Capa 1"><rect class="cls-1" width="80" height="53.33"/><polygon points="33.73 26.67 0 49.16 0 4.19 33.73 26.67"/><polygon points="80 4.19 80 49.16 46.27 26.67 80 4.19"/><polygon class="cls-2" points="80 4.19 46.27 26.67 80 49.16 80 53.33 73.73 53.33 40 30.84 6.27 53.33 0 53.33 0 49.16 33.73 26.67 0 4.19 0 0 6.27 0 40 22.48 73.73 0 80 0 80 4.19"/><polygon class="cls-3" points="80 4.19 46.27 26.67 80 49.16 80 53.33 73.73 53.33 40 30.84 6.27 53.33 0 53.33 0 49.16 33.73 26.67 0 4.19 0 0 6.27 0 40 22.48 73.73 0 80 0 80 4.19"/></g></g></svg>