<svg xmlns="http://www.w3.org/2000/svg" viewBox="0 0 80 53.34"><defs><style>.cls-1{fill:#f0f0f0;}.cls-2{fill:#496e2d;}.cls-3{fill:#a2001d;}</style></defs><title>KE</title><g id="Layer_2" data-name="Layer 2"><g id="Capa_1" data-name="Capa 1"><rect class="cls-1" width="80" height="53.33"/><rect width="80" height="14.16"/><rect class="cls-2" y="39.19" width="80" height="14.16"/><rect class="cls-3" y="17.7" width="80" height="17.94"/><polygon class="cls-1" points="50.52 8.52 46.52 6.67 40 21.41 33.48 6.67 29.48 8.52 37.58 26.67 29.48 44.83 33.48 46.67 40 31.92 46.52 46.67 50.52 44.83 42.42 26.67 50.52 8.52"/><path class="cls-1" d="M42.72,10.25A30.88,30.88,0,0,0,40,7.59a30.88,30.88,0,0,0-2.72,2.66V43.08A29.72,29.72,0,0,0,40,45.73a29.72,29.72,0,0,0,2.72-2.65Z"/><path class="cls-3" d="M32.66,16.55V36.78a35.6,35.6,0,0,0,5.14,6.84V9.7A36,36,0,0,0,32.66,16.55Z"/><path class="cls-3" d="M47.34,16.55A36,36,0,0,0,42.2,9.7V43.64a35.92,35.92,0,0,0,5.14-6.84Z"/><path d="M47.34,16.55V36.78a20.8,20.8,0,0,0,2.94-10.12A20.7,20.7,0,0,0,47.34,16.55Z"/><path d="M32.66,16.55V36.78a20.8,20.8,0,0,1-2.94-10.12A20.7,20.7,0,0,1,32.66,16.55Z"/></g></g></svg>