<svg xmlns="http://www.w3.org/2000/svg" viewBox="0 0 80 53.33"><defs><style>.cls-1{fill:#d51f3a;}.cls-2{fill:#f6ec32;}</style></defs><title>KG</title><g id="Layer_2" data-name="Layer 2"><g id="Capa_1" data-name="Capa 1"><rect class="cls-1" width="80" height="53.33"/><path class="cls-2" d="M55.66,26.66c-2,.51-4.24-1.13-6.13-.78V25.8c1.81-.86,4.83.11,5.92-1.63-1.92.83-4.34-.44-6.14.19,0,0,0-.05,0-.08,1.65-1.12,4.76-.65,5.59-2.51-1.76,1.11-4.33.26-6,1.14,0,0,0-.05,0-.08,1.48-1.36,4.59-1.39,5.11-3.35-1.57,1.36-4.22.94-5.75,2.07a.56.56,0,0,1,0-.08c1.25-1.56,4.31-2.08,4.5-4.08C51.3,19,48.62,19,47.3,20.31c0,0,0,0,0-.08,1-1.71,3.92-2.71,3.81-4.73-1.06,1.78-3.69,2.2-4.81,3.7a.23.23,0,0,1-.08-.07c.72-1.85,3.46-3.29,3-5.25-.78,1.92-3.31,2.75-4.18,4.39,0,0-.05,0-.1-.05.44-1.94,2.89-3.78,2.16-5.64-.46,2-2.81,3.22-3.42,5l-.11,0c.14-2,2.25-4.17,1.25-5.91-.14,2-2.28,3.63-2.61,5.47l-.11,0c-.17-2,1.56-4.46.29-6,.18,2.05-1.68,3.92-1.71,5.8h-.11c-.47-1.93.86-4.66-.64-6,.5,2-1.07,4.15-.8,6H39c-.78-1.83.11-4.75-1.56-5.82.81,1.91-.39,4.25.15,6l-.11,0c-1.06-1.68-.64-4.69-2.46-5.5,1.09,1.73.28,4.26,1.1,5.95,0,0,0,0-.09,0-1.31-1.5-1.36-4.55-3.31-5.06,1.36,1.56.94,4.18,2.05,5.73l-.1,0c-1.53-1.27-2.06-4.3-4.06-4.49,1.58,1.35,1.58,4,2.92,5.35l-.08,0c-1.72-1-2.72-3.92-4.73-3.81,1.78,1.08,2.2,3.74,3.73,4.83l0,.08c-1.86-.7-3.32-3.47-5.29-3,1.94.78,2.77,3.36,4.47,4.2a.19.19,0,0,0,0,.08c-1.95-.39-3.81-2.91-5.72-2.16,2.05.47,3.25,2.91,5.08,3.47a.16.16,0,0,1,0,.08c-2-.08-4.23-2.27-6-1.25,2.09.14,3.67,2.37,5.58,2.62,0,0,0,.05,0,.08-2,.27-4.58-1.58-6.14-.29,2.1-.18,4,1.78,5.94,1.71v.08c-1.94.6-4.78-.84-6.14.69,2.06-.52,4.26,1.14,6.17.78v.05c-1.81.89-4.87-.1-6,1.64,1.95-.83,4.4.47,6.22-.22,0,0,0,0,0,.05-1.64,1.2-4.83.68-5.66,2.56,1.82-1.13,4.46-.24,6.15-1.2a.1.1,0,0,0,0,0c-1.42,1.45-4.67,1.43-5.2,3.45,1.62-1.41,4.37-.92,5.89-2.16,0,0,0,0,0,0-1.15,1.67-4.4,2.15-4.62,4.23,1.37-1.64,4.2-1.58,5.48-3.06a0,0,0,0,1,0,0c-.88,1.84-4,2.83-3.91,4.92,1.11-1.84,3.92-2.22,5-3.91v0c-.56,2-3.53,3.45-3.09,5.48.81-2,3.53-2.81,4.29-4.64l0,0c-.25,2.05-3,4-2.2,5.91.5-2.1,3.06-3.33,3.51-5.25h0c.09,2.06-2.3,4.38-1.25,6.19.14-2.14,2.5-3.77,2.64-5.75h0c.41,2-1.59,4.69-.26,6.31-.19-2.14,1.87-4.11,1.7-6.08h0c.72,1.94-.85,4.89.72,6.28-.53-2.09,1.22-4.36.73-6.28h0c1,1.8-.08,5,1.7,6.08-.84-2,.52-4.48-.25-6.31h0c1.26,1.62.7,4.9,2.62,5.73-1.14-1.83-.19-4.5-1.23-6.18,0,0,0,0,0,0,1.5,1.41,1.45,4.73,3.49,5.25C45.5,39,46,36.2,44.72,34.7h0c1.69,1.15,2.19,4.44,4.25,4.64-1.65-1.38-1.57-4.2-3.06-5.49h0c1.85.87,2.83,4,4.92,3.9-1.82-1.1-2.21-3.89-3.87-4.93,0,0,0,0,0,0,1.95.59,3.41,3.53,5.45,3.09-2-.8-2.79-3.48-4.57-4.25a0,0,0,0,1,0,0c2,.3,3.92,3,5.86,2.2-2.08-.47-3.28-3-5.17-3.48,0,0,0,0,0-.05,2,0,4.32,2.3,6.08,1.25-2.11-.14-3.7-2.41-5.62-2.64a.09.09,0,0,1,0-.05c2-.29,4.6,1.58,6.19.28-2.09.19-4-1.78-5.94-1.71V27.3c2.11-.55,5,.89,6.32-.64m-7.22,1a8.89,8.89,0,0,1-.24,1.25.84.84,0,0,0,.18,0l-.19,0a8.63,8.63,0,0,1-.44,1.2l.16,0h-.19a8.49,8.49,0,0,1-.61,1.11s.11.05.16.1l-.19,0a8.62,8.62,0,0,1-.78,1l.14.11a.74.74,0,0,1-.19-.05,5.93,5.93,0,0,1-.94.86.8.8,0,0,0,.13.13l-.19-.08a6.82,6.82,0,0,1-1.06.72s.08.09.11.14a1.42,1.42,0,0,0-.18-.11,8.52,8.52,0,0,1-1.14.55.44.44,0,0,0,.1.15l-.16-.12a12.26,12.26,0,0,1-1.22.36c0,.05,0,.11,0,.17a1.83,1.83,0,0,0-.13-.16,6.39,6.39,0,0,1-1.26.16s0,.11,0,.17-.07-.12-.1-.17h-.36c-.32,0-.61,0-.93,0v.18a.54.54,0,0,0-.07-.19,7.28,7.28,0,0,1-1.25-.25s0,.11,0,.17,0-.14,0-.19a8,8,0,0,1-1.21-.44c0,.05,0,.11,0,.18a.53.53,0,0,0,0-.19,9.19,9.19,0,0,1-1.11-.61.65.65,0,0,1-.09.16c0-.08,0-.14,0-.19a10.73,10.73,0,0,1-1-.78.85.85,0,0,0-.1.14c0-.08,0-.14,0-.19a7.06,7.06,0,0,1-.86-.94.77.77,0,0,0-.12.13.84.84,0,0,1,.08-.19,8.59,8.59,0,0,1-.72-1.06l-.14.11.11-.17a8.64,8.64,0,0,1-.55-1.15l-.16.08a.87.87,0,0,0,.13-.15,10.63,10.63,0,0,1-.36-1.22l-.17,0,.15-.12a6.59,6.59,0,0,1-.15-1.27.74.74,0,0,0-.18,0L31.3,27v-.36c0-.3,0-.61,0-.93h-.17a.54.54,0,0,0,.19-.07,6.44,6.44,0,0,1,.25-1.25.86.86,0,0,0-.17,0l.18-.05a8.63,8.63,0,0,1,.44-1.2l-.15-.05a.47.47,0,0,0,.18,0A10.81,10.81,0,0,1,32.7,22s-.11,0-.15-.09l.18,0a7.72,7.72,0,0,1,.79-1,.83.83,0,0,0-.15-.11l.19,0A7.74,7.74,0,0,1,34.5,20a.77.77,0,0,0-.13-.12l.19.08a6.82,6.82,0,0,1,1.06-.72c0-.05,0-.1-.1-.14a.83.83,0,0,0,.17.11,8.52,8.52,0,0,1,1.14-.55,1.19,1.19,0,0,0-.08-.16.91.91,0,0,0,.16.13,10.47,10.47,0,0,1,1.21-.36s0-.11,0-.17l.12.15a6.59,6.59,0,0,1,1.27-.15,1.22,1.22,0,0,0,0-.17l.11.17h.36c.29,0,.61,0,.92,0v-.17a.41.41,0,0,0,.08.19,8.86,8.86,0,0,1,1.25.23,1.55,1.55,0,0,1,0-.17c0,.08,0,.14,0,.19a8.75,8.75,0,0,1,1.21.44c0-.05,0-.11,0-.17a.47.47,0,0,0,0,.18,9.19,9.19,0,0,1,1.11.61,1.19,1.19,0,0,1,.09-.15c0,.07,0,.14,0,.18a9.56,9.56,0,0,1,1,.78.85.85,0,0,0,.11-.14,1.67,1.67,0,0,1,0,.19,7.74,7.74,0,0,1,.86.94.77.77,0,0,0,.12-.13,2,2,0,0,1-.07.19,9.86,9.86,0,0,1,.72,1.06l.14-.11a.78.78,0,0,0-.11.18A8.46,8.46,0,0,1,48,23.55a.47.47,0,0,0,.16-.1,1.83,1.83,0,0,0-.13.16,8.54,8.54,0,0,1,.36,1.22l.18,0c-.05,0-.11.1-.16.13a7.23,7.23,0,0,1,.16,1.26l.17,0-.17.11v.36c0,.31,0,.61-.05.92h.17a.58.58,0,0,1-.2.11"/><path class="cls-2" d="M39.08,21.72a10.84,10.84,0,0,0-3.85-.84c-.1.1-.21.18-.31.29a10.69,10.69,0,0,1,3.67.83c.16-.09.32-.2.49-.28"/><path class="cls-2" d="M44,20.39A7,7,0,0,0,39.91,19a6.85,6.85,0,0,0-4.11,1.36,11.38,11.38,0,0,1,4.11.94A11.64,11.64,0,0,1,44,20.39"/><path class="cls-2" d="M37.92,22.42a11,11,0,0,0-3.39-.81l-.23.28a10.17,10.17,0,0,1,3.22.81,4,4,0,0,1,.4-.28"/><path class="cls-2" d="M40.89,24.33l-.41.33a10.39,10.39,0,0,1,3.27,7.4,6.52,6.52,0,0,0,.64-.47,10.79,10.79,0,0,0-3.5-7.26"/><path class="cls-2" d="M41.23,22a11.49,11.49,0,0,1,3.68-.83,2.71,2.71,0,0,0-.32-.29,10.91,10.91,0,0,0-3.84.84c.16.08.33.19.48.28"/><path class="cls-2" d="M42.05,23.55c-.16.09-.33.18-.5.29a11.14,11.14,0,0,1,3.73,6.85c.19-.25.39-.5.55-.75a11.39,11.39,0,0,0-3.78-6.39"/><path class="cls-2" d="M37,23.14a10.14,10.14,0,0,0-3-.83,7.11,7.11,0,0,0-1.11,3.81,6.86,6.86,0,0,0,.42,2.41A12.08,12.08,0,0,1,37,23.14"/><path class="cls-2" d="M42.31,22.7a10.3,10.3,0,0,1,3.22-.81,2.15,2.15,0,0,0-.23-.28,10.21,10.21,0,0,0-3.39.81c.14.08.26.19.4.28"/><path class="cls-2" d="M37,32.28v.31a6.91,6.91,0,0,0,5.81,0v-.31a10,10,0,0,0-2.9-7.08A10,10,0,0,0,37,32.28"/><path class="cls-2" d="M39.91,22.11a4.91,4.91,0,0,0-.5.28l.5.28c.15-.09.32-.19.5-.28-.18-.09-.33-.2-.5-.28"/><path class="cls-2" d="M42.86,23.14a12,12,0,0,1,3.66,5.42,7.33,7.33,0,0,0,.42-2.4,7.12,7.12,0,0,0-1.11-3.82,9.19,9.19,0,0,0-3,.8"/><path class="cls-2" d="M39.34,24.67l-.4-.33a10.77,10.77,0,0,0-3.5,7.28,5.58,5.58,0,0,0,.64.47,10.36,10.36,0,0,1,3.26-7.42"/><path class="cls-2" d="M39.5,23.84l.42.32.41-.32-.41-.31a4.13,4.13,0,0,0-.42.31"/><path class="cls-2" d="M38.25,23.84a2.72,2.72,0,0,0-.5-.29A11.39,11.39,0,0,0,34,29.92a6,6,0,0,0,.55.75,11.21,11.21,0,0,1,3.72-6.83"/><path class="cls-2" d="M40.59,23.09c.14.1.28.19.41.3a4.91,4.91,0,0,1,.5-.28l-.41-.3c-.17.08-.34.19-.5.28"/><path class="cls-2" d="M38.33,23.11l.5.28.4-.3a4.68,4.68,0,0,0-.5-.28c-.12.1-.26.19-.4.3"/></g></g></svg>