<svg xmlns="http://www.w3.org/2000/svg" viewBox="0 0 512 341.3"><defs><style>.cls-1{fill:#0052b4;}.cls-2{fill:#ffda44;}.cls-3{fill:#f0f0f0;}.cls-4{fill:#d80027;}.cls-5{fill:#6da544;}</style></defs><title>KM</title><g id="Layer_2" data-name="Layer 2"><g id="Capa_1" data-name="Capa 1"><rect class="cls-1" width="512" height="341.3"/><rect class="cls-2" width="512" height="85.3"/><rect class="cls-3" y="85.3" width="512" height="85.3"/><rect class="cls-4" y="170.7" width="512" height="85.3"/><polygon class="cls-5" points="256 170.7 0 341.3 0 0 256 170.7"/><path class="cls-3" d="M68.6,170.7A51.91,51.91,0,0,1,109.4,120a51,51,0,0,0-11.1-1.2,51.9,51.9,0,0,0,0,103.8,51,51,0,0,0,11.1-1.2A52,52,0,0,1,68.6,170.7Z"/><polygon class="cls-3" points="108.9 126.1 111.6 134.6 120.6 134.6 113.3 139.9 116.1 148.4 108.9 143.2 101.6 148.4 104.4 139.9 97.2 134.6 106.1 134.6 108.9 126.1"/><polygon class="cls-3" points="108.9 148.4 111.6 156.9 120.6 156.9 113.3 162.2 116.1 170.7 108.9 165.4 101.6 170.7 104.4 162.2 97.2 156.9 106.1 156.9 108.9 148.4"/><polygon class="cls-3" points="108.9 170.7 111.6 179.2 120.6 179.2 113.3 184.4 116.1 192.9 108.9 187.7 101.6 192.9 104.4 184.4 97.2 179.2 106.1 179.2 108.9 170.7"/><polygon class="cls-3" points="108.9 192.9 111.6 201.4 120.6 201.4 113.3 206.7 116.1 215.2 108.9 209.9 101.6 215.2 104.4 206.7 97.2 201.4 106.1 201.4 108.9 192.9"/></g></g></svg>