<svg xmlns="http://www.w3.org/2000/svg" viewBox="0 0 80 53.33"><defs><style>.cls-1{fill:#fff;}.cls-2{fill:#e63833;}.cls-3{fill:#42a047;}</style></defs><title>LB</title><g id="Layer_2" data-name="Layer 2"><g id="Capa_1" data-name="Capa 1"><rect class="cls-1" width="80" height="53.33"/><rect class="cls-2" y="39.98" width="80" height="13.34"/><rect class="cls-2" width="80" height="13.34"/><path class="cls-3" d="M39.53,13.52l-.42.71a5.64,5.64,0,0,1-1.27,1.33,8.46,8.46,0,0,0-1.25,1.1l-.4.5.42-.11a3.07,3.07,0,0,0,.69-.24c.14,0,.26,0,.26.08v0h0c0,.25-.81.83-1.39,1.08a4.05,4.05,0,0,0-1.5,1.09v0h0v0h0v0h0a.83.83,0,0,0,.45,0c.38-.1.52,0,.65.21s.07.55-.36.55a1.67,1.67,0,0,0-1.36.95c-.08.3-.36.54-1,.82a7.33,7.33,0,0,0-2.34,1.59v0c0,.37.83.36,2-.08.26-.1.39,0,.59.45s.25.58-.33,1.35a2,2,0,0,1-1.17.87c-.78.16-1,.31-2,1.34a4.3,4.3,0,0,1-1.08.88s-.08,0-.09,0h0a1.63,1.63,0,0,0,.92.44,3,3,0,0,0,1.2-.56c.77-.55.8-.55,1.11-.25a1.23,1.23,0,0,1,.31.76c0,.36-.18.53-1.2,1a9.32,9.32,0,0,0-2.3,1.72c-.92.92-1.17,1.07-1.54,1a2.06,2.06,0,0,0-.42,0h0v0s.09.14.23.29a1.05,1.05,0,0,0,.72.29,10,10,0,0,0,3.59-1.35,1.56,1.56,0,0,1,1.77-.26c.8.45-.53,1.39-3,2.14a13.71,13.71,0,0,0-1.79.59h0s0,.22.12.36c.27.33,1.56.36,2.69,0,.44-.14,1.54-.58,2.47-1,1.65-.77,1.65-.74,2.23-.44,1.35.7,1.22,1.92-.39,4a4,4,0,0,1-2.45,1.55c-.42.11-1.28.92-1.28,1.2a.22.22,0,0,0,0,.08H32a.69.69,0,0,0,.19-.19,2.34,2.34,0,0,1,1.8-.79,4,4,0,0,0,2.48-1.11c.64-.6,1.28-.79,1.77-.5a.87.87,0,0,0,.83,0c.57-.22.86-.11.86.32a1,1,0,0,0,.46.62,8.25,8.25,0,0,1,1.07.83c.23.23.4.33.5.33h0v0h0a1.41,1.41,0,0,0-.25-.6.73.73,0,0,1-.14-.42v0h0a5.66,5.66,0,0,1,1.22.05,2,2,0,0,1,1.77.87,2.5,2.5,0,0,0,.73.66h.41a.2.2,0,0,0,.15-.16h0v0h0a8.72,8.72,0,0,0-1.37-1.31c-1.66-1.39-1.92-1.89-1.92-3.81,0-1.14,0-1.45.31-1.75.42-.45.66-.45,1.67.09.78.41,1,.44,2.78.41s2,0,2.91.53c.53.31,1.19.74,1.45.94.58.44,1.19.47,1.33.08s-1-1.41-3-2.55-2.31-1.42-1.36-1.94c.55-.28.58-.28,1.47.19a2,2,0,0,0,1.47.39l.56-.12-1.25-1a14.34,14.34,0,0,1-1.48-1.34,2.29,2.29,0,0,0-1.78-.83,1.61,1.61,0,0,1-.72-.14v0h0c-.19-.36.39-.51,2-.58,2.22-.09,2.54-.36,1-.84-.62-.19-1.53-.44-2-.56s-1-.28-1.06-.44a.09.09,0,0,1,0-.05v0a.23.23,0,0,1,.11-.18c.1-.12.59-.11,1.45,0s1.48.18,1.56.09-.33-.44-1.31-1a14.2,14.2,0,0,1-2.5-1.78,7.41,7.41,0,0,0-1.66-1.25c-.54-.25-.7-.42-.65-.64s1-.36,1.51,0a3.12,3.12,0,0,0,1.28.25h.88l-.58-.25a9.43,9.43,0,0,1-2.31-1.64h0a2.31,2.31,0,0,1,.87-.05l.88.05-1.28-1a5.51,5.51,0,0,0-2.19-1.19c-.5-.1-1.06-.23-1.27-.28a3.78,3.78,0,0,1-1.78-1.87Zm-2.92,5h.08a.39.39,0,0,1,.33.11h0s0,0,0,0v0h0v0h0v0a1.29,1.29,0,0,1-.42.45c-.14.11-.23.17-.28.16h0v0s0-.15,0-.36,0-.45.33-.45m4.31.44h0c.27,0,.44.12.45.31s0,.31-.45.31c-.23,0-.36,0-.42-.09s0-.12,0-.23a.44.44,0,0,1,.45-.3m-1.26.11c.21,0,.29.11.29.39s-.12.44-.72.59a2.08,2.08,0,0,1-.81.11h0c-.22-.23,0-.53.5-.8a2.11,2.11,0,0,1,.74-.29m2.93,0c.32,0,.38.14.22.59,0,.16-.28.28-.5.28s-.39-.07-.36-.4.18-.42.5-.46h.14M37.67,20h0c.39,0,.14.73-.36,1.08s-.92.42-1.06.31h0a.1.1,0,0,1,0,0h0v0h0v0h0c0-.44.93-1.28,1.4-1.31m3.66,1.69c.17,0,.29.17.23.54a.5.5,0,0,1-.5.39c-.22,0-.36,0-.39,0h0v0c0-.11.08-.28.3-.58s.23-.28.36-.29m-1.46.09h0c.38,0,.44.33.09.53a1,1,0,0,1-.36.16h0l-.45-.16-.4-.14.45-.22a2.32,2.32,0,0,1,.65-.17m3.15.39a1,1,0,0,1,.54.11c.33.14.41.27.33.64s-.37.56-1.31.27c-.45-.14-.52-.22-.36-.53a1,1,0,0,1,.8-.49m-7,.13h0c.69,0,.79.12.44.54a3.14,3.14,0,0,1-.47.5c-.23.19-.29.17-.43-.12s-.24-.6-.15-.74.27-.18.58-.18m-1.79.31c.28,0,.46.12.7.53l.33.56-.5.19c-.44.17-.53.14-.88-.39-.23-.33-.31-.55-.26-.69a.1.1,0,0,1,0,0l0,0h0c.09-.1.25-.13.51-.16a.1.1,0,0,0,.07,0M45,24.27a.5.5,0,0,1,.59.56c0,.45-.56.59-1,.26-.25-.18-.27-.28-.08-.56a.62.62,0,0,1,.47-.26m-6.09.86H39l0,0h0a.38.38,0,0,1,0,.31c-.08.47-.39.63-.52.24s0-.58.32-.59m-2,.37a.82.82,0,0,1,.57.27.48.48,0,0,1,.22.32v.07a0,0,0,0,1,0,0h0l0,0h0c-.09.08-.3,0-.52-.13a1.17,1.17,0,0,1-.35-.42h0c0-.06,0-.12.11-.14m3.21.08c.08,0,.13.05.25.17a1.92,1.92,0,0,1,.36.66c.14.5-.09.7-.53.47a.69.69,0,0,1-.31-1.07c.11-.15.19-.23.23-.23m1.16.65c.12,0,.28.16.31.46a.6.6,0,0,1,0,.37h0c-.24,0-.38-.22-.38-.58a.19.19,0,0,1,.11-.25M34.14,27c.24,0,.44,0,.58,0a.82.82,0,0,1,.44.19s0,0,0,0v.08c0,.14-.24.31-.6.51a4.17,4.17,0,0,1-1.17.41c-.55.11-.62.08-.84-.42a2.89,2.89,0,0,1-.25-.63h0A6.8,6.8,0,0,1,34.14,27m11,1.6c.64,0,1,.4.28.93a1.23,1.23,0,0,1-1.5,0c-.3-.24-.28-.27.25-.65a2.25,2.25,0,0,1,1-.32m2.33.51h0a1,1,0,0,1,.47.25c.31.25.3.27-.08.72a1.32,1.32,0,0,1-.47.42h0s-.33,0-.62-.11-.53-.17-.53-.32v0a2.28,2.28,0,0,1,1.2-.94m-11.67.71h.11c.43,0,.68.36.68,1,0,.88-.54.81-.79-.11s-.25-.89,0-.9m3.32.26a2.27,2.27,0,0,1,1,.25h0a2,2,0,0,1-.39.63l-.39.51-.19-.65a2,2,0,0,1-.14-.71h0a.23.23,0,0,1,.12,0m-1.62.28a1.11,1.11,0,0,1,.23,0,.54.54,0,0,1,.44.39.71.71,0,0,1,0,.45v0h0s0,0,0,0H38c-.11,0-.25-.14-.38-.41s-.22-.43-.17-.5h0s0,0,0,0"/></g></g></svg>