<svg xmlns="http://www.w3.org/2000/svg" viewBox="0 0 80 53.33"><defs><style>.cls-1{fill:#ffda44;}.cls-2{fill:#a2001d;}.cls-3{fill:#d80027;}.cls-4{fill:#6da544;}.cls-5{fill:#ff9811;}</style></defs><title>LK</title><g id="Layer_2" data-name="Layer 2"><g id="Capa_1" data-name="Capa 1"><path class="cls-1" d="M0,0V53.33H80V0ZM76.52,49.86H34.78V3.48H76.52Z"/><rect class="cls-2" x="34.78" y="3.48" width="41.73" height="46.37"/><rect class="cls-3" x="3.48" y="3.48" width="31.3" height="46.37"/><rect class="cls-1" x="31.3" width="3.48" height="53.33"/><rect class="cls-4" x="3.48" y="3.48" width="13.91" height="46.37"/><rect class="cls-5" x="17.39" y="3.48" width="13.91" height="46.37"/><path class="cls-1" d="M56.05,25.8v-7c0-1.15-1.74-2.31-1.74-2.31s-1.73,1.16-1.73,2.31H45.63v7h3.48v3.48a5.56,5.56,0,0,0,.44,2.16L48,32.77H43.31V11.3a3.48,3.48,0,0,0-3.48,3.48V29.86A3.5,3.5,0,0,0,41,32.45V38H43.3V35.06H53.73V39.7H51.41V42h4.64V37.39l2.12-2.31h6.92v4.64H62.78V42h4.64V37.39l2.13-2.31,2-6.3-1.72-3H63.72C61.47,25.78,57.33,25.81,56.05,25.8Z"/><polygon class="cls-1" points="57.91 19.77 57.91 23.7 69.08 23.7 69.08 25.8 69.77 25.8 69.77 23.02 58.59 23.02 58.59 20.47 70.47 20.47 70.47 19.77 57.91 19.77"/><rect class="cls-1" x="34.78" y="3.48" width="3.48" height="3.48"/><rect class="cls-1" x="73.05" y="3.48" width="3.48" height="3.48"/><rect class="cls-1" x="34.78" y="46.37" width="3.48" height="3.48"/><rect class="cls-1" x="73.05" y="46.37" width="3.48" height="3.48"/></g></g></svg>