<svg xmlns="http://www.w3.org/2000/svg" viewBox="0 0 80 53.33"><defs><style>.cls-1{fill:#d60a2e;}.cls-2{fill:#6fa44a;}</style></defs><title>MA</title><g id="Layer_2" data-name="Layer 2"><g id="Layer_1-2" data-name="Layer 1"><path class="cls-1" d="M0,0H80V53.33H0Z"/><path class="cls-2" d="M54.94,23.19a1.17,1.17,0,0,0-1.1-.8H44.11l-3-9.25a1.13,1.13,0,0,0-1.45-.73,1.15,1.15,0,0,0-.73.73l-3,9.27H26.16A1.15,1.15,0,0,0,25,23.56a1.12,1.12,0,0,0,.47.92l7.86,5.85-3,9.15a1.17,1.17,0,0,0,.75,1.46,1.14,1.14,0,0,0,1-.16L40,35.27l7.9,5.51a1.16,1.16,0,0,0,1.61-.28,1.19,1.19,0,0,0,.16-1l-3-9.15,7.86-5.85a1.2,1.2,0,0,0,.36-1.29ZM40,17.22l1.69,5.17H38.33Zm0,15.2-4-3,1.54-4.75h4.86L44,29.47ZM29.63,24.7h5.51L34.06,28Zm5.64,7.08,2.76,2-4.44,3.09Zm11.14,5.14L42,33.83l2.76-2ZM45.92,28,44.84,24.7h5.52Z"/></g></g></svg>