<svg xmlns="http://www.w3.org/2000/svg" viewBox="0 0 80 54.1"><defs><style>.cls-1{fill:#003893;}.cls-2{fill:#fff;}.cls-3{fill:#dd7500;}</style></defs><title>MH</title><g id="Layer_2" data-name="Layer 2"><g id="Capa_1" data-name="Capa 1"><rect class="cls-1" y="0.78" width="80" height="53.33"/><path class="cls-2" d="M0,53.24V52L80,7V22.53Z"/><path class="cls-3" d="M0,52.4v-.86L80,1.63V12.09Z"/><g id="r6"><path class="cls-2" d="M18.66,3.09l1,16.35h-2Z"/><path id="r1" class="cls-2" d="M21.69,8.14,19.82,19.75l-2.31-.62Z"/><path id="r1-2" data-name="r1" class="cls-2" d="M26.48,11.5l-7.43,9.13-1.7-1.69Z"/><path id="r1-3" data-name="r1" class="cls-2" d="M29,17l-11,4.2-.62-2.31Z"/><path id="r1-4" data-name="r1" class="cls-2" d="M28.41,23.11,16.79,21.24l.65-2.32Z"/><path id="r1-5" data-name="r1" class="cls-2" d="M24.82,28.27,15.7,20.85l1.69-1.7Z"/></g><g id="r6-2" data-name="r6"><path class="cls-2" d="M15.57,35.78l-1-16.34h2Z"/><path id="r1-6" data-name="r1" class="cls-2" d="M12.54,30.73l1.87-11.61,2.31.63Z"/><path id="r1-7" data-name="r1" class="cls-2" d="M7,27.25l7.42-9.11,1.69,1.7Z"/><path id="r1-8" data-name="r1" class="cls-2" d="M3.71,21.48l11-4.18.62,2.31Z"/><path id="r1-9" data-name="r1" class="cls-2" d="M3.64,14.86l11.61,1.87-.62,2.32Z"/><path id="r1-10" data-name="r1" class="cls-2" d="M6.73,9.06l9.12,7.42-1.69,1.69Z"/></g><g id="r6-3" data-name="r6"><path class="cls-2" d="M15.57,0l1,16.34h-2Z"/><path id="r1-11" data-name="r1" class="cls-2" d="M18.6,5.05,16.72,16.66,14.41,16Z"/><path id="r1-12" data-name="r1" class="cls-2" d="M24.29,7.73l-7.41,9.11-1.7-1.7Z"/><path id="r1-13" data-name="r1" class="cls-2" d="M27.85,12.76l-11,4.17-.63-2.33Z"/><path id="r1-14" data-name="r1" class="cls-2" d="M28.42,18.74,16.81,16.87l.61-2.32Z"/><path id="r1-15" data-name="r1" class="cls-2" d="M26,24.05l-9.11-7.42,1.69-1.7Z"/></g><g id="r6-4" data-name="r6"><path class="cls-2" d="M18.66,32.69l-1-16.35h2Z"/><path id="r1-16" data-name="r1" class="cls-2" d="M15.63,27.64,17.51,16l2.31.63Z"/><path id="r1-17" data-name="r1" class="cls-2" d="M10.74,25.08,18.15,16l1.7,1.69Z"/><path id="r1-18" data-name="r1" class="cls-2" d="M7.92,20.36l11-4.19.62,2.31Z"/><path id="r1-19" data-name="r1" class="cls-2" d="M8,14.85l11.61,1.87L19,19.05Z"/><path id="r1-20" data-name="r1" class="cls-2" d="M11,10.19l9.12,7.42-1.69,1.7Z"/></g></g></g></svg>