<svg xmlns="http://www.w3.org/2000/svg" xmlns:xlink="http://www.w3.org/1999/xlink" viewBox="0 0 91.56 53.42"><defs><style>.cls-1{fill:none;}.cls-2{clip-path:url(#clip-path);}.cls-3{fill:#c02026;}.cls-4{fill:#f8e625;}</style><clipPath id="clip-path" transform="translate(5.78)"><rect class="cls-1" width="80" height="53.42"/></clipPath></defs><title>MK</title><g id="Layer_2" data-name="Layer 2"><g id="Capa_1" data-name="Capa 1"><g class="cls-2"><rect class="cls-3" width="91.56" height="53.42"/><path class="cls-4" d="M72.05,53.42H85.78L40,26.7ZM-5.78,0,40,26.7,8,0Z" transform="translate(5.78)"/><path class="cls-4" d="M35.42,53.42h9.16L40,26.7ZM35.42,0,40,26.7,44.58,0Z" transform="translate(5.78)"/><path class="cls-4" d="M-5.78,53.42H8L40,26.7ZM72.05,0,40,26.7,85.78,0Z" transform="translate(5.78)"/><path class="cls-4" d="M-5.78,32.05,40,26.7-5.78,21.36ZM40,26.7l45.78,5.35V21.37Z" transform="translate(5.78)"/><path class="cls-3" d="M40,17.17a9.53,9.53,0,1,1-9.53,9.53A9.53,9.53,0,0,1,40,17.17" transform="translate(5.78)"/><path class="cls-4" d="M40,19.06a7.64,7.64,0,1,1-7.64,7.64A7.64,7.64,0,0,1,40,19.06" transform="translate(5.78)"/></g></g></g></svg>