<svg xmlns="http://www.w3.org/2000/svg" viewBox="0 0 80 53.33"><defs><style>.cls-1{fill:#357a5f;}.cls-2{fill:#fff;}.cls-3{fill:#f2d031;}</style></defs><title>MO</title><g id="Layer_2" data-name="Layer 2"><g id="Capa_1" data-name="Capa 1"><rect class="cls-1" width="80" height="53.33"/><path class="cls-2" d="M39.92,31.05c-1.19.81-2.42,2.57-5.29,2.57-4.07,0-5.58-1.18-6.79-2.09,0-.14,1-.62,1-.62a9.9,9.9,0,0,0,6.82,2c-4.17-.38-7-2.64-7.86-4.75,2.27-1.57,6-1.53,9.08.62-1-1.19-4.17-2.5-6.56-2.12-.34-.36-.64-.8-1-1.16,2.75-.61,6.59,1.14,8,2.58-1.49-2.35-2.57-5-.82-8.25.35.33.74.65,1.08,1a7.5,7.5,0,0,0,.22,7.1,7.39,7.39,0,0,1,2.06-9.27A7.38,7.38,0,0,1,42,27.91a7.42,7.42,0,0,0,.22-7.1c.35-.33.74-.65,1.08-1,1.75,3.23.67,5.9-.81,8.25,1.4-1.44,5.25-3.17,8-2.58-.35.36-.64.8-1,1.16-2.39-.38-5.6.95-6.56,2.12,3.08-2.15,6.81-2.19,9.08-.62-.86,2.09-3.69,4.37-7.86,4.75a9.94,9.94,0,0,0,6.83-2s1.08.48,1,.62c-1.2.91-2.72,2.09-6.78,2.09-2.88,0-4.11-1.76-5.3-2.57"/><path class="cls-2" d="M39.92,31.84c-1.69,1.41-2.72,2.3-5,2.3l-6.77,0c.18.33.36.65.55.94l6.41,0a6.58,6.58,0,0,0,4.76-1.95,6.59,6.59,0,0,0,4.77,1.95l6.4,0a8,8,0,0,0,.55-.94H44.88c-2.24,0-3.27-.89-5-2.28"/><polygon class="cls-3" points="39.92 12.19 40.55 14.08 42.55 14.08 40.92 15.23 41.55 17.11 39.92 15.95 38.3 17.11 38.92 15.23 37.3 14.08 39.3 14.08 39.92 12.19"/><polygon class="cls-3" points="27.89 20.59 29.11 20.86 29.72 19.8 29.86 21.02 31.08 21.27 29.94 21.77 30.06 22.98 29.23 22.08 28.09 22.58 28.72 21.52 27.89 20.59"/><polygon class="cls-3" points="32.11 15.13 33.03 15.95 34.11 15.33 33.61 16.45 34.53 17.28 33.3 17.16 32.8 18.28 32.53 17.08 31.3 16.94 32.38 16.33 32.11 15.13"/><polygon class="cls-3" points="51.95 20.59 50.73 20.86 50.13 19.8 49.98 21.02 48.77 21.27 49.91 21.77 49.78 22.98 50.61 22.08 51.75 22.58 51.13 21.52 51.95 20.59"/><polygon class="cls-3" points="47.73 15.13 46.81 15.95 45.73 15.33 46.23 16.45 45.31 17.28 46.55 17.16 47.05 18.28 47.31 17.08 48.55 16.94 47.47 16.33 47.73 15.13"/><path class="cls-2" d="M29.34,35.91c.08.11.18.21.25.32H50.23a1.85,1.85,0,0,0,.25-.32Zm1.14,1.31c.22.22.46.44.71.65H48.67c.24-.2.47-.42.71-.65Zm1.5,1.3a14.35,14.35,0,0,0,1.54,1H46.33a14.21,14.21,0,0,0,1.53-1Zm2.18,1.31a13.42,13.42,0,0,0,5.59,1.31h.34a13.43,13.43,0,0,0,5.6-1.31Z"/></g></g></svg>