<svg xmlns="http://www.w3.org/2000/svg" viewBox="0 0 80 53.33"><defs><style>.cls-1{fill:#496e2d;}.cls-2{fill:#ffda44;}</style></defs><title>MR</title><g id="Layer_2" data-name="Layer 2"><g id="Capa_1" data-name="Capa 1"><rect class="cls-1" width="80" height="53.33"/><path class="cls-2" d="M40,33.36A15,15,0,0,1,25.34,21.58,16.12,16.12,0,0,0,25,24.8a15,15,0,0,0,30,0,15.57,15.57,0,0,0-.34-3.22A15,15,0,0,1,40,33.36Z"/><polygon class="cls-2" points="40 13.55 41.39 17.84 45.92 17.84 42.27 20.5 43.66 24.8 40 22.14 36.34 24.8 37.73 20.5 34.08 17.84 38.61 17.84 40 13.55"/></g></g></svg>