<svg xmlns="http://www.w3.org/2000/svg" viewBox="0 0 80 53.33"><defs><style>.cls-1{fill:#d81e34;}.cls-2{fill:#fff;}.cls-3{fill:#31409a;}.cls-4{fill:#f5d02c;}</style></defs><title>MY</title><g id="Layer_2" data-name="Layer 2"><g id="Capa_1" data-name="Capa 1"><rect class="cls-1" y="0.11" width="80" height="3.8"/><rect class="cls-2" y="3.91" width="80" height="3.8"/><rect class="cls-1" y="7.7" width="80" height="3.8"/><rect class="cls-2" y="11.52" width="80" height="3.8"/><rect class="cls-1" y="15.31" width="80" height="3.8"/><rect class="cls-2" y="19.11" width="80" height="3.8"/><rect class="cls-1" y="22.92" width="80" height="3.8"/><rect class="cls-2" y="26.72" width="80" height="3.8"/><rect class="cls-1" y="30.52" width="80" height="3.8"/><rect class="cls-2" y="34.33" width="80" height="3.8"/><rect class="cls-1" y="38.13" width="80" height="3.8"/><rect class="cls-2" y="41.94" width="80" height="3.8"/><rect class="cls-1" y="45.73" width="80" height="3.8"/><rect class="cls-2" y="49.53" width="80" height="3.8"/><rect class="cls-3" width="46.67" height="30.42"/><path class="cls-4" d="M12.61,15.22A8.74,8.74,0,0,1,25.94,7.77a9.89,9.89,0,0,0-6.66-2.55,10,10,0,0,0,0,20,9.87,9.87,0,0,0,6.66-2.55,8.74,8.74,0,0,1-13.33-7.45"/><polygon class="cls-4" points="32.61 15.22 37.41 13.36 32.28 13.77 35.8 10.02 31.36 12.61 32.89 7.7 30.02 11.97 29.28 6.89 28.75 10.53 28.59 11.58 28.53 11.97 25.66 7.7 27.2 12.61 22.77 10.02 26.27 13.77 21.16 13.36 25.94 15.22 21.16 17.08 26.27 16.67 22.77 20.42 27.2 17.83 25.66 22.73 28.53 18.47 28.59 18.86 28.75 19.91 29.28 23.55 30.02 18.47 32.89 22.73 31.36 17.83 35.8 20.42 32.28 16.67 37.41 17.08 32.61 15.22"/></g></g></svg>