<svg xmlns="http://www.w3.org/2000/svg" viewBox="0 0 80 53.34"><defs><style>.cls-1{fill:#f0f0f0;}.cls-2{fill:#ffda44;}.cls-3{fill:#496e2d;}.cls-4{fill:#a2001d;}</style></defs><title>MZ</title><g id="Layer_2" data-name="Layer 2"><g id="Capa_1" data-name="Capa 1"><rect class="cls-1" width="80" height="53.33"/><rect class="cls-2" y="37.11" width="80" height="16.23"/><rect class="cls-3" width="80" height="16.33"/><rect y="19.61" width="80" height="14.02"/><polygon class="cls-4" points="40 26.67 0 53.33 0 0 40 26.67"/><polygon class="cls-2" points="13.05 17.16 15.41 24.42 23.05 24.42 16.86 28.91 19.22 36.17 13.05 31.69 6.86 36.17 9.22 28.91 3.05 24.42 10.69 24.42 13.05 17.16"/><rect class="cls-1" x="6.14" y="26.67" width="13.81" height="6.34"/><polygon points="22.56 19.39 20.33 17.16 13.05 24.44 5.77 17.16 3.52 19.39 10.81 26.67 3.52 33.97 5.77 36.17 13.05 28.91 20.33 36.17 22.56 33.97 15.28 26.67 22.56 19.39"/></g></g></svg>