<svg xmlns="http://www.w3.org/2000/svg" viewBox="0 0 80 53.33"><defs><style>.cls-1{fill:#496e2d;}.cls-2{fill:#0052b4;}.cls-3{fill:#f0f0f0;}.cls-4{fill:#a2001d;}.cls-5{fill:#ffda44;}</style></defs><title>NA</title><g id="Layer_2" data-name="Layer 2"><g id="Capa_1" data-name="Capa 1"><rect class="cls-1" width="80" height="53.33"/><polyline class="cls-2" points="0 53.33 0 0 80 0"/><polygon class="cls-3" points="80 10.45 80 0 64.33 0 0 42.88 0 53.33 15.67 53.33 80 10.45"/><polygon class="cls-4" points="80 0 80 6.27 9.41 53.33 0 53.33 0 47.06 70.59 0 80 0"/><polygon class="cls-5" points="29.33 16.23 25.78 17.91 27.67 21.34 23.81 20.61 23.33 24.5 20.64 21.64 17.95 24.5 17.47 20.61 13.61 21.34 15.5 17.91 11.94 16.23 15.5 14.56 13.61 11.13 17.47 11.86 17.95 7.95 20.64 10.83 23.33 7.95 23.81 11.86 27.67 11.13 25.78 14.56 29.33 16.23"/></g></g></svg>