<svg xmlns="http://www.w3.org/2000/svg" viewBox="0 0 80 53.33"><defs><style>.cls-1{fill:#273b8c;}.cls-2{fill:#bd1f34;}.cls-3{fill:#fff;}</style></defs><title>NP</title><g id="Layer_2" data-name="Layer 2"><g id="Capa_1" data-name="Capa 1"><path class="cls-1" d="M3.83,3.64,66.75,24.53H18.23L68.78,51.31H3.83ZM0,0V53.33H78L27.44,26.55H80Z"/><polygon class="cls-2" points="1.91 1.83 1.91 52.31 73.36 52.31 22.84 25.53 73.36 25.53 1.91 1.83"/><path class="cls-3" d="M18.09,23c7.19,0,13-3.79,13-8.48A11.66,11.66,0,0,1,25.27,19l-1.13-.54,2.19-1.07-2.66-.43h0l1.41-1.53-2.72.26.37-1.76-2.34.9h0l-.69-1.73L18.06,14.5l-1.64-1.42-.69,1.73h0l-2.34-.9.41,1.76-2.71-.26,1.41,1.53h0l-2.66.44L12,18.44,10.91,19A11.7,11.7,0,0,1,5.06,14.5c0,4.69,5.85,8.48,13,8.48"/><polygon class="cls-3" points="26.67 40.3 26.67 40.3 32.08 38.8 26.67 37.28 26.67 37.28 30.22 34.23 24.36 34.7 25.09 30.91 20.39 33.2 20.39 33.2 18.09 29.67 15.81 33.2 15.81 33.2 11.11 30.91 11.83 34.7 5.98 34.23 9.55 37.28 9.55 37.28 4.13 38.8 9.55 40.3 9.55 40.3 5.98 43.36 11.83 42.89 11.83 42.89 11.83 42.89 11.11 46.69 15.81 44.38 15.81 44.38 18.09 47.91 20.39 44.38 20.39 44.38 25.09 46.69 24.36 42.89 30.22 43.36 26.67 40.3"/></g></g></svg>