<svg xmlns="http://www.w3.org/2000/svg" viewBox="0 0 80 53.33"><defs><style>.cls-1{fill:#f4d130;}.cls-2{fill:#262d65;}.cls-3{fill:#fff;}.cls-4{fill:#bd1f34;}</style></defs><title>NU</title><g id="Layer_2" data-name="Layer 2"><g id="Capa_1" data-name="Capa 1"><rect class="cls-1" width="80" height="53.33"/><rect class="cls-2" width="40" height="20"/><polygon class="cls-3" points="35.53 0 0 17.77 0 20 4.47 20 40 2.23 40 0 35.53 0"/><polygon class="cls-3" points="0 0 0 2.23 35.53 20 40 20 40 17.77 4.47 0 0 0"/><rect class="cls-3" x="16.67" width="6.67" height="20"/><rect class="cls-3" y="6.66" width="40" height="6.67"/><rect class="cls-4" y="8" width="40" height="4"/><rect class="cls-4" x="18" width="4" height="20"/><polygon class="cls-4" points="13.33 13.33 0 20 2.98 20 16.31 13.33 13.33 13.33"/><polygon class="cls-4" points="23.69 6.66 26.67 6.66 40 0 37.02 0 23.69 6.66"/><polygon class="cls-4" points="40 20 40 18.5 29.64 13.33 26.67 13.33 40 20"/><polygon class="cls-4" points="0 0 0 1.48 10.36 6.66 13.33 6.66 0 0"/><path class="cls-2" d="M23.33,10A3.33,3.33,0,1,0,20,13.33,3.34,3.34,0,0,0,23.33,10"/><polygon class="cls-1" points="16.83 8.97 19.25 8.97 20 6.66 20.75 8.97 23.17 8.97 21.22 10.39 21.95 12.69 20 11.27 18.05 12.69 18.78 10.39 16.83 8.97"/><polygon class="cls-1" points="18.09 16.23 19.55 16.23 20 14.86 20.45 16.23 21.91 16.23 20.72 17.09 21.17 18.47 20 17.61 18.83 18.47 19.27 17.09 18.09 16.23"/><polygon class="cls-1" points="18.09 2.91 19.55 2.91 20 1.52 20.45 2.91 21.91 2.91 20.72 3.75 21.17 5.14 20 4.28 18.83 5.14 19.27 3.75 18.09 2.91"/><polygon class="cls-1" points="6.44 9.56 7.89 9.56 8.33 8.19 8.78 9.56 10.23 9.56 9.06 10.42 9.52 11.8 8.33 10.95 7.16 11.8 7.61 10.42 6.44 9.56"/><polygon class="cls-1" points="29.77 9.56 31.22 9.56 31.67 8.19 32.11 9.56 33.56 9.56 32.39 10.42 32.84 11.8 31.67 10.95 30.48 11.8 30.94 10.42 29.77 9.56"/></g></g></svg>