<svg xmlns="http://www.w3.org/2000/svg" viewBox="0 0 80 53.33"><defs><style>.cls-1{fill:#0052b4;}.cls-2{fill:#d80027;}.cls-3{fill:#f0f0f0;}</style></defs><title>NZ</title><g id="Layer_2" data-name="Layer 2"><g id="Capa_1" data-name="Capa 1"><rect class="cls-1" width="80" height="53.33"/><polygon class="cls-2" points="66.45 23.19 66.98 24.81 68.7 24.81 67.31 25.83 67.84 27.45 66.45 26.45 65.06 27.45 65.59 25.83 64.2 24.81 65.92 24.81 66.45 23.19"/><polygon class="cls-2" points="60.33 34.92 61.13 37.36 63.69 37.36 61.61 38.88 62.41 41.31 60.33 39.81 58.25 41.31 59.05 38.88 56.97 37.36 59.53 37.36 60.33 34.92"/><polygon class="cls-2" points="60.56 15.72 61.22 17.77 63.36 17.77 61.63 19.02 62.3 21.06 60.56 19.8 58.83 21.06 59.48 19.02 57.75 17.77 59.91 17.77 60.56 15.72"/><polygon class="cls-2" points="54.67 23.13 55.47 25.56 58.03 25.56 55.95 27.08 56.75 29.52 54.67 28 52.59 29.52 53.39 27.08 51.3 25.56 53.88 25.56 54.67 23.13"/><polygon class="cls-3" points="40 0 40 4.78 32.94 8.7 40 8.7 40 17.97 30.77 17.97 40 23.11 40 26.67 35.83 26.67 24.34 20.28 24.34 26.67 15.66 26.67 15.66 19.08 1.98 26.67 0 26.67 0 21.89 7.06 17.97 0 17.97 0 8.7 9.23 8.7 0 3.56 0 0 4.17 0 15.66 6.38 15.66 0 24.34 0 24.34 7.59 38.02 0 40 0"/><polygon class="cls-2" points="22.5 0 17.5 0 17.5 10.83 0 10.83 0 15.83 17.5 15.83 17.5 26.67 22.5 26.67 22.5 15.83 40 15.83 40 10.83 22.5 10.83 22.5 0"/><polygon class="cls-1" points="24.34 17.97 40 26.67 40 24.2 28.78 17.97 24.34 17.97"/><polygon class="cls-3" points="24.34 17.97 40 26.67 40 24.2 28.78 17.97 24.34 17.97"/><polygon class="cls-2" points="24.34 17.97 40 26.67 40 24.2 28.78 17.97 24.34 17.97"/><polygon class="cls-2" points="11.22 17.97 0 24.2 0 26.67 0 26.67 15.66 17.97 11.22 17.97"/><polygon class="cls-1" points="15.66 8.7 0 0 0 2.45 11.22 8.7 15.66 8.7"/><polygon class="cls-3" points="15.66 8.7 0 0 0 2.45 11.22 8.7 15.66 8.7"/><polygon class="cls-2" points="15.66 8.7 0 0 0 2.45 11.22 8.7 15.66 8.7"/><polygon class="cls-2" points="28.78 8.7 40 2.45 40 0 40 0 24.34 8.7 28.78 8.7"/></g></g></svg>