<svg xmlns="http://www.w3.org/2000/svg" viewBox="0 0 80 53.28"><defs><style>.cls-1{fill:#fff;}.cls-2{fill:#4165b0;}.cls-3{fill:#c01f3f;}</style></defs><title>PA</title><g id="Layer_2" data-name="Layer 2"><g id="Capa_1" data-name="Capa 1"><rect class="cls-1" width="80" height="53.28"/><polygon class="cls-2" points="20.02 6.66 17.97 12.98 21.13 14.02 20.02 6.66"/><polygon class="cls-2" points="20.02 6.66 22.08 12.98 18.92 14.02 20.02 6.66"/><polygon class="cls-2" points="26.36 11.25 19.7 11.25 19.7 14.59 26.36 11.25"/><polygon class="cls-2" points="26.36 11.25 20.97 15.16 19 12.47 26.36 11.25"/><polygon class="cls-2" points="13.69 11.25 19.08 15.16 21.03 12.47 13.69 11.25"/><polygon class="cls-2" points="13.69 11.25 20.34 11.25 20.34 14.59 13.69 11.25"/><polygon class="cls-2" points="23.92 18.69 21.88 12.36 18.72 13.39 23.92 18.69"/><polygon class="cls-2" points="23.92 18.69 18.55 14.78 20.5 12.09 23.92 18.69"/><polygon class="cls-2" points="16.11 18.69 21.5 14.78 19.55 12.09 16.11 18.69"/><polygon class="cls-2" points="16.11 18.69 18.17 12.36 21.33 13.39 16.11 18.69"/><rect class="cls-2" y="26.62" width="40" height="26.66"/><rect class="cls-3" x="40" width="40" height="26.66"/><polygon class="cls-3" points="59.98 33.28 57.92 39.61 61.08 40.66 59.98 33.28"/><polygon class="cls-3" points="59.98 33.28 62.03 39.61 58.88 40.66 59.98 33.28"/><polygon class="cls-3" points="66.31 37.89 59.66 37.89 59.66 41.22 66.31 37.89"/><polygon class="cls-3" points="66.31 37.89 60.92 41.81 58.97 39.13 66.31 37.89"/><polygon class="cls-3" points="53.64 37.89 59.03 41.81 61 39.13 53.64 37.89"/><polygon class="cls-3" points="53.64 37.89 60.3 37.89 60.3 41.22 53.64 37.89"/><polygon class="cls-3" points="63.89 45.34 61.83 39.02 58.67 40.03 63.89 45.34"/><polygon class="cls-3" points="63.89 45.34 58.5 41.42 60.45 38.72 63.89 45.34"/><polygon class="cls-3" points="56.08 45.34 61.45 41.42 59.5 38.72 56.08 45.34"/><polygon class="cls-3" points="56.08 45.34 58.13 39.02 61.28 40.03 56.08 45.34"/></g></g></svg>