<svg xmlns="http://www.w3.org/2000/svg" viewBox="0 0 80 53.33"><defs><style>.cls-1{fill:#303e99;}.cls-2{fill:#bd1f34;}.cls-3{fill:#fff;}.cls-4{fill:#f4d130;}</style></defs><title>PH</title><g id="Layer_2" data-name="Layer 2"><g id="Capa_1" data-name="Capa 1"><rect class="cls-1" width="80" height="26.68"/><rect class="cls-2" y="26.65" width="80" height="26.65"/><polygon class="cls-3" points="0 0 0 53.33 46.42 26.65 0 0"/><polygon class="cls-4" points="6.27 48.19 4.21 47 2.44 48.59 2.94 46.26 0.88 45.09 3.25 44.86 3.74 42.51 4.69 44.68 7.07 44.42 5.29 46.01 6.27 48.19"/><path class="cls-4" d="M12.51,21.83l-1.73-3-1-.11,2.37,3.38Zm-1.33,1.36-3.64-2.8-.13-1.64,1.49,0,3,3.69Zm-.56.65-3-1.69-.13-1,3.4,2.34Z"/><path class="cls-4" d="M16.81,21.21l.91-3.33-.63-.79-.73,4.07Zm-1.9,0-.55-4.57,1.06-1.25,1.06,1L16,21.16Zm-.87.06-.89-3.33.63-.78.73,4.06Z"/><path class="cls-4" d="M20.3,23.91l3-1.65.14-1L20,23.54ZM19,22.52,21.9,19l1.64-.1v1.49l-3.77,2.92Zm-.63-.58,1.77-3,1-.11-2.44,3.36Z"/><path class="cls-4" d="M20.83,28.09l3.33.91.79-.63-4.07-.73Zm0-1.94,4.57-.55,1.23,1.07-1,1.06-4.75-.52Zm-.05-.83,3.33-.89.78.63-4.06.73Z"/><path class="cls-4" d="M18.3,31.48l1.75,3,1,.11L18.66,31.2Zm1.36-1.37,3.66,2.78.14,1.64-1.49,0-3-3.67Zm.53-.64,3,1.67.13,1-3.43-2.31Z"/><path class="cls-4" d="M14,32.11l-.87,3.33.62.78.72-4.06Zm1.93,0,.59,4.57-1.06,1.25-1.07-1,.49-4.75Zm.84-.08.92,3.32-.61.78-.75-4.05Z"/><path class="cls-4" d="M10.56,29.5l-3,1.72-.12,1,3.41-2.35Zm1.34,1.36L9.06,34.49l-1.63.09,0-1.49,3.7-3Zm.63.55-1.74,3-1,.13,2.39-3.4Z"/><path class="cls-4" d="M10,25.29,6.63,24.4,5.85,25l4.07.72Zm0,1.91-4.56.58L4.14,26.71l1-1.06,4.76.48ZM10,28,6.73,29l-.79-.63L10,27.59Z"/><path class="cls-4" d="M15.41,21a5.63,5.63,0,1,1-5.63,5.63A5.62,5.62,0,0,1,15.41,21"/><polygon class="cls-4" points="34.77 28.59 36.18 26.65 34.77 24.73 37.02 25.48 38.43 23.55 38.41 25.93 40.68 26.65 38.41 27.39 38.43 29.76 37.04 27.84 34.77 28.59"/><polygon class="cls-4" points="6.27 4.54 4.21 5.76 2.44 4.13 2.94 6.46 0.88 7.65 3.25 7.9 3.74 10.23 4.69 8.04 7.07 8.3 5.29 6.71 6.27 4.54"/></g></g></svg>