<svg xmlns="http://www.w3.org/2000/svg" viewBox="0 0 80 53.33"><defs><style>.cls-1{fill:#f0f0f0;}.cls-2{fill:#496e2d;}</style></defs><title>PK</title><g id="Layer_2" data-name="Layer 2"><g id="Capa_1" data-name="Capa 1"><polygon class="cls-1" points="61.48 13.31 64.22 16.27 67.88 14.56 65.91 18.08 68.66 21.03 64.7 20.25 62.75 23.77 62.27 19.77 58.31 19 61.97 17.3 61.48 13.31"/><rect class="cls-1" width="80" height="53.33"/><rect class="cls-2" x="20" width="60" height="53.33"/><path class="cls-1" d="M56.55,33.36A10.83,10.83,0,1,1,43.86,15.8a10.72,10.72,0,0,1,4.94-2A13.33,13.33,0,1,0,60,29.27,10.74,10.74,0,0,1,56.55,33.36Z"/><polygon class="cls-1" points="56.34 13.69 59.08 16.63 62.72 14.94 60.77 18.44 63.5 21.39 59.55 20.61 57.59 24.13 57.11 20.14 53.17 19.36 56.81 17.67 56.34 13.69"/></g></g></svg>