<svg xmlns="http://www.w3.org/2000/svg" viewBox="0 0 80 53.33"><defs><style>.cls-1{fill:#691941;}.cls-2{fill:#fff;}</style></defs><title>QA</title><g id="Layer_2" data-name="Layer 2"><g id="Capa_1" data-name="Capa 1"><polygon class="cls-1" points="23.86 0 32.36 2.97 23.86 5.91 32.36 8.88 23.86 11.84 32.36 14.8 23.86 17.77 32.36 20.73 23.86 23.69 32.36 26.66 23.86 29.63 32.36 32.58 23.86 35.55 32.36 38.52 23.86 41.47 32.36 44.44 23.86 47.41 32.36 50.36 23.86 53.33 80 53.33 80 0 23.86 0"/><polygon class="cls-2" points="0 0 0 53.33 23.86 53.33 32.36 50.36 23.86 47.41 32.36 44.44 23.86 41.47 32.36 38.52 23.86 35.55 32.36 32.58 23.86 29.63 32.36 26.66 23.86 23.69 32.36 20.73 23.86 17.77 32.36 14.8 23.86 11.84 32.36 8.88 23.86 5.91 32.36 2.97 23.86 0 0 0"/></g></g></svg>