<svg xmlns="http://www.w3.org/2000/svg" viewBox="0 0 80 53.43"><defs><style>.cls-1{fill:#009530;}.cls-2{fill:#fff;}</style></defs><title>SA</title><g id="Layer_2" data-name="Layer 2"><g id="Capa_1" data-name="Capa 1"><rect class="cls-1" width="80" height="53.43"/><path class="cls-2" d="M54,40.26H52.35a.44.44,0,0,0-.17-.24v-.48H56a2.81,2.81,0,0,0,.08.72H54.65c-.07-.17-.17-.28-.32-.28a.39.39,0,0,0-.31.28M52,36.6a.58.58,0,0,0-.53.62.6.6,0,0,0,.44.61v.32H22.48c.42,1.31,3.31,1.4,4.11,1.4H51.91V40a.56.56,0,0,0-.22.47c0,.28.16.52.36.52s.33-.2.34-.45H54c0,.25.17.45.36.45s.33-.2.34-.45h1.57a.73.73,0,0,0,.59.39h0c.12,0,.81-.07.81-1.4s-.75-1.39-.89-1.39H52.18v-.34a.63.63,0,0,0,.34-.58A.55.55,0,0,0,52,36.6"/><path class="cls-2" d="M19.63,13.94h0c-1.09,0-1.33,1.5-1.55,2.8-.09.59-.25,1.59-.48,1.62h0C17.16,18,17,16.09,17,14.83a.29.29,0,0,0-.28-.3h0a.27.27,0,0,0-.28.28c0,.55,0,3.35.72,4a.61.61,0,0,0,.39.16.23.23,0,0,0,.12,0c.63-.1.77-1,.94-2.11s.36-2.22.94-2.3a5.32,5.32,0,0,1-.17,1.18c-.22,1.08-.5,2.42.09,3.16a1.51,1.51,0,0,0,1.25.5h.1l-.06-.58h0a1,1,0,0,1-.8-.3c-.44-.53-.17-1.77,0-2.67s.3-1.4.05-1.69a.64.64,0,0,0-.41-.17m2.33,0h0a.3.3,0,0,0-.28.25,9.65,9.65,0,0,0,.1,2.87,5.51,5.51,0,0,1-.25,1.06c0,.31,0,.63.07.94l.13-.13a2.14,2.14,0,0,0,.42-.84,1.7,1.7,0,0,0,.33.42,1.42,1.42,0,0,0,1,.39l.39,0A1.54,1.54,0,0,0,25.06,18c.59-1.38-.93-3.79-1-3.9a.26.26,0,0,0-.23-.12.32.32,0,0,0-.16,0,.28.28,0,0,0-.09.39c.39.63,1.34,2.44.95,3.35a1,1,0,0,1-.76.53l-.27,0a.85.85,0,0,1-.62-.23,2.18,2.18,0,0,1-.52-1,9.81,9.81,0,0,0-.09-2.85c-.07-.16-.18-.27-.3-.27"/><path class="cls-2" d="M18.19,12.39a.55.55,0,0,0-.55.48c0,.24,0,.49.21.49a.3.3,0,0,0,.18-.08s.1-.3.19-.3.05,0,.08.11c.08.34-.34,1.31-.11,1.31,0,0,1.11-1.81.17-2h-.17"/><path class="cls-2" d="M22.27,12.42a.21.21,0,0,0-.2.15,1.49,1.49,0,0,0,.09,1,.55.55,0,0,0,.41.22h.05A.62.62,0,0,0,23,13.7l0,0a.51.51,0,0,0,.4.19h0a.56.56,0,0,0,.45-.23.93.93,0,0,0,0-.76.21.21,0,0,0-.19-.12.15.15,0,0,0-.09,0,.19.19,0,0,0-.1.26c.05.11.1.3.05.38s-.09,0-.13,0-.09,0-.1,0a.49.49,0,0,1-.07-.3,1.5,1.5,0,0,0,.05-.39.21.21,0,0,0-.19-.2h0a.21.21,0,0,0-.2.16,1.23,1.23,0,0,0,0,.39.58.58,0,0,1-.12.25.25.25,0,0,1-.16.06.09.09,0,0,1-.09,0,1.16,1.16,0,0,1,0-.7.2.2,0,0,0-.15-.25s0,0,0,0"/><path class="cls-2" d="M20.5,12.87c-.4,0-.32.52-.32.52l.57,5.38.07.58.48,4.45c.49-.14.42-2.51.25-4.78,0-.31,0-.63-.08-.94-.15-1.8-.34-3.33-.34-3.33.58-.53-.53-1.86-.53-1.86a.15.15,0,0,0-.1,0"/><path class="cls-2" d="M17,22.35l0,0,0,0m2.9-2.13c-.81,0-2.7,1.91-2.9,2.13.7-.7,3.72-1.24,3.19-2a.34.34,0,0,0-.29-.14"/><path class="cls-2" d="M26.62,21.58l-.92.55c.06,1.33.09,2.24.09,2.24,0,2-2.74,2.8-4.39,2.8a2.88,2.88,0,0,1-.93-.13c-1.45-.51-1-4-1-4-1,1.16-.48,4.07,0,4.64a3,3,0,0,0,2.25.76,6.3,6.3,0,0,0,1.58-.22,4.35,4.35,0,0,0,3.37-3.55c0-.44,0-1.68-.05-3.12m-.83-8.71c-.72.28-.67.83-.67.83.23,1.88.42,5,.53,7.38l.92-.72c-.11-2.31-.26-4.66-.26-4.66,1-.28-.52-2.83-.52-2.83"/><path class="cls-2" d="M17.63,24.34s-1.08,2.2-.66,3.55a.79.79,0,0,0,.73.64c.58,0,1.19-.75.71-1.74,0,0-.17.67-.69.67s-.09-3.12-.09-3.12"/><path class="cls-2" d="M23.71,21.87c-.45,0-.62-.58-.37-.93a.23.23,0,0,1,.18-.11c.35,0,.77.78.77.78a1,1,0,0,1-.58.26m.09-2.09a1.53,1.53,0,0,0-1.32,1.93,1.16,1.16,0,0,0,1.12,1.11,1.61,1.61,0,0,0,1-.44s.18,2.21-2.95,2.79h-.11c-.36,0-1.46-.21-1.35-2.79,0,0-1.22,4,1.44,4.05h0c2.65,0,4.16-2.58,3.6-4.06l.39-.24.92-.55.07,0a1.24,1.24,0,0,0,1,.61,1.75,1.75,0,0,0,1.2-.61,1.45,1.45,0,0,0,1.07.49c.67,0,1.15-1.39.62-2.26,0,0,0,1.52-.56,1.52h0c-.53,0-.86-1.52-.86-1.52S28.64,21.22,28,21.3h0c-.63,0-.63-1.52-.63-1.52l-.75.58-.92.72-.27.22s-.65-1.52-1.55-1.52"/><path class="cls-2" d="M28.92,22.85h-.06c-.82.08-.68,1-.19,1a.36.36,0,0,0,.19-.05v1s.86-2,.06-2"/><path class="cls-2" d="M30.34,12.56c-.61,0-1.36.27-.48,1.84.42.79-2.35,2.69-2.35,2.69s5-1.75,3.46-4.47c0,0-.3-.06-.63-.06"/><path class="cls-2" d="M30,16.63s-1.27,1-.56,1.7a.49.49,0,0,0,.37.17c.57,0,1-1,1-1s-.6.55-.94.55A.23.23,0,0,1,29.7,18c-.22-.29.25-1.33.25-1.33"/><path class="cls-2" d="M34.38,18.77h-.07c-.9.19-.53,1.45-.53,1.45a38,38,0,0,1,1.3,4.12c0,.53-.62,1.09-2.2,2.69a1.82,1.82,0,0,1-1.24.64c-.78,0-1.2-.89-1.2-.89s2.73-1.83,3-3.32A3.73,3.73,0,0,0,33,21l.44-.29-1.25-1.33-.63,1.33a5.44,5.44,0,0,1,1.25,2.42c0,1-2,2.19-2,2.19l-.27-1.45L29.72,26,25.79,28.5,29.72,27s0,1.86,1.54,1.92h.07c1.8,0,4.14-3.11,4.14-3.11a4.94,4.94,0,0,0,4.23,2.78c.46,0,.78-.12.81-.33.19-1.34-1.82-.58-1.63-1.84s3.55-1.43,4.46-1.61,1-1.71,1-1.71l-5.94.22a29.14,29.14,0,0,0,4.36-2.25A1.41,1.41,0,0,0,41.49,19a1.84,1.84,0,0,0-.5.06,1.66,1.66,0,0,0-1.14,2.24s.14.5-1.77.73-1.62,1.8-1.62,1.8.22.5,1.28.5H38a1.76,1.76,0,0,1,1.44.49C37.9,25.17,38.13,27,38.13,27s-1.92-1.11-2.06-2.58-.82-5.6-1.69-5.6"/><path class="cls-2" d="M40.26,12.37h0c-.31.08-.84,1.57-.84,1.57s1.34,3.44.53,3.62c-2.44-.47-.72-4.86-1.86-4.94a.54.54,0,0,0-.17,0c-.27,0-.69.19-.3,1.6.52,1.89.55,3.62-1.3,3.62h-.14c-2-.09.19-3.77-.77-4.11h-.11c-.87,0-1.36,3.69-2.23,3.89l-.08,0c-.83,0-.83-3.38-.83-3.38s-.83,4.17.77,4.17a.91.91,0,0,0,.23,0,1.87,1.87,0,0,0,1.47-1.59c.06.92.38,2.05,1.43,2.05a1.23,1.23,0,0,0,.26,0c2.11-.33,1.83-1.2,1.83-1.2a2.21,2.21,0,0,0,1.67,1,1.51,1.51,0,0,0,.46-.07c1.31-.36.5-4.11.5-4.11h.62s-.81-2.05-1.12-2.05"/><path class="cls-2" d="M36.1,12.86c-.5,0,.33,2.73.33,2.73s1.15-2.09-.24-2.7a.11.11,0,0,0-.09,0"/><path class="cls-2" d="M38.77,19.25l-.28.93-.62-.69s0,.67-.24.69l-.33-.44c-.31.69-.08,1.11.28,1.11h.07c.32-.05.37-.5.37-.63a.4.4,0,0,0,.44.44h.08c.56-.08.23-1.41.23-1.41"/><path class="cls-2" d="M42.42,26.6c-.3,0-.86.6-.86.6l.57.17a.14.14,0,0,0-.07,0c-.14,0-.41.1-.1.93a.49.49,0,0,0,.5.34c.75,0,2-1.12,1.88-1.36,0-.05-.06-.06-.11-.06-.36,0-1.33.72-1.69.72s.24-1,0-1.27a.24.24,0,0,0-.12,0"/><path class="cls-2" d="M41.54,12.61l.14,1.61,2.66,3.55L45,27.09c1.43-.09.38-7.65.38-7.65,2.52,4,3.47,5.51,3.47,5.51.06-1.94-3.53-7.07-3.53-7.07l-.1-2.29.24.18c.48-.15-.52-2.9-1.13-2.91h0c-.61,0,0,3.34,0,3.34l-1.05-1.53.55-.09-2.3-2"/><path class="cls-2" d="M46.44,12.47c-.54,0-.6,1.18.34,1.5L47,15.33s1.24-1.66-.17-2.72a.58.58,0,0,0-.34-.14"/><path class="cls-2" d="M47.94,15.91l-.28.92L47,16.16s-.05.67-.23.68l-.33-.43c-.32.68-.08,1.11.28,1.11h.06c.33-.05.38-.5.38-.63a.4.4,0,0,0,.43.44h.08c.58-.09.24-1.42.24-1.42"/><path class="cls-2" d="M49.09,12.86s-.71.48-.71,1,.84,6.94.92,9.79c0,1.39.31,2.91-3.77,5.25,0,0,3.91,0,4.39-3.37s-.51-10.25-.51-10.25h.47l-.79-2.45"/><path class="cls-2" d="M51.19,12.61h0c-.37,0-1,1.11-.57,3s1.26,11,1.26,11a3.8,3.8,0,0,0,.89-2.9c-.31-1.57-1.09-8.11-1.09-8.11h.75a6,6,0,0,0-.55-1.36c-.42-.7-.33-1.62-.67-1.62"/><path class="cls-2" d="M59.1,12.61h0c-.47.06-.67,1.22-.55,2s.55,4.35.55,4.35l-1.33-1.77-.17-2.11s0,0,.08,0A.39.39,0,0,0,57.9,15c.23-.24-.92-2.16-.92-2.16-.82.11-.38,1.52-.38,1.52l.1,1.22L56,14.44l.26-.07-1.76-1.76v1.94l2.34,2.95s.17,3.88.32,5.21.14,2.2-.79,2.49l-.2,0c-.75,0-1-1.33-1.7-1.36h0c-.77,0-1.31,3.17-2.33,3.52a.7.7,0,0,1-.14,0c-.89,0-.92-3.12-.92-3.12a14.67,14.67,0,0,0-.47,2.34c0,.73.12,2,1.39,2h.2c1.47-.14,1.6-3.37,2.32-3.4h0c.31,0,.41.32.6.63a1.14,1.14,0,0,0,1.11.62,2.29,2.29,0,0,0,.43,0c1.82-.32,1.38-2.6,1.38-2.6L57.73,19l1.59,2L59.93,25h0c.48,0-.08-3.06-.08-3.06l2.38,3a12.27,12.27,0,0,0-.14-1.53,25.55,25.55,0,0,0-2.19-3.36l-.31-4.74h.23c.19,0,.12-.69-.05-1.36s-.45-1.36-.69-1.36"/><path class="cls-2" d="M62.53,12.57s-.72.51-.72,1,.84,7,.92,9.79c0,1.4.32,2.91-3.77,5.26,0,0,3.91-.05,4.4-3.38s-.5-10.24-.5-10.24h.47l-.8-2.48"/><path class="cls-2" d="M60.47,13.5c-.54,0-.6,1.19.34,1.5L61,16.36s1.24-1.67-.17-2.72a.56.56,0,0,0-.34-.14"/><path class="cls-2" d="M55.52,21.1c-.43,0-.48.95.28,1.22L56,23.43s1-1.35-.15-2.21a.42.42,0,0,0-.28-.12"/><path class="cls-2" d="M56.1,19.57c-.45,0-2.41,2-2.41,2-.08.25,0,.29.11.29h.13c1.36-.85,2.48-1.91,2.25-2.22a.13.13,0,0,0-.08,0"/><path class="cls-2" d="M55.18,16.52c-.89,0-.61,1.87-.61,1.87s-.39-1.34-1-1.34h-.09c-.61.18-.26.9-.26.9a1.26,1.26,0,0,0,.31,0,.55.55,0,0,0,.34-.09.1.1,0,0,1,.08,0c.16,0,.27.36.38.7s.21.7.37.7h0c.37-.14,0-1.78.42-2,.72-.35,0-.75,0-.75h0"/><path class="cls-2" d="M57.48,26.78a.43.43,0,0,0-.25.07s-.52,0-.41.41c0,.13.08.16.14.16a.12.12,0,0,0,.08,0h.08c.06,0,.11,0,.12.22,0,.46-.81.23-.58.84a.39.39,0,0,0,.4.23c.46,0,1.15-.46,1-.73a.25.25,0,0,0-.25-.17h-.1c-.06,0-.11,0-.12-.16,0-.34.54-.59.2-.75a.57.57,0,0,0-.31-.09"/></g></g></svg>