<svg xmlns="http://www.w3.org/2000/svg" xmlns:xlink="http://www.w3.org/1999/xlink" viewBox="0 0 80.33 53.36"><defs><style>.cls-1{fill:none;}.cls-2{clip-path:url(#clip-path);}.cls-3{fill:#215b33;}.cls-4{fill:#0051ba;}.cls-5{fill:#fcd116;}.cls-6{fill:#fff;}</style><clipPath id="clip-path"><rect class="cls-1" width="80" height="53.36"/></clipPath></defs><title>SB</title><g id="Layer_2" data-name="Layer 2"><g id="Capa_1" data-name="Capa 1"><g class="cls-2"><rect class="cls-3" width="80" height="53.33"/></g><g class="cls-2"><polyline class="cls-4" points="0 53.33 0 0 80 0"/></g><g class="cls-2"><polygon class="cls-5" points="0 53.33 0 51 76.41 0.05 80 0 80.33 3.16 4.61 53.36 0 53.33"/></g><g class="cls-2"><polygon class="cls-6" points="18.23 10.52 19.09 13.16 21.86 13.16 19.63 14.78 20.47 17.42 18.23 15.8 16 17.42 16.84 14.78 14.61 13.16 17.38 13.16 18.23 10.52"/><polygon class="cls-6" points="10.42 16.64 11.27 19.28 14.03 19.28 11.8 20.91 12.66 23.53 10.42 21.91 8.17 23.53 9.03 20.91 6.8 19.28 9.56 19.28 10.42 16.64"/><polygon class="cls-6" points="26.06 16.64 26.91 19.28 29.67 19.28 27.44 20.91 28.3 23.53 26.06 21.91 23.81 23.53 24.67 20.91 22.44 19.28 25.2 19.28 26.06 16.64"/><polygon class="cls-6" points="10.42 4.34 11.27 6.98 14.03 6.98 11.8 8.61 12.66 11.25 10.42 9.61 8.17 11.25 9.03 8.61 6.8 6.98 9.56 6.98 10.42 4.34"/><polygon class="cls-6" points="26.06 4.34 26.91 6.98 29.67 6.98 27.44 8.61 28.3 11.25 26.06 9.61 23.81 11.25 24.67 8.61 22.44 6.98 25.2 6.98 26.06 4.34"/></g></g></g></svg>