<svg xmlns="http://www.w3.org/2000/svg" viewBox="0 0 80 53.33"><defs><style>.cls-1{fill:#d91d42;}.cls-2{fill:#fff;}</style></defs><title>SG</title><g id="Layer_2" data-name="Layer 2"><g id="Capa_1" data-name="Capa 1"><rect class="cls-1" width="80" height="24.45"/><rect class="cls-2" y="24.44" width="80" height="28.89"/><path class="cls-2" d="M24.31,12.22A9.2,9.2,0,1,1,15.11,3a9.19,9.19,0,0,1,9.2,9.2"/><path class="cls-1" d="M27.19,12.22A8.69,8.69,0,1,1,18.5,3.53a8.69,8.69,0,0,1,8.69,8.69"/><polygon class="cls-2" points="16.23 12.44 14.98 11.48 13.75 12.44 14.22 10.89 12.97 9.94 14.52 9.95 14.98 8.41 15.47 9.95 17.02 9.94 15.77 10.89 16.23 12.44"/><polygon class="cls-2" points="26.05 12.44 24.8 11.48 23.53 12.44 24.03 10.89 22.77 9.94 24.33 9.95 24.8 8.41 25.27 9.95 26.81 9.94 25.56 10.89 26.05 12.44"/><polygon class="cls-2" points="21.14 8.81 19.91 7.84 18.64 8.81 19.13 7.25 17.88 6.3 19.42 6.3 19.91 4.77 20.38 6.3 21.92 6.3 20.67 7.25 21.14 8.81"/><polygon class="cls-2" points="18.08 18.25 16.83 17.31 15.58 18.25 16.05 16.72 14.81 15.77 16.34 15.77 16.83 14.23 17.3 15.77 18.86 15.77 17.59 16.72 18.08 18.25"/><polygon class="cls-2" points="24.2 18.25 22.97 17.31 21.72 18.25 22.19 16.72 20.94 15.77 22.48 15.77 22.97 14.23 23.44 15.77 24.98 15.77 23.73 16.72 24.2 18.25"/></g></g></svg>