<svg xmlns="http://www.w3.org/2000/svg" viewBox="0 0 80 53.33"><defs><style>.cls-1{fill:#fff;}.cls-2{fill:#e91d26;}.cls-3{fill:#485fab;}.cls-4{fill:#f8e625;}</style></defs><title>SI</title><g id="Layer_2" data-name="Layer 2"><g id="Capa_1" data-name="Capa 1"><rect class="cls-1" width="80" height="53.33"/><rect class="cls-2" y="35.55" width="80" height="17.78"/><rect class="cls-3" y="17.77" width="80" height="17.78"/><path class="cls-2" d="M14.48,10.25c-.15.08-.32.14-.48.23l.5,8.08a9.16,9.16,0,0,0,2.64,5.86A8.89,8.89,0,0,0,21,26.69h0a9.23,9.23,0,0,0,3.82-2.27,9.08,9.08,0,0,0,2.64-5.86l.5-8.08-.49-.23h0l-.51,8.25a8.6,8.6,0,0,1-6,7.63h0A8.53,8.53,0,0,1,17.5,24,8.68,8.68,0,0,1,15,18.5l-.52-8.25h0"/><path class="cls-3" d="M27.44,10.25a16.07,16.07,0,0,0-12.94,0L15,18.5A8.58,8.58,0,0,0,21,26.12h0A8.4,8.4,0,0,0,24.42,24a8.63,8.63,0,0,0,2.5-5.52"/><polyline class="cls-4" points="21.34 12.75 21.63 12.36 21.16 12.42 20.95 11.97 20.75 12.42 20.28 12.36 20.58 12.75 20.28 13.16 20.75 13.09 20.95 13.55 21.16 13.09 21.63 13.16"/><polyline class="cls-4" points="19.52 10.31 19.81 9.92 19.33 9.97 19.13 9.53 18.94 9.97 18.45 9.92 18.73 10.31 18.45 10.7 18.94 10.66 19.13 11.09 19.33 10.66 19.81 10.7"/><polyline class="cls-4" points="23.19 10.31 23.47 9.92 22.98 9.97 22.8 9.53 22.59 9.97 22.11 9.92 22.41 10.31 22.11 10.7 22.59 10.66 22.8 11.09 22.98 10.66 23.47 10.7"/><path class="cls-1" d="M26.19,19.7l-2.61-3.48-1,1.39L21,14.48l-1.57,3.13-1-1.39L15.73,19.7a1.71,1.71,0,0,0,.52,1.24,1.75,1.75,0,0,0,1.23.51,2,2,0,0,0,.88-.23h0a1.42,1.42,0,0,1,.42-.17,1.77,1.77,0,0,1,1.33.17,1.72,1.72,0,0,0,.87.23h0a1.73,1.73,0,0,0,.88-.23,1.75,1.75,0,0,1,1.33-.17,2.47,2.47,0,0,1,.42.17h0a1.72,1.72,0,0,0,.87.23,1.68,1.68,0,0,0,1.71-1.75"/><path class="cls-1" d="M16.36,21.61c.12.23.25.47.39.7h0a1.75,1.75,0,0,0,1.17.11,2.09,2.09,0,0,0,.41-.17h0A1.6,1.6,0,0,1,19.2,22h0a1.73,1.73,0,0,1,.88.23,1.71,1.71,0,0,0,1.73,0h0a1.65,1.65,0,0,1,.88-.23h0a1.69,1.69,0,0,1,.87.23,1.8,1.8,0,0,0,1.33.17.61.61,0,0,0,.28-.11c.14-.23.27-.47.39-.7h0a1.92,1.92,0,0,0-.25.12h0a1.14,1.14,0,0,1-.42.18,1.82,1.82,0,0,1-1.33-.18,1.8,1.8,0,0,0-.87-.23h0a2,2,0,0,0-.88.23h0a1.14,1.14,0,0,1-.42.18,1.82,1.82,0,0,1-1.33-.18,1.8,1.8,0,0,0-.87-.23h0a2,2,0,0,0-.88.23h0a1.14,1.14,0,0,1-.42.18,1.82,1.82,0,0,1-1.33-.18.36.36,0,0,0-.2-.12h0"/><path class="cls-1" d="M24.72,22.94a9.09,9.09,0,0,1-.66.75A8.42,8.42,0,0,1,21,25.63h0a8.12,8.12,0,0,1-3.11-1.94,9.32,9.32,0,0,1-.66-.75h0a2.06,2.06,0,0,0,.74,0,1.44,1.44,0,0,0,.4-.18h0a1.86,1.86,0,0,1,.88-.23h0a1.77,1.77,0,0,1,.87.23,1.76,1.76,0,0,0,1.33.18,1.65,1.65,0,0,0,.41-.18h0a1.79,1.79,0,0,1,.87-.23h0a1.83,1.83,0,0,1,.88.23,1.58,1.58,0,0,0,1.14.21h0"/></g></g></svg>