<svg xmlns="http://www.w3.org/2000/svg" viewBox="0 0 80 53.33"><defs><style>.cls-1{fill:#fff;}.cls-2{fill:#303e99;}.cls-3{fill:#bd1f34;}</style></defs><title>SK</title><g id="Layer_2" data-name="Layer 2"><g id="Capa_1" data-name="Capa 1"><rect class="cls-1" width="80" height="53.33"/><rect class="cls-2" y="17.77" width="80" height="35.55"/><rect class="cls-3" y="35.55" width="80" height="17.78"/><path class="cls-1" d="M12.5,12.53c-1.06.09-.77,1.38-.91,2.11-.37,5.06-.9,10.28.66,15.2a17,17,0,0,0,7.66,9.38,12.14,12.14,0,0,0,2.67,1.34,12.9,12.9,0,0,0,2.79-1.43,17,17,0,0,0,7.54-9.3c1.57-5,1-10.31.64-15.47,0-.7,0-1.94-1-1.86h-20Z"/><path class="cls-3" d="M22.58,13.31V39.77C10.33,33.84,11.67,24,12.5,13.31Zm0,0V39.77C34.83,33.83,33.47,24,32.66,13.31Z"/><path class="cls-1" d="M24,20.58a19.88,19.88,0,0,1,3.85.48,4.75,4.75,0,0,1,0-3.2,20,20,0,0,1-3.85.48H21.16a19.88,19.88,0,0,1-3.86-.48,4.75,4.75,0,0,1,0,3.2,20,20,0,0,1,3.86-.48Z"/><path class="cls-1" d="M25.11,25.41a19.88,19.88,0,0,1,3.86.48,4.63,4.63,0,0,1,0-3.2,20.08,20.08,0,0,1-3.86.48H20a19.88,19.88,0,0,1-3.86-.48,4.63,4.63,0,0,1,0,3.2A20.08,20.08,0,0,1,20,25.41Z"/><path class="cls-1" d="M21,14.33a20,20,0,0,1,.5,3.84V34.56h2.25V18.17a18.45,18.45,0,0,1,.5-3.84,4.66,4.66,0,0,1-3.25,0"/><path class="cls-2" d="M17.48,30.59a2.62,2.62,0,0,0-2.62,2.61,3.16,3.16,0,0,0,0,.32,16,16,0,0,0,1.77,2.15,2.23,2.23,0,0,0,.81.14,2.62,2.62,0,0,0,2.62-2.62,2.58,2.58,0,0,0-2.61-2.6"/><path class="cls-2" d="M22.58,29.05a3.33,3.33,0,1,0,3.33,3.32,3.31,3.31,0,0,0-3.33-3.32"/><path class="cls-2" d="M27.66,30.59a2.62,2.62,0,1,0,0,5.24,2.51,2.51,0,0,0,.81-.14,16.23,16.23,0,0,0,1.8-2.16c0-.11,0-.22,0-.31a2.67,2.67,0,0,0-2.64-2.63"/><path class="cls-2" d="M15.31,34.11a19.22,19.22,0,0,0,7.27,5.69,19.45,19.45,0,0,0,7.26-5.69Z"/></g></g></svg>