<svg xmlns="http://www.w3.org/2000/svg" viewBox="0 0 80 53.34"><defs><style>.cls-1{fill:#ffda44;}.cls-2{fill:#0052b4;}.cls-3{fill:#a2001d;}.cls-4{fill:#f0f0f0;}</style></defs><title>SZ</title><g id="Layer_2" data-name="Layer 2"><g id="Capa_1" data-name="Capa 1"><rect class="cls-1" width="80" height="53.33"/><rect width="80" height="14.16"/><rect class="cls-2" y="39.19" width="80" height="14.16"/><rect class="cls-3" y="17.7" width="80" height="17.94"/><rect class="cls-1" x="22.61" y="25.5" width="34.78" height="2.31"/><rect class="cls-1" x="27.25" y="20.88" width="25.5" height="2.31"/><path class="cls-4" d="M52.92,26.67S47,33.62,40,33.62s-7-6.95-7-6.95,0-7,7-7S52.92,26.67,52.92,26.67Z"/><path d="M40,33.62c-7,0-12.92-6.95-12.92-6.95s6-7,12.92-7"/><rect class="cls-4" x="35.36" y="24.34" width="2.31" height="4.64"/><rect x="42.31" y="24.34" width="2.31" height="4.64"/><circle class="cls-2" cx="22.61" cy="26.67" r="2.31"/><circle class="cls-2" cx="57.39" cy="26.67" r="2.31"/></g></g></svg>