<svg xmlns="http://www.w3.org/2000/svg" viewBox="0 0 80 53.33"><defs><style>.cls-1{fill:#002395;}.cls-2{fill:#fff;}.cls-3{fill:#ed2939;}</style></defs><title>TF</title><g id="Layer_2" data-name="Layer 2"><g id="Capa_1" data-name="Capa 1"><rect class="cls-1" width="80" height="53.33"/><rect class="cls-2" width="32.53" height="21.86"/><rect class="cls-1" width="10.67" height="21.33"/><rect class="cls-3" x="21.33" width="10.67" height="21.33"/><path class="cls-2" d="M47.33,24.41l1.72,2.73h4.89v9.53l-3.67-5.73L45.33,38.8h2.4l2.54-4.53,5.2,9.32,5.2-9.32L63.2,38.8h2.41l-4.94-7.86L57,36.67V31.41h2.2l1.64-2.6H57V27.14h4.89l1.71-2.73Zm5.73,11.65H47.73v1.86h5.33Zm10.14,0H57.87v1.86H63.2Z"/><path id="s" class="cls-2" d="M55.47,45.47l1.64,5.06L52.8,47.41h5.33l-4.32,3.12Z"/><path id="s-2" data-name="s" class="cls-2" d="M49.47,40.94,51.11,46,46.8,42.87h5.33L47.81,46Z"/><path id="s-3" data-name="s" class="cls-2" d="M61.47,40.94,63.11,46,58.8,42.87h5.32L59.81,46Z"/><path id="s-4" data-name="s" class="cls-2" d="M44.41,27.47l1.64,5.06-4.32-3.12h5.33l-4.31,3.12Z"/><path id="s-5" data-name="s" class="cls-2" d="M66.53,27.47l1.64,5.06-4.31-3.12h5.33l-4.32,3.12Z"/></g></g></svg>