<svg xmlns="http://www.w3.org/2000/svg" viewBox="0 0 80 53.2"><defs><style>.cls-1{fill:#58b44d;}.cls-2{fill:#fff;}.cls-3{fill:#ea0042;}.cls-4{fill:#cfb428;}</style></defs><title>TJ</title><g id="Layer_2" data-name="Layer 2"><g id="Capa_1" data-name="Capa 1"><rect class="cls-1" y="38.02" width="80" height="15.19"/><rect class="cls-2" y="15.17" width="80" height="22.81"/><rect class="cls-3" width="80" height="15.19"/><path class="cls-4" d="M39.92,32a3.13,3.13,0,0,0,3.42.4,2.41,2.41,0,0,0,3.47.56,4.63,4.63,0,0,1-3.51-2c-.92.75-2.44.07-2.78-.28V26.31l2.2-2.17c0-.47-1.42-1.8-2.82-1.8s-2.83,1.32-2.83,1.8l2.2,2.17,0,4.32c-.35.35-1.86,1-2.78.28a4.62,4.62,0,0,1-3.52,2,2.41,2.41,0,0,0,3.47-.56,3.15,3.15,0,0,0,3.45-.4Zm0-6.39a3.3,3.3,0,0,0-1.67-1.29,2,2,0,0,1,3.34,0,3.38,3.38,0,0,0-1.67,1.29"/><path class="cls-4" d="M39.92,34.23a5.17,5.17,0,0,0-4,1.46l-.56-.61c.52-.63,1.22-.86,1.38-1.64a1.11,1.11,0,0,0-.22-1,2.44,2.44,0,0,0,2,.78,1.87,1.87,0,0,0,1.4-1m0,0a1.87,1.87,0,0,0,1.41,1,2.49,2.49,0,0,0,2-.78,1.07,1.07,0,0,0-.22,1c.17.78.87,1,1.37,1.64l-.56.61a5.17,5.17,0,0,0-4-1.45"/><polygon class="cls-4" points="49.69 27.19 50.08 28.38 51.33 28.38 50.31 29.11 50.7 30.28 49.69 29.55 48.69 30.28 49.08 29.11 48.06 28.38 49.31 28.38 49.69 27.19"/><polygon class="cls-4" points="48.39 22.34 48.78 23.52 50.03 23.52 49.02 24.23 49.41 25.44 48.39 24.7 47.39 25.44 47.78 24.23 46.77 23.52 48.02 23.52 48.39 22.34"/><polygon class="cls-4" points="44.84 18.8 45.23 19.97 46.48 19.97 45.47 20.7 45.86 21.89 44.84 21.14 43.84 21.89 44.22 20.7 43.22 19.97 44.47 19.97 44.84 18.8"/><polygon class="cls-4" points="40 17.5 40.39 18.67 41.63 18.67 40.63 19.39 41 20.59 40 19.86 39 20.59 39.38 19.39 38.38 18.67 39.61 18.67 40 17.5"/><polygon class="cls-4" points="35.16 18.8 35.53 19.97 36.78 19.97 35.78 20.7 36.16 21.89 35.16 21.14 34.14 21.89 34.53 20.7 33.52 19.97 34.77 19.97 35.16 18.8"/><polygon class="cls-4" points="31.61 22.34 31.98 23.52 33.23 23.52 32.22 24.23 32.61 25.44 31.61 24.7 30.59 25.44 30.98 24.23 29.97 23.52 31.22 23.52 31.61 22.34"/><polygon class="cls-4" points="30.31 27.19 30.69 28.38 31.94 28.38 30.92 29.11 31.31 30.28 30.31 29.55 29.3 30.28 29.69 29.11 28.67 28.38 29.92 28.38 30.31 27.19"/></g></g></svg>