<svg xmlns="http://www.w3.org/2000/svg" viewBox="0 0 80 53.33"><defs><style>.cls-1{fill:#d00027;}.cls-2{fill:#fff;}</style></defs><title>TR</title><g id="Layer_2" data-name="Layer 2"><g id="Capa_1" data-name="Capa 1"><rect class="cls-1" width="80" height="53.33"/><path class="cls-2" d="M23.33,15A11.68,11.68,0,1,1,11.66,26.66,11.67,11.67,0,0,1,23.33,15"/><path class="cls-1" d="M26.25,17.33a9.33,9.33,0,1,1-9.33,9.33,9.33,9.33,0,0,1,9.33-9.33"/><polygon class="cls-2" points="33.19 26.66 38.73 28.45 39.64 25.69 33.19 26.66"/><polygon class="cls-2" points="33.19 26.66 38.73 24.86 39.64 27.64 33.19 26.66"/><polygon class="cls-2" points="37.22 21.11 37.22 26.94 40.14 26.94 37.22 21.11"/><polygon class="cls-2" points="37.22 21.11 40.66 25.83 38.3 27.56 37.22 21.11"/><polygon class="cls-2" points="37.22 32.2 40.66 27.48 38.3 25.77 37.22 32.2"/><polygon class="cls-2" points="37.22 32.2 37.22 26.38 40.14 26.38 37.22 32.2"/><polygon class="cls-2" points="43.75 23.25 38.2 25.05 39.09 27.8 43.75 23.25"/><polygon class="cls-2" points="43.75 23.25 40.31 27.95 37.95 26.23 43.75 23.25"/><polygon class="cls-2" points="43.75 30.08 40.31 25.36 37.95 27.09 43.75 30.08"/><polygon class="cls-2" points="43.75 30.08 38.2 28.28 39.09 25.52 43.75 30.08"/></g></g></svg>