<svg xmlns="http://www.w3.org/2000/svg" viewBox="0 0 80 53.33"><defs><style>.cls-1{fill:#80a7d8;}.cls-2{fill:#f3d02f;}.cls-2,.cls-6{fill-rule:evenodd;}.cls-3{fill:#1b257d;}.cls-4{fill:#fff;}.cls-5,.cls-6{fill:#c0003b;}</style></defs><title>TV</title><g id="Layer_2" data-name="Layer 2"><g id="Capa_1" data-name="Capa 1"><rect class="cls-1" width="80" height="53.33"/><polygon class="cls-2" points="76.8 11.52 74.5 9.94 72.19 11.52 73.08 8.97 70.77 7.41 73.63 7.41 74.5 4.84 75.38 7.41 78.22 7.41 75.92 8.97 76.8 11.52"/><polygon class="cls-2" points="69.66 31.86 67.34 30.28 65.05 31.86 65.92 29.31 63.63 27.73 66.47 27.73 67.34 25.19 68.22 27.73 71.08 27.73 68.77 29.31 69.66 31.86"/><polygon class="cls-2" points="76.8 27.25 74.5 25.67 72.19 27.25 73.08 24.7 70.77 23.13 73.63 23.13 74.5 20.58 75.38 23.13 78.22 23.13 75.92 24.7 76.8 27.25"/><polygon class="cls-2" points="46.06 42 43.75 40.42 41.45 42 42.33 39.45 40.03 37.88 42.88 37.88 43.75 35.33 44.63 37.88 47.48 37.88 45.17 39.45 46.06 42"/><polygon class="cls-2" points="49.67 25.86 51.97 27.44 54.28 25.86 53.39 28.41 55.7 29.98 52.86 29.97 51.97 32.53 51.09 29.97 48.25 29.97 50.56 28.41 49.67 25.86"/><polygon class="cls-2" points="58.08 14.23 60.38 15.81 62.67 14.23 61.8 16.78 64.11 18.36 61.25 18.36 60.38 20.91 59.5 18.36 56.66 18.36 58.95 16.78 58.08 14.23"/><polygon class="cls-2" points="65.13 11.83 67.44 13.41 69.73 11.83 68.86 14.38 71.16 15.94 68.31 15.94 67.44 18.5 66.56 15.94 63.7 15.94 66.02 14.38 65.13 11.83"/><polygon class="cls-2" points="58.08 31.94 60.38 33.52 62.67 31.94 61.8 34.48 64.11 36.06 61.25 36.05 60.38 38.61 59.5 36.05 56.66 36.06 58.95 34.48 58.08 31.94"/><polygon class="cls-2" points="49.67 33.98 51.97 35.56 54.28 33.98 53.39 36.53 55.7 38.11 52.86 38.11 51.97 40.66 51.09 38.11 48.25 38.11 50.56 36.53 49.67 33.98"/><rect class="cls-3" width="40" height="20"/><polygon class="cls-4" points="35.53 0 0 17.77 0 20 4.47 20 40 2.23 40 0 35.53 0"/><polygon class="cls-4" points="0 0 0 2.23 35.53 20 40 20 40 17.77 4.47 0 0 0"/><polygon class="cls-4" points="16.67 0 16.67 6.66 0 6.66 0 13.33 16.67 13.33 16.67 20 23.33 20 23.33 13.33 40 13.33 40 6.66 23.33 6.66 23.33 0 16.67 0"/><polygon class="cls-5" points="18 0 18 8 0 8 0 12 18 12 18 20 22 20 22 12 40 12 40 8 22 8 22 0 18 0"/><polygon class="cls-6" points="23.69 6.66 26.67 6.66 40 0 37.02 0 23.69 6.66"/><polygon class="cls-5" points="0 1.48 10.36 6.66 13.33 6.66 0 0 0 1.48"/><polygon class="cls-6" points="40 20 40 18.5 29.64 13.33 26.67 13.33 40 20"/><polygon class="cls-5" points="13.33 13.33 0 20 2.98 20 16.31 13.33 13.33 13.33"/></g></g></svg>