<svg xmlns="http://www.w3.org/2000/svg" viewBox="0 0 80 53.38"><defs><style>.cls-1{fill:#d10e2f;}.cls-2{fill:#1c2666;}.cls-3{fill:#fff;}</style></defs><title>TW</title><g id="Layer_2" data-name="Layer 2"><g id="Capa_1" data-name="Capa 1"><rect class="cls-1" width="80" height="53.38"/><rect class="cls-2" width="37.4" height="26.68"/><path class="cls-3" d="M21.19,13.34l-2.5,9.35L16.2,13.34,18.69,4m0,11.85L28,13.36l-9.35-2.49L9.35,13.36"/><path class="cls-3" d="M20.85,14.59,14,21.44l2.52-9.35,6.84-6.85M17.44,15.52,26.79,18,19.94,11.2,10.6,8.68"/><path class="cls-3" d="M20,15.52,10.6,18l6.84-6.83,9.35-2.52M16.55,14.59l6.83,6.85-2.52-9.35L14,5.24"/><path class="cls-2" d="M18.69,8.05a5.29,5.29,0,1,1-5.29,5.29,5.3,5.3,0,0,1,5.29-5.29"/><path class="cls-3" d="M18.69,8.66A4.68,4.68,0,1,1,14,13.34a4.67,4.67,0,0,1,4.68-4.68"/></g></g></svg>