<svg xmlns="http://www.w3.org/2000/svg" viewBox="0 0 80 53.33"><defs><style>.cls-1{fill:#ffda44;}.cls-2{fill:#d80027;}.cls-3{fill:#f0f0f0;}</style></defs><title>UG</title><g id="Layer_2" data-name="Layer 2"><g id="Capa_1" data-name="Capa 1"><rect width="80" height="53.33"/><rect class="cls-1" y="8.89" width="80" height="8.89"/><rect class="cls-2" y="17.78" width="80" height="8.89"/><rect class="cls-1" y="35.56" width="80" height="8.89"/><rect class="cls-2" y="44.44" width="80" height="8.89"/><circle class="cls-3" cx="40" cy="26.67" r="8.91"/><path d="M43.27,27.13,40,25.72s.77-2.53.8-2.7a1.78,1.78,0,0,0,0-.39,1.67,1.67,0,0,0-.51-1.24l.81-.81a2.89,2.89,0,0,0-4.09,0l.81.81a1.76,1.76,0,0,0-.52,1.24,1.69,1.69,0,0,0,.08.5l-1.23,1.23h2.25A22.64,22.64,0,0,0,37,26.89,2.34,2.34,0,0,0,38.17,30l.67.3L40,31.31v1.16l-1.16,1.15h2.32V31.31l1.06-1.06h2.19s0-.05,0-.06A2.28,2.28,0,0,0,43.27,27.13Z"/></g></g></svg>