<svg xmlns="http://www.w3.org/2000/svg" viewBox="0 0 80 53.2"><defs><style>.cls-1{fill:none;}.cls-2{fill:#bc0030;}.cls-3{fill:#fff;}.cls-4{fill:#50b63f;}.cls-5{fill:#4497b1;}</style></defs><title>UZ</title><g id="Layer_2" data-name="Layer 2"><g id="Capa_1" data-name="Capa 1"><polygon class="cls-1" points="22.89 7.23 22.61 8.11 21.69 8.11 22.45 8.65 22.16 9.53 22.91 8.99 23.66 9.53 23.36 8.65 24.13 8.11 23.2 8.11 22.89 7.23"/><polygon class="cls-1" points="28.3 13.22 28.02 12.34 27.72 13.22 26.8 13.22 27.55 13.76 27.27 14.64 28.01 14.1 28.75 14.64 28.47 13.76 29.22 13.22 28.3 13.22"/><polygon class="cls-1" points="28.02 7.23 27.72 8.11 26.8 8.11 27.55 8.64 27.27 9.53 28.01 8.99 28.75 9.53 28.47 8.64 29.22 8.11 28.3 8.11 28.02 7.23"/><polygon class="cls-1" points="18.1 13.22 17.81 12.34 17.52 13.22 16.59 13.22 17.35 13.76 17.06 14.64 17.8 14.1 18.55 14.64 18.26 13.76 19.02 13.22 18.1 13.22"/><polygon class="cls-1" points="23.2 13.22 22.89 12.34 22.61 13.22 21.69 13.22 22.45 13.76 22.16 14.64 22.91 14.1 23.66 14.64 23.36 13.76 24.13 13.22 23.2 13.22"/><path class="cls-1" d="M9.38,8.5A5.33,5.33,0,0,1,14.7,3.17a6.31,6.31,0,0,1,.76.08,6.3,6.3,0,0,0-3.6-1.12,6.38,6.38,0,1,0,3.61,11.62,4.78,4.78,0,0,1-.77.08A5.33,5.33,0,0,1,9.38,8.5Z"/><polygon class="cls-1" points="28.02 2.13 27.71 3.02 26.8 3.02 27.55 3.55 27.27 4.44 28.01 3.9 28.75 4.44 28.47 3.55 29.22 3.02 28.3 3.02 28.02 2.13"/><polygon class="cls-1" points="38.52 13.22 38.23 12.34 37.95 13.22 37 13.22 37.77 13.76 37.48 14.64 38.23 14.1 38.98 14.64 38.69 13.75 39.44 13.22 38.52 13.22"/><polygon class="cls-1" points="38.23 2.13 37.95 3.02 37 3.02 37.76 3.56 37.48 4.44 38.23 3.9 38.98 4.44 38.69 3.55 39.44 3.02 38.52 3.02 38.23 2.13"/><polygon class="cls-1" points="33.41 13.22 33.13 12.34 32.84 13.22 31.91 13.22 32.66 13.76 32.38 14.64 33.12 14.1 33.86 14.64 33.58 13.76 34.33 13.22 33.41 13.22"/><polygon class="cls-1" points="38.23 7.23 37.95 8.11 37 8.11 37.77 8.65 37.48 9.53 38.23 8.99 38.98 9.53 38.69 8.64 39.44 8.11 38.52 8.11 38.23 7.23"/><polygon class="cls-1" points="33.13 2.13 32.84 3.02 31.91 3.02 32.66 3.55 32.38 4.44 33.12 3.9 33.86 4.44 33.58 3.55 34.33 3.02 33.41 3.02 33.13 2.13"/><polygon class="cls-1" points="33.13 7.23 32.84 8.11 31.91 8.11 32.66 8.64 32.38 9.53 33.12 8.99 33.86 9.53 33.58 8.64 34.33 8.11 33.41 8.11 33.13 7.23"/><rect class="cls-2" y="17.03" width="80" height="1.03"/><rect class="cls-3" y="18.08" width="80" height="17.02"/><rect class="cls-2" y="35.11" width="80" height="1.05"/><rect class="cls-2" y="35.09" width="80" height="0.02"/><rect class="cls-4" y="36.17" width="80" height="17.03"/><path class="cls-5" d="M0,0V17H80V0ZM11.86,14.88a6.38,6.38,0,1,1,0-12.75,6.3,6.3,0,0,1,3.6,1.12,6.31,6.31,0,0,0-.76-.08,5.33,5.33,0,0,0,0,10.66,4.78,4.78,0,0,0,.77-.08A6.31,6.31,0,0,1,11.86,14.88Zm6.69-.24-.75-.54-.74.54.29-.89-.76-.53h.93l.29-.88.29.88H19l-.76.53Zm5.11,0-.75-.54-.75.54.29-.88-.76-.54h.92l.28-.88.31.88h.93l-.77.54Zm-.3-6,.3.88L22.91,9l-.75.54.29-.88-.76-.54h.92l.28-.88.31.88h.93Zm5.39,6L28,14.1l-.74.54.28-.89-.75-.53h.92l.3-.88.28.88h.92l-.75.53Zm-.28-6,.28.88L28,9l-.74.54.28-.88-.75-.54h.92l.3-.88.28.88h.92Zm0-5.1.28.89L28,3.9l-.74.54.28-.89L26.8,3h.91L28,2.13,28.3,3h.92Zm5.39,11.09-.74-.54-.74.54.28-.89-.75-.53h.93l.29-.88.28.88h.92l-.75.53Zm-.28-6,.28.88L33.12,9l-.74.54.28-.88-.75-.54h.93l.29-.88.28.88h.92Zm0-5.1.28.89-.74-.54-.74.54.28-.89L31.91,3h.93l.29-.89.28.89h.92ZM39,14.64l-.75-.54-.75.54.29-.88L37,13.22h1l.28-.88.29.88h.92l-.75.53Zm-.29-6,.29.89L38.23,9l-.75.54.29-.88L37,8.11h1l.28-.88.29.88h.92Zm0-5.09.29.89-.75-.54-.75.54.28-.88L37,3h1l.28-.89.29.89h.92Z"/><rect class="cls-5" y="17" width="80" height="0.03"/></g></g></svg>