<svg xmlns="http://www.w3.org/2000/svg" viewBox="0 0 80 53.33"><defs><style>.cls-1{fill:#eed12f;}.cls-2{fill:#242ea7;}.cls-3{fill:#bd0034;}.cls-4{fill:#fff;}</style></defs><title>VE</title><g id="Layer_2" data-name="Layer 2"><g id="Capa_1" data-name="Capa 1"><rect class="cls-1" width="80" height="17.78"/><rect class="cls-2" y="17.77" width="80" height="17.78"/><rect class="cls-3" y="35.55" width="80" height="17.78"/><polygon class="cls-4" points="36.02 24.11 36.73 19.03 39.13 23.55 34.53 21.31 39.58 20.42 36.02 24.11"/><polygon class="cls-4" points="40.88 23.55 43.27 19.03 43.98 24.11 40.42 20.42 45.47 21.31 40.88 23.55"/><polygon class="cls-4" points="31.66 26.27 30.59 21.27 34.39 24.69 29.31 24.16 33.73 21.61 31.66 26.27"/><polygon class="cls-4" points="45.61 24.69 49.41 21.27 48.34 26.27 46.27 21.61 50.69 24.16 45.61 24.69"/><polygon class="cls-4" points="28.31 29.8 25.59 25.48 30.33 27.39 25.38 28.63 28.66 24.7 28.31 29.8"/><polygon class="cls-4" points="49.67 27.39 54.41 25.48 51.69 29.8 51.34 24.7 54.63 28.63 49.67 27.39"/><polygon class="cls-4" points="26.34 34.28 22.33 31.14 27.44 31.31 23.2 34.17 24.95 29.38 26.34 34.28"/><polygon class="cls-4" points="52.56 31.31 57.67 31.14 53.66 34.28 55.05 29.38 56.8 34.17 52.56 31.31"/></g></g></svg>