<svg xmlns="http://www.w3.org/2000/svg" viewBox="0 0 80 53.43"><defs><style>.cls-1{fill:#c0003b;}.cls-2{fill:#3d9546;}.cls-3{fill:#f5cd28;}.cls-4{fill:#f3cd2d;}</style></defs><title>VU</title><g id="Layer_2" data-name="Layer 2"><g id="Capa_1" data-name="Capa 1"><rect class="cls-1" width="80" height="26.71"/><rect class="cls-2" y="26.7" width="80" height="26.71"/><polygon points="0 0 0 53.43 51.82 26.7 0 0"/><rect y="21.93" width="80" height="9.57"/><polygon class="cls-3" points="0 49.61 44.45 26.7 0 3.79 0 49.61"/><rect class="cls-3" y="25.29" width="80" height="2.82"/><polygon points="0 46.45 38.3 26.7 0 6.96 0 46.45"/><path class="cls-4" d="M10.82,31.81v3c2.65,0,7.85-2,7.85-8.57a7.34,7.34,0,0,0-7.21-7.75c-1.65,0-6.77,1.18-6.77,6.53s5,5.85,6,5.85S15.41,30,15,26a4,4,0,0,1-4,3.53,4.14,4.14,0,0,1-4.36-4,4.66,4.66,0,0,1,4.47-4.63A5.07,5.07,0,0,1,16,26c0,2.53-2,5.78-5.18,5.78Z"/><path class="cls-4" d="M8.49,27.86l.16.1a11.93,11.93,0,0,1,4.61-4.87,12.09,12.09,0,0,0-4.77,4.77Z"/><path class="cls-4" d="M8.68,28l-.2-.13a12.76,12.76,0,0,1,4.72-4.85h0a12.35,12.35,0,0,0-1.83,1.35,12.4,12.4,0,0,1,1.83-1.35l.09.05A12.1,12.1,0,0,0,8.7,28l0,.07Zm1-1.83a16,16,0,0,0-1.16,1.66h.09A11.36,11.36,0,0,1,9.7,26.2Z"/><path class="cls-4" d="M8.82,27.37s-.39-.8-.05-1.14.18.92.18.92l.14-.22s-.24-1,0-1.17.12.92.12.92l.16-.2s-.16-1,.09-1.13.1.89.1.89L9.76,26s-.14-.9.16-1.12,0,.87,0,.87l.2-.22s-.09-.83.16-1,0,.78,0,.78l.17-.2s0-.77.2-1,0,.74,0,.74l.2-.17s0-.77.27-.91,0,.74,0,.74l.22-.18s.08-.89.34-1-.12.8-.12.8l.2-.16s.11-.77.39-.86-.17.7-.17.7l.21-.14s.21-.76.5-.86-.29.72-.29.72l.18-.12s.29-.71.54-.74-.28.58-.28.58l.24-.14s.39-.72.53-.5-.55.55-.55.55l-.23.12s.84-.39,1-.2-1.16.34-1.16.34l-.2.14s.84-.23.73,0-.92.15-.92.15l-.2.14s.84-.2.73,0-.92.17-.92.17l-.2.16s.83-.22.7,0-1,.23-1,.23l-.23.22s.87-.3.8-.08-1.08.36-1.08.36l-.24.22s.93-.33.66,0a2,2,0,0,1-1,.36l-.27.33s.92-.55.8-.25-1,.53-1,.53l-.18.24s.85-.49.75-.22-1,.54-1,.54l-.14.21s1-.6.89-.28-1,.5-1,.5L9,27.31s.91-.52.91-.27-1.08.5-1.08.5Z"/><path class="cls-4" d="M13.84,27.86l-.15.1a12,12,0,0,0-4.62-4.87,11.83,11.83,0,0,1,4.77,4.77Z"/><path class="cls-4" d="M13.67,28l0-.05a12.06,12.06,0,0,0-4.59-4.86l0,0h0l0,0s0,0,0,0h0a13,13,0,0,1,4.74,4.77l-.2.17Zm-1.33-2.21a9.78,9.78,0,0,1,1.36,2.07l.11-.08a17,17,0,0,0-1.47-2Z"/><path class="cls-4" d="M13.53,27.37s.39-.8.05-1.14-.18.92-.18.92l-.14-.22s.24-1,0-1.17-.12.92-.12.92l-.16-.2s.16-1-.09-1.13-.1.89-.1.89L12.59,26s.14-.9-.16-1.12,0,.87,0,.87l-.2-.22s.09-.83-.16-1,0,.78,0,.78l-.17-.2s.05-.77-.2-1,0,.74,0,.74l-.2-.17s0-.77-.27-.91,0,.74,0,.74L11,24.38s-.08-.89-.34-1,.12.8.12.8l-.2-.16s-.11-.77-.39-.86.17.7.17.7l-.21-.14s-.21-.76-.5-.86.29.72.29.72l-.18-.12s-.29-.71-.54-.74.28.58.28.58l-.24-.14s-.39-.72-.53-.5.55.55.55.55l.23.12s-.84-.39-1-.2,1.16.34,1.16.34l.2.14s-.84-.23-.73,0,.92.15.92.15l.2.14s-.84-.2-.73,0,.92.17.92.17l.2.16s-.83-.22-.7,0,1,.23,1,.23l.23.22s-.87-.3-.8-.08,1.08.36,1.08.36l.24.22s-.93-.33-.66,0a2,2,0,0,0,1,.36l.27.33s-.92-.55-.8-.25,1,.53,1,.53l.18.24s-.85-.49-.75-.22,1,.54,1,.54l.14.21s-1-.6-.89-.28,1,.5,1,.5l.13.17s-.91-.52-.91-.27,1.08.5,1.08.5Z"/></g></g></svg>