<svg xmlns="http://www.w3.org/2000/svg" viewBox="0 0 80 53.33"><defs><style>.cls-1{fill:#bd1f34;}.cls-2{fill:#2b3379;}.cls-3{fill:#fff;}</style></defs><title>WS</title><g id="Layer_2" data-name="Layer 2"><g id="Capa_1" data-name="Capa 1"><rect class="cls-1" width="80" height="53.33"/><rect class="cls-2" width="42.73" height="21.38"/><polygon class="cls-3" points="21.38 14.83 23.2 20.47 18.41 16.98 24.34 16.98 19.53 20.47 21.38 14.83"/><polygon class="cls-3" points="14.84 6.22 16.31 10.75 12.47 7.95 17.22 7.95 13.38 10.75 14.84 6.22"/><polygon class="cls-3" points="28.05 5.33 29.42 9.58 25.83 6.95 30.28 6.95 26.67 9.58 28.05 5.33"/><polygon class="cls-3" points="21.38 0.88 22.84 5.41 19 2.61 23.75 2.61 19.91 5.41 21.38 0.88"/><polygon class="cls-3" points="24.64 10.83 25.55 13.64 23.16 11.91 26.13 11.91 23.72 13.64 24.64 10.83"/></g></g></svg>