<svg xmlns="http://www.w3.org/2000/svg" viewBox="0 0 80 53.33"><defs><style>.cls-1{fill:#f0f0f0;}.cls-2{fill:#ffda44;}.cls-3{fill:#6da544;}.cls-4{fill:#0052b4;}.cls-5{fill:#d80027;}</style></defs><title>ZA</title><g id="Layer_2" data-name="Layer 2"><g id="Capa_1" data-name="Capa 1"><rect class="cls-1" width="80" height="53.33"/><polygon points="17.81 26.67 0 8.84 0 44.5 17.81 26.67"/><polygon class="cls-2" points="25.19 26.67 0 1.47 0 8.84 17.81 26.67 0 44.5 0 51.86 25.19 26.67"/><path class="cls-3" d="M79.66,31.89h0c0-.06.12-.14.34-.2V21.45H34.78L13.33,0H0V1.47l25.19,25.2L0,51.86v1.47H13.33L34.78,31.87H79.66Z"/><polygon class="cls-4" points="78.63 37.09 36.94 37.09 20.72 53.33 80 53.33 80 37.09 78.63 37.09"/><polygon class="cls-5" points="78.63 16.23 80 16.23 80 0 20.72 0 36.94 16.23 78.63 16.23"/></g></g></svg>