<svg xmlns="http://www.w3.org/2000/svg" viewBox="0 0 80 53.34"><defs><style>.cls-1{fill:#496e2d;}.cls-2{fill:#ff9811;}.cls-3{fill:#d80027;}</style></defs><title>ZM</title><g id="Layer_2" data-name="Layer 2"><g id="Capa_1" data-name="Capa 1"><rect class="cls-1" width="80" height="53.33"/><path class="cls-2" d="M76.67,17.2h-7.5a2.5,2.5,0,0,0-5,0h-7.5a2.58,2.58,0,0,0,2.58,2.5h-.08a2.51,2.51,0,0,0,2.5,2.5,2.51,2.51,0,0,0,2.5,2.5h5a2.5,2.5,0,0,0,2.5-2.5,2.5,2.5,0,0,0,2.5-2.5h-.08A2.56,2.56,0,0,0,76.67,17.2Z"/><rect class="cls-3" x="53.33" y="26.67" width="8.89" height="26.67"/><rect class="cls-2" x="71.11" y="26.67" width="8.89" height="26.67"/><rect x="62.22" y="26.67" width="8.89" height="26.67"/></g></g></svg>