<svg xmlns="http://www.w3.org/2000/svg" viewBox="0 0 80 53.33"><defs><style>.cls-1{fill:#ffda44;}.cls-2{fill:#6da544;}.cls-3{fill:#d80027;}.cls-4{fill:#f0f0f0;}</style></defs><title>ZW</title><g id="Layer_2" data-name="Layer 2"><g id="Capa_1" data-name="Capa 1"><rect width="80" height="53.33"/><rect class="cls-1" y="7.64" width="80" height="7.64"/><rect class="cls-1" y="38.17" width="80" height="7.64"/><rect class="cls-2" width="80" height="7.64"/><rect class="cls-3" y="15.27" width="80" height="7.64"/><rect class="cls-3" y="30.55" width="80" height="7.64"/><rect class="cls-2" y="45.81" width="80" height="7.52"/><polygon class="cls-4" points="43.28 26.67 16.61 53.33 0 53.33 0 0 16.61 0 43.28 26.67"/><polygon points="40 26.67 13.33 53.33 16.61 53.33 43.28 26.67 16.61 0 13.33 0 40 26.67"/><polygon class="cls-3" points="16.02 18.31 18.08 24.7 24.78 24.7 19.36 28.64 21.44 35.02 16.02 31.08 10.58 35.02 12.66 28.64 7.23 24.7 13.94 24.7 16.02 18.31"/><path class="cls-1" d="M21.7,27.19l-5.4-1.91s-.41-3.75-.43-3.87a2.09,2.09,0,0,0-4.14.39,2.43,2.43,0,0,0,.08.54L10.3,23.88H13c0,2.79-2.07,2.79-2.07,5.57l1.15,2.78h7l1.15-2.78h0a3,3,0,0,0,.22-.81A2.38,2.38,0,0,0,21.7,27.19Z"/></g></g></svg>