<?xml version="1.0" encoding="utf-8"?>
<!-- Generator: Adobe Illustrator 24.0.2, SVG Export Plug-In . SVG Version: 6.00 Build 0)  -->
<svg version="1.1" id="Layer_1" xmlns="http://www.w3.org/2000/svg" xmlns:xlink="http://www.w3.org/1999/xlink" x="0px" y="0px"
	 viewBox="0 0 128 56.1" style="enable-background:new 0 0 128 56.1;" xml:space="preserve">
<style type="text/css">
	.st0{fill:#2A2A2A;}
</style>
<g id="Train">
</g>
<g id="Taxi">
</g>
<g id="Truk">
</g>
<g id="Cruise">
</g>
<g id="Railway">
</g>
<g id="Trem">
</g>
<g id="Bus">
</g>
<g id="Yatch">
</g>
<g id="pLANE">
</g>
<g id="Bicycle">
</g>
<g id="Halte">
</g>
<g id="Bus_Stop">
</g>
<g id="Station">
</g>
<g id="Airport">
</g>
<g>
	<g id="Car">
		<path class="st0" d="M122.1,18.3h-5.5l-4.5-8.9c-3-5.6-9.3-9.4-16.3-9.4H57.9c-4.6,0-9.1,1.7-12.5,4.6L29.7,18.4l-17,3.1
			C5.3,22.8,0,29.3,0,36.7v4.4c0,3,2.4,5.3,5.3,5.3h12.1c1.3,5.6,6.3,9.7,12.2,9.7s11-4.1,12.2-9.7h49.5c1.3,5.6,6.3,9.7,12.2,9.7
			c5.9,0,11-4.1,12.2-9.7h10.7c0.8,0,1.4-0.6,1.4-1.4V24.5C128.1,21.1,125.5,18.3,122.1,18.3z M29.8,53.4c-4.9,0-9.1-3.7-9.7-8.6
			c0-0.4-0.1-0.8-0.1-1.3c0-5.3,4.4-9.7,9.7-9.7s9.7,4.4,9.7,9.7c0,0.4,0,0.8-0.1,1.3C38.8,49.8,34.6,53.4,29.8,53.4z M103.8,53.4
			c-4.9,0-9-3.7-9.7-8.6c0-0.4-0.1-0.8-0.1-1.3c0-5.3,4.4-9.7,9.7-9.7c4.4,0,8,3,9.3,6.9c0.3,1,0.4,1.8,0.4,3c0,0.4,0,0.8-0.1,1.3
			C112.8,49.8,108.6,53.4,103.8,53.4z M125.3,43.6h-9c0-6.9-5.6-12.5-12.5-12.5c-6.9,0-12.5,5.6-12.5,12.5H42.3
			c0-6.9-5.6-12.5-12.5-12.5s-12.5,5.6-12.5,12.5H5.6c-1.4,0-2.5-1.1-2.5-2.5v-4.4c0-6,4.4-11.4,10.4-12.4l17.2-3.2
			c0.1,0,0.3-0.1,0.4-0.1l0,0l56.8,0.1l0,0c4.5,0,9-1.1,12.9-3.1l7-3.5l-1.3-2.5l-7,3.5c-3.7,1.8-7.6,2.8-11.7,2.8h-9V9.8h-2.8v8.4
			H34.3L47.4,6.8c2.8-2.5,6.8-3.9,10.7-3.9h37.7c5.9,0,11.4,3.1,13.8,7.9l4.9,9.7c0.3,0.4,0.7,0.7,1.3,0.7h6.3
			c1.8,0,3.2,1.4,3.2,3.2C125.3,24.3,125.3,43.6,125.3,43.6z"/>
	</g>
	<g id="Layer_17">
	</g>
</g>
</svg>
