<svg width="16" height="17" viewBox="0 0 16 17" fill="none" xmlns="http://www.w3.org/2000/svg">
<path d="M10.0284 1.00115C8.8904 1.00207 7.78868 1.4048 6.91483 2.13931C6.04099 2.87382 5.45029 3.89365 5.24544 5.02147C4.64648 5.34704 4.13568 5.81531 3.75761 6.38544C3.37953 6.95558 3.14567 7.61026 3.07642 8.29237C2.55901 8.52167 2.10491 8.87463 1.75348 9.32067C1.40205 9.76671 1.16389 10.2924 1.05963 10.8521C0.95538 11.4118 0.988184 11.9887 1.1552 12.5327C1.32222 13.0768 1.61841 13.5716 2.0181 13.9743C2.41779 14.377 2.90893 14.6754 3.44894 14.8436C3.98896 15.0119 4.56155 15.045 5.11711 14.9399C5.67266 14.8349 6.19441 14.5949 6.63713 14.2409C7.07986 13.8868 7.4302 13.4293 7.65779 12.908C8.33283 12.8405 8.98133 12.608 9.54706 12.2309C10.1128 11.8538 10.5787 11.3433 10.9044 10.7438C12.1216 10.5471 13.2194 9.89222 13.9759 8.91156C14.7325 7.9309 15.0914 6.69751 14.9801 5.46054C14.8689 4.22357 14.2959 3.07523 13.3768 2.24749C12.4576 1.41975 11.2609 0.974308 10.0284 1.00115ZM6.55242 11.8084C6.55242 11.8784 6.55242 11.9485 6.50376 12.0255C6.41396 12.386 6.23086 12.7161 5.97313 12.982C5.7154 13.2479 5.39227 13.4402 5.03669 13.5393C4.68112 13.6383 4.30583 13.6406 3.94911 13.5458C3.59239 13.4511 3.267 13.2627 3.00614 12.9999C2.74528 12.737 2.55828 12.4092 2.46421 12.0498C2.37015 11.6904 2.37239 11.3123 2.47071 10.9541C2.56902 10.5959 2.75989 10.2703 3.02385 10.0107C3.28781 9.751 3.61541 9.56652 3.97323 9.47605L4.16788 9.40601C4.49433 9.34455 4.83073 9.36417 5.14797 9.46315C5.46521 9.56214 5.75372 9.73751 5.98856 9.9741C6.22339 10.2107 6.39746 10.5014 6.49571 10.821C6.59396 11.1406 6.61342 11.4795 6.55242 11.8084ZM10.0284 9.23792C10.0193 9.28288 10.0076 9.3273 9.99367 9.37099C9.96381 9.49989 9.9243 9.62633 9.87548 9.74921C9.71543 10.1581 9.46212 10.5233 9.13604 10.8153C8.80996 11.1074 8.42026 11.318 7.99844 11.4302C7.99844 11.3041 7.99844 11.185 7.95673 11.059C7.91502 10.9329 7.95673 10.8699 7.95673 10.7788C7.95673 10.6878 7.8733 10.5127 7.83159 10.3796C7.78988 10.2465 7.78293 10.2115 7.74817 10.1274C7.68824 9.99398 7.61853 9.86522 7.53961 9.74221C7.53961 9.67917 7.47704 9.60913 7.43533 9.54609C7.31168 9.36349 7.17208 9.19238 7.01821 9.0348L6.87917 8.91573C6.76263 8.80778 6.63958 8.70719 6.51071 8.61455C6.43497 8.56491 6.356 8.52045 6.27434 8.48148C6.16307 8.41022 6.04691 8.34702 5.92674 8.29237C5.83695 8.25367 5.74388 8.22319 5.64866 8.20131C5.53162 8.15346 5.41066 8.11596 5.28716 8.08925C5.18983 8.08925 5.08555 8.08925 4.98127 8.04723L4.5572 8.0052C4.66786 7.58094 4.87586 7.18879 5.16445 6.86033C5.45305 6.53186 5.81416 6.27626 6.21873 6.11411C6.33796 6.06394 6.46123 6.0241 6.58718 5.99504L6.72622 5.96002C6.8977 5.92369 7.07239 5.90491 7.24762 5.90398C7.98514 5.90398 8.69245 6.19915 9.21395 6.72456C9.73545 7.24997 10.0284 7.96257 10.0284 8.70561C10.0275 8.88446 10.0089 9.06278 9.97281 9.23792H10.0284ZM11.4188 9.12585C11.4188 8.98577 11.4188 8.84569 11.4188 8.70561C11.4188 7.59105 10.9794 6.52215 10.1971 5.73404C9.41486 4.94593 8.3539 4.50317 7.24762 4.50317C7.10858 4.50317 6.96954 4.50317 6.8305 4.50317C7.05965 3.98386 7.41081 3.52853 7.85366 3.1765C8.29651 2.82447 8.81775 2.58631 9.37237 2.48259C9.927 2.37886 10.4983 2.41269 11.0371 2.58115C11.5758 2.7496 12.0658 3.04763 12.4647 3.44949C12.8636 3.85135 13.1594 4.34498 13.3266 4.88776C13.4938 5.43055 13.5274 6.00617 13.4244 6.56495C13.3214 7.12372 13.0851 7.64886 12.7356 8.09503C12.3862 8.54119 11.9343 8.89498 11.4188 9.12585Z" fill="#24272C" fill-opacity="0.7"/>
</svg>
