<svg width="50" height="39" viewBox="0 0 50 39" fill="none" xmlns="http://www.w3.org/2000/svg">
<path d="M0.538462 0H49.3846C49.7692 0 50 0.110809 50 0.277023V3.71211C50 3.87832 49.7692 3.98913 49.4615 3.98913H0.538462C0.230769 4.04454 0 3.87832 0 3.71211V0.277023C0 0.110809 0.230769 0 0.538462 0Z" fill="white"/>
<path d="M0.769231 17.2307H49.2308C49.6923 17.2307 50 17.3418 50 17.5085V20.9529C50 21.1196 49.6154 21.2307 49.2308 21.2307H0.769231C0.307692 21.2307 0 21.1196 0 20.9529V17.5085C0 17.3974 0.384615 17.2307 0.769231 17.2307Z" fill="white"/>
<path d="M0.538462 34.3845H49.3846C49.6923 34.3845 49.9231 34.4952 49.9231 34.6613V38.0933C49.9231 38.2594 49.6923 38.3701 49.3846 38.3701H0.538462C0.230769 38.4255 0 38.3148 0 38.1487V34.7167C0 34.5506 0.230769 34.3845 0.538462 34.3845Z" fill="white"/>
</svg>
