<svg width="16" height="16" viewBox="0 0 16 16" fill="none" xmlns="http://www.w3.org/2000/svg">
<path d="M9.18916 8.38335C9.2163 8.48768 9.23083 8.59733 9.23083 8.7105C9.23083 9.40815 8.67981 9.97366 8.00006 9.97366C7.3203 9.97366 6.76929 9.40815 6.76929 8.7105C6.76929 8.01286 7.3203 7.44735 8.00006 7.44735C8.11033 7.44735 8.21716 7.46225 8.31883 7.4901L10.4111 5.36918C10.6514 5.12255 11.041 5.12255 11.2813 5.36918C11.5217 5.61581 11.5217 6.01573 11.2813 6.26236L9.18916 8.38335Z" fill="#24272C" fill-opacity="0.7"/>
<path fill-rule="evenodd" clip-rule="evenodd" d="M8 0.5C3.58172 0.5 0 4.17598 0 8.71053C0 9.7748 0.197612 10.7932 0.557791 11.7281C0.746018 12.2167 1.20605 12.5 1.67964 12.5H14.3204C14.794 12.5 15.254 12.2167 15.4422 11.7281C15.8024 10.7932 16 9.7748 16 8.71053C16 4.17598 12.4183 0.5 8 0.5ZM1.23077 8.71053C1.23077 4.87362 4.26146 1.76316 8 1.76316C11.7385 1.76316 14.7692 4.87362 14.7692 8.71053C14.7692 9.60295 14.6056 10.4547 14.3079 11.2368H1.69206C1.39442 10.4547 1.23077 9.60295 1.23077 8.71053Z" fill="#24272C" fill-opacity="0.7"/>
</svg>
