<svg width="16" height="17" viewBox="0 0 16 17" fill="none" xmlns="http://www.w3.org/2000/svg">
<path fill-rule="evenodd" clip-rule="evenodd" d="M10.4 1.90002C10.7314 1.90002 11 2.16865 11 2.50002V3.10002H12.2C13.1941 3.10002 14 3.90591 14 4.90002V7.30002V13.3C14 14.2941 13.1941 15.1 12.2 15.1H3.8C2.80589 15.1 2 14.2941 2 13.3V7.30002V4.90002C2 3.90591 2.80589 3.10002 3.8 3.10002H5V2.50002C5 2.16865 5.26863 1.90002 5.6 1.90002C5.93137 1.90002 6.2 2.16865 6.2 2.50002V3.10002H9.8V2.50002C9.8 2.16865 10.0686 1.90002 10.4 1.90002ZM5 4.30002V4.90002C5 5.2314 5.26863 5.50002 5.6 5.50002C5.93137 5.50002 6.2 5.2314 6.2 4.90002V4.30002H9.8V4.90002C9.8 5.2314 10.0686 5.50002 10.4 5.50002C10.7314 5.50002 11 5.2314 11 4.90002V4.30002H12.2C12.5314 4.30002 12.8 4.56865 12.8 4.90002V6.70002H3.2V4.90002C3.2 4.56865 3.46863 4.30002 3.8 4.30002H5ZM12.8 7.90002V13.3C12.8 13.6314 12.5314 13.9 12.2 13.9H3.8C3.46863 13.9 3.2 13.6314 3.2 13.3V7.90002H12.8Z" fill="#24272C" fill-opacity="0.7"/>
</svg>
