<svg width="16" height="17" viewBox="0 0 16 17" fill="none" xmlns="http://www.w3.org/2000/svg">
<g opacity="0.7">
<path d="M2.55556 5.5C3.41467 5.5 4.11111 4.82843 4.11111 4C4.11111 3.17157 3.41467 2.5 2.55556 2.5C1.69645 2.5 1 3.17157 1 4C1 4.82843 1.69645 5.5 2.55556 5.5Z" stroke="#24272C" stroke-width="1.2" stroke-linecap="round" stroke-linejoin="round"/>
<path d="M8.00001 5.5C8.85912 5.5 9.55557 4.82843 9.55557 4C9.55557 3.17157 8.85912 2.5 8.00001 2.5C7.1409 2.5 6.44446 3.17157 6.44446 4C6.44446 4.82843 7.1409 5.5 8.00001 5.5Z" stroke="#24272C" stroke-width="1.2" stroke-linecap="round" stroke-linejoin="round"/>
<path d="M13.4445 5.5C14.3036 5.5 15 4.82843 15 4C15 3.17157 14.3036 2.5 13.4445 2.5C12.5854 2.5 11.8889 3.17157 11.8889 4C11.8889 4.82843 12.5854 5.5 13.4445 5.5Z" stroke="#24272C" stroke-width="1.2" stroke-linecap="round" stroke-linejoin="round"/>
<path d="M2.55556 14.5C3.41467 14.5 4.11111 13.8284 4.11111 13C4.11111 12.1716 3.41467 11.5 2.55556 11.5C1.69645 11.5 1 12.1716 1 13C1 13.8284 1.69645 14.5 2.55556 14.5Z" stroke="#24272C" stroke-width="1.2" stroke-linecap="round" stroke-linejoin="round"/>
<path d="M8.00001 14.5C8.85912 14.5 9.55557 13.8284 9.55557 13C9.55557 12.1716 8.85912 11.5 8.00001 11.5C7.1409 11.5 6.44446 12.1716 6.44446 13C6.44446 13.8284 7.1409 14.5 8.00001 14.5Z" stroke="#24272C" stroke-width="1.2" stroke-linecap="round" stroke-linejoin="round"/>
<path d="M2.55554 5.5V11.5" stroke="#24272C" stroke-width="1.2" stroke-linecap="round" stroke-linejoin="round"/>
<path d="M8 5.5V11.5" stroke="#24272C" stroke-width="1.2" stroke-linecap="round" stroke-linejoin="round"/>
<path d="M13.4444 5.5V7C13.4444 7.39782 13.2805 7.77936 12.9888 8.06066C12.6971 8.34196 12.3014 8.5 11.8889 8.5H2.55554" stroke="#24272C" stroke-width="1.2" stroke-linecap="round" stroke-linejoin="round"/>
</g>
</svg>
