<?xml version="1.0" encoding="UTF-8"?>
<!-- Generator: Adobe Illustrator 24.3.0, SVG Export Plug-In . SVG Version: 6.00 Build 0)  -->
<svg version="1.1" id="Layer_1" xmlns="http://www.w3.org/2000/svg" xmlns:xlink="http://www.w3.org/1999/xlink" x="0px" y="0px" viewBox="0 0 539 529" style="enable-background:new 0 0 539 529;" xml:space="preserve">
<style type="text/css">
	.st0{fill:#FFFFFF;}
	.st1{font-family:'Jost-Medium';}
	.st2{font-size:55.7611px;}
	.st3{fill:#FFB703;}
</style>
<text transform="matrix(1 0 0 1 0.5838 497.2849)" class="st0 st1 st2">UNIVERSAL MOTORS</text>
<g>
	<path class="st0" d="M107.84,197.57v-158l89.33-15.33v237.33l25.33,28V18.9l40.67-6v350.67c0,0-74-37.33-106-92V70.23l-9.33,0.67   v126.67H107.84z"/>
	<path class="st3" d="M271.84,363.57v-352l38.67,7.33l13.33,88l12.67-82.67l89.33,16v159.33h-40V72.23l-9.33-2v201.33   c0,0-22.67,37.33-40,48v-138l-11.33,52.67l-13.33-54v160C311.84,340.23,283.84,358.9,271.84,363.57z"/>
	<path class="st0" d="M271.5,418.57v-44.5c0,0,101.5-50,114.5-103.5v-35.5h40c0,0,3,47.5-9.5,66.5S377,365.57,271.5,418.57z"/>
	<path class="st3" d="M262.82,418.07v-44.5c0,0-101.5-50-114.5-103.5v-35.5h-40c0,0-3,47.5,9.5,66.5S157.32,365.07,262.82,418.07z"/>
</g>
</svg>